<?xml version="1.0" standalone="no"?>
<!DOCTYPE svg PUBLIC "-//W3C//DTD SVG 1.1//EN" "http://www.w3.org/Graphics/SVG/1.1/DTD/svg11.dtd" >
<svg>
<metadata>
Created by FontForge 20090914 at Mon Oct 19 18:30:17 2020
 By www-data
Generated by Fontographer 3.5
</metadata>
<defs>
<font id="Carefree" horiz-adv-x="472" >
  <font-face 
    font-family="Carefree"
    font-weight="400"
    font-stretch="normal"
    units-per-em="1000"
    panose-1="0 0 0 0 0 0 0 0 0 0"
    ascent="800"
    descent="-200"
    x-height="322.999"
    cap-height="693"
    bbox="-258.998 -298.999 992 897.999"
    underline-thickness="25"
    underline-position="-188"
    unicode-range="U+0020-U+F001"
  />
<missing-glyph horiz-adv-x="500" 
d="M31 0v700h438v-700h-438zM438 31v638h-376v-638h376z" />
    <glyph glyph-name=".notdef" horiz-adv-x="500" 
d="M31 0v700h438v-700h-438zM438 31v638h-376v-638h376z" />
    <glyph glyph-name="space" unicode=" " horiz-adv-x="165" 
 />
    <glyph glyph-name="exclam" unicode="!" horiz-adv-x="276" 
d="M398 662c0 -13.333 -4 -26.667 -12 -40l-260 -441l-15 -31c-9.33301 -16 -20 -24 -32 -24c-19.333 0 -29 8 -29 24c0 12.667 7 31 21 55l260 441l14 22c8 11.333 16.333 17 25 17c18.667 0 28 -7.66699 28 -23zM56 49.999c0 -22 -4.66699 -40.5 -14 -55.5
s-22 -22.5 -38 -22.5c-17.333 0 -26 9.33301 -26 28c0 14 5.66699 31.833 17 53.5s22.333 32.5 33 32.5c18.667 0 28 -12 28 -36z" />
    <glyph glyph-name="quotedbl" unicode="&#x22;" horiz-adv-x="308" 
d="M449 680c-10 -60 -28.001 -125.666 -54.001 -196.999c-4 -10 -9.5 -18.667 -16.5 -26s-14.167 -11 -21.5 -11c-6 0 -11.5 1.66699 -16.5 5s-7.5 7.66602 -7.5 12.999c0 18 6.33301 49 19 93s26 85 40 123c6.66699 17.333 18.334 26 35.001 26c6 0 11.5 -2.66699 16.5 -8
s6.83301 -11.333 5.5 -18zM263.999 677.001c-10 -60 -28.001 -125.666 -54.001 -196.999c-4 -10 -9.5 -18.667 -16.5 -26s-14.167 -11 -21.5 -11c-6 0 -11.5 1.66699 -16.5 5s-7.5 7.66602 -7.5 12.999c0 18 6.33301 49 19 93s26 85 40 123
c6.66699 17.333 18.334 26 35.001 26c6 0 11.5 -2.66699 16.5 -8s6.83301 -11.333 5.5 -18z" />
    <glyph glyph-name="numbersign" unicode="#" horiz-adv-x="688" 
d="M733 507l-13.001 -33.001h-113l-127 -240h159c-1.33301 0.666992 -4.66602 -4.66602 -9.99902 -15.999c-1.33301 -3.33301 -4 -9 -8 -17h-167l-108 -206h-42l109 206h-131l-109 -200l-39 2l104 198h-129l18 33h137l129 240h-153l8 33h160l90 171h41l-91 -171h133l89 162
h42l-90 -162h111zM565.999 473.999h-132l-127 -240h132z" />
    <glyph glyph-name="dollar" unicode="$" horiz-adv-x="457" 
d="M496 480c0 -32 -18.999 -62.335 -56.999 -91.002c-43.333 -32.667 -100.333 -54.667 -171 -66l-24 -40c37.333 -44 56 -87.667 56 -131c0 -44.667 -18 -81.334 -54 -110.001s-80.667 -43 -134 -43h-16c-4 0.666992 -7 1 -9 1c-8 -15.333 -13 -24.666 -15 -27.999
c-8 -12.667 -16.333 -19 -25 -19c-12 0 -18 4 -18 12c0 4.66699 1.66699 10.667 5 18c6 10.667 10.333 19 13 25c-26 14 -44.667 29.167 -56 45.5s-17 33.833 -17 52.5s7 36.834 21 54.501s31.333 32.5 52 44.5c10 3.33301 18.333 5 25 5c16.667 0 25 -5 25 -15
c0 -6.66699 -6 -14 -18 -22c-13.333 -6.66699 -23.5 -15 -30.5 -25s-10.5 -20.667 -10.5 -32c0 -12.667 3.16699 -24.167 9.5 -34.5s14.166 -16.5 23.499 -18.5l118 205c-32.667 36.667 -49 73.334 -49 110.001c0 46.667 22.5 87.167 67.5 121.5s96.5 51.5 154.5 51.5
c4.66699 6 12 16.667 22 32s18.333 23 25 23c14 0 21 -3.66699 21 -11c0 -11.333 -7 -26 -21 -44c28 -2.66699 49.5 -10.5 64.5 -23.5s22.5 -28.833 22.5 -47.5zM440.001 479.998c0 9.33301 -4.33105 17.001 -12.998 23.001s-22.334 9 -41.001 9l-79 -118
c2.66699 -0.666992 7 -1 13 -1c23.333 0 49.166 10.167 77.499 30.5s42.5 39.166 42.5 56.499zM331.003 503.999c-35.333 -6 -66.667 -21.666 -94 -46.999s-41 -51.666 -41 -78.999c0 -20.667 8 -39 24 -55c5.33301 5.33301 8 11.666 8 18.999
c-1.33301 7.33301 -2 12.666 -2 15.999c0 6.66699 2 12 6 16s13.333 8 28 12zM248.002 164c0 28.667 -11.665 50.001 -34.998 64.001l-103 -173c2 -0.666992 5.66699 -1.33398 11 -2.00098s11.666 -1 18.999 -1c31.333 0 57.166 11.5 77.499 34.5s30.5 48.833 30.5 77.5z
" />
    <glyph glyph-name="percent" unicode="%" horiz-adv-x="528" 
d="M268 534c0 -44 -17.334 -93.001 -52.001 -147.001c-38 -58.667 -76 -88 -114 -88c-22 0 -38.833 6.83301 -50.5 20.5s-17.5 31.834 -17.5 54.501c0 38.667 22.833 88.5 68.5 149.5s82.834 91.5 111.501 91.5c10.667 1.33301 16 -4.66699 16 -18l-2 -14
c13.333 0 23.333 -4.33301 30 -13s10 -20.667 10 -36zM553.999 590.999c0 -13.333 -10 -31.335 -30 -54.002l-52 -57l-103 -108l-137 -150c-46.667 -53.333 -79.334 -93.333 -98.001 -120l-47 -75c-14 -18 -30 -27 -48 -27c-8 0 -12 5 -12 15c0 8.66699 4 19.334 12 32.001
c18.667 40.667 57 95.334 115 164.001l168 189c76.667 83.333 124.334 136.333 143.001 159c6 6 18.333 20.333 37 43c11.333 13.333 20 20 26 20c19.333 -6.66699 28 -17 26 -31zM501.999 227.997c0 -44 -17.334 -93.001 -52.001 -147.001c-38 -58.667 -76 -88 -114 -88
c-22 0 -38.833 6.83301 -50.5 20.5s-17.5 31.834 -17.5 54.501c0 38.667 22.833 88.5 68.5 149.5s82.834 91.5 111.501 91.5c10.667 1.33301 16 -4.66699 16 -18l-2 -14c13.333 0 23.333 -4.33301 30 -13s10 -20.667 10 -36zM221.998 520.996
c0 25.333 -10.999 38.002 -32.999 38.002c-10.667 3.33301 -31.334 -18.834 -62.001 -66.501s-46 -86.834 -46 -117.501c0 -18 7 -30 21 -36c18 -6 42.5 14.5 73.5 61.5s46.5 87.167 46.5 120.5zM455.999 214.998c0 25.333 -10.999 38.002 -32.999 38.002
c-10.667 3.33301 -31.334 -18.834 -62.001 -66.501s-46 -86.834 -46 -117.501c0 -18 7 -30 21 -36c18 -6 42.5 14.5 73.5 61.5s46.5 87.167 46.5 120.5z" />
    <glyph glyph-name="ampersand" unicode="&#x26;" horiz-adv-x="661" 
d="M638 323c0 -11.333 -9.99902 -17.0029 -29.999 -17.0029c-6 0 -16.5 0.333008 -31.5 1s-23.5 1 -25.5 1c-17.333 0 -33.333 -1.16699 -48 -3.5s-30 -6.83301 -46 -13.5c-4 -28 -15.167 -60.667 -33.5 -98s-38.833 -67.666 -61.5 -90.999
c12.667 -20 25.667 -34.167 39 -42.5s28.333 -12.5 45 -12.5c6 0 13.667 1 23 3c22.667 4.66699 36.334 7 41.001 7c20 0 30 -7.66699 30 -23c0 -12 -9.5 -23.667 -28.5 -35s-43.167 -17 -72.5 -17c-23.333 0 -44.333 4.66699 -63 14s-39 26.333 -61 51
c-16.667 -16 -35.667 -29 -57 -39c-26.667 -12.667 -54 -19 -82 -19c-40.667 0 -76 16.333 -106 49s-45 71.334 -45 116.001c0 48.667 16 93.667 48 135c36.667 47.333 91 85 163 113c0 86.667 16 151 48 193c26 34 60 51 102 51c21.333 0 40.666 -8.66699 57.999 -26
s26 -39 26 -65c0 -28 -11.667 -56 -35 -84c-28 -34 -70.667 -65 -128 -93l39 -213c15.333 19.333 27.5 38.5 36.5 57.5s15.5 39.167 19.5 60.5c-16 2.66699 -28.333 5.33398 -37 8.00098c-17.333 5.33301 -26 16 -26 32c0 12 4.66699 20.167 14 24.5s22.666 6.5 39.999 6.5
c6 0 13.667 -0.166992 23 -0.5s20.333 -0.833008 33 -1.5h19c6 1.33301 10 2 12 2c9.33301 0 26.333 2 51 6s43 6 55 6c16 0 28.667 -3.16699 38 -9.5s14 -17.5 14 -33.5zM406.001 545.997c0 24.667 -12 37 -36 37c-22 0 -39.333 -16.333 -52 -49s-19 -69 -19 -109
c34 14 61 33.333 81 58c17.333 21.333 26 42.333 26 63zM291.001 101.997l-46.999 252c-48.667 -23.333 -85.334 -54 -110.001 -92c-20.667 -32 -31 -65.667 -31 -101s11.667 -62.333 35 -81c18.667 -14.667 40 -22 64 -22c18 0 34.5 4 49.5 12s28.167 18.667 39.5 32z" />
    <glyph glyph-name="quotesingle" unicode="'" horiz-adv-x="157" 
d="M339 669c0 -31.333 -17.667 -69.334 -53 -114.001s-65 -67 -89 -67c-15.333 0 -23 6.33301 -23 19c-0.666992 8 4.33301 17.333 15 28c22 18.667 41.333 42.334 58 71.001c14.667 25.333 24.334 49 29.001 71c3.33301 21.333 14.666 32 33.999 32
c8 0 14.833 -3.33301 20.5 -10s8.5 -16.667 8.5 -30z" />
    <glyph glyph-name="parenleft" unicode="(" horiz-adv-x="378" 
d="M541 737c0 -10 -4.33008 -19.3311 -12.9971 -27.998c-118 -106 -212 -225.667 -282 -359c-64.667 -122.667 -107.334 -252.334 -128.001 -389.001c0 -28 -2.33301 -48.333 -7 -61c-6.66699 -17.333 -17.334 -26 -32.001 -26c-6 0 -10.333 3.16699 -13 9.5
s-4 14.833 -4 25.5c0 7.33301 0.833008 16 2.5 26s3.83398 18.667 6.50098 26c0 132.667 28 257.667 84 375c43.333 90 102.666 175 177.999 255c28 30 82.333 79.667 163 149c11.333 9.33301 20.666 14 27.999 14c11.333 1.33301 17 -4.33398 17 -17.001z" />
    <glyph glyph-name="parenright" unicode=")" horiz-adv-x="378" 
d="M402 724c0 -104 -20 -208.665 -60 -313.998c-33.333 -88 -79 -174 -137 -258c-42.667 -61.333 -92.667 -122.333 -150 -183c-36 -36.667 -57.667 -58.334 -65 -65.001c-26.667 -23.333 -47 -33.333 -61 -30c-8 0 -12 3.33301 -12 10c0 12.667 9.33301 27.667 28 45
c74.667 62.667 145 144.667 211 246c60 93.333 108 188.666 144 285.999s54 180 54 248c0 13.333 3 24 9 32s12.667 12 20 12c12.667 0 19 -9.66699 19 -29z" />
    <glyph glyph-name="asterisk" unicode="*" horiz-adv-x="433" 
d="M457 591c0 -18 -15.666 -32.332 -46.999 -42.999c-24.667 -8.66699 -48.334 -13 -71.001 -13c3.33301 -11.333 18.333 -31.333 45 -60c11.333 -12 17 -21.333 17 -28c0 -4.66699 -1.83301 -9 -5.5 -13s-8.5 -6 -14.5 -6c-14.667 0 -30.167 9.66699 -46.5 29
s-28.166 40.333 -35.499 63c-8.66699 -2 -19.334 -13 -32.001 -33c-25.333 -38.667 -43.333 -56.667 -54 -54c-14 2 -21 9.33301 -21 22c0 14.667 8.83301 32.667 26.5 54s34.167 35.333 49.5 42c-12 14 -32.333 29 -61 45c-20 11.333 -28.667 22.666 -26 33.999
c2 11.333 8 17 18 17c11.333 0 28.666 -7.33301 51.999 -22l40 -27c2 3.33301 4.5 20 7.5 50s13.833 45 32.5 45c14 0 21 -10 21 -30c0 -12 -2.16699 -25.667 -6.5 -41s-9.16602 -28.333 -14.499 -39c2 -3.33301 6.33301 -5 13 -5c8.66699 0 20 2.33301 34 7
c36.667 12 57.667 18 63 18c10.667 0 16 -4 16 -12z" />
    <glyph glyph-name="plus" unicode="+" horiz-adv-x="563" 
d="M572 234c0 -10 -5.33008 -16.501 -15.9971 -19.501s-24.334 -4.5 -41.001 -4.5h-19h-140l-39 -160c-4.66699 -18.667 -8 -30 -10 -34c-5.33301 -12 -13.666 -18 -24.999 -18c-4.66699 0 -8.33398 3.5 -11.001 10.5s-4 14.5 -4 22.5c0 4.66699 0.666992 11 2 19l39 160
h-133c-20 0 -36 1.33301 -48 4s-18 8.33398 -18 17.001c0 8 3.83301 13.333 11.5 16s19.167 4 34.5 4h22h142l41 164c3.33301 13.333 8.16602 25.166 14.499 35.499s13.166 15.5 20.499 15.5c9.33301 0 14 -11.667 14 -35c0 -9.33301 -1 -17.666 -3 -24.999l-39 -155h148
c14 0.666992 23.667 1 29 1c18.667 0 28 -6 28 -18z" />
    <glyph glyph-name="comma" unicode="," horiz-adv-x="220" 
d="M87 31c0 -30.667 -17.834 -68.501 -53.501 -113.501s-65.167 -67.5 -88.5 -67.5c-14.667 0 -22 6.33301 -22 19c-1.33301 8.66699 3.33398 18.334 14.001 29.001c22 18 41.333 41.333 58 70c14.667 25.333 24.334 49 29.001 71c3.33301 22 14.666 33 33.999 33
s29 -13.667 29 -41z" />
    <glyph glyph-name="hyphen" unicode="-" horiz-adv-x="333" 
d="M300 197h-260v55h260v-55z" />
    <glyph glyph-name="period" unicode="." horiz-adv-x="220" 
d="M102 40c0 -16 -6.16699 -33.001 -18.5 -51.001s-24.5 -27 -36.5 -27c-13.333 0 -20 9.33301 -20 28c0 14.667 5.5 32.834 16.5 54.501s22.167 32.5 33.5 32.5c16.667 0 25 -12.333 25 -37z" />
    <glyph glyph-name="slash" unicode="/" horiz-adv-x="339" 
d="M513 667c0 -4 -24.002 -34.666 -72.002 -91.999l-145 -175.5c-55.333 -69 -111.666 -143.167 -168.999 -222.5c-62.667 -86.667 -107.667 -153.667 -135 -201l-20 -35c-6.66699 -10 -14 -15.333 -22 -16c-13.333 0 -23.333 2.66699 -30 8s-10 12.666 -10 21.999
c-1.33301 10.667 5 23 19 37c32 54.667 79.333 123.667 142 207l164 211c68 86 110.333 141 127 165l55 72c29.333 34.667 51.333 52 66 52c8.66699 0 15.834 -3.83301 21.501 -11.5s8.5 -14.5 8.5 -20.5z" />
    <glyph glyph-name="zero" unicode="0" horiz-adv-x="323" 
d="M361 399c0 -96 -31.333 -184 -94 -264c-59.333 -76 -120.333 -114 -183 -114c-28.667 0 -49.667 12.667 -63 38c-10.667 20 -16 47.333 -16 82c0 106 36 202 108 288c63.333 76 121.333 114 174 114c13.333 0 20 -13 20 -39c20 -8.66699 34 -22.167 42 -40.5
s12 -39.833 12 -64.5zM304 383c0 22.667 -4.33301 42 -13 58s-21.667 24 -39 24c-32.667 0 -71 -36.667 -115 -110c-46 -76.667 -69 -148.667 -69 -216c0 -19.333 2.66699 -34.333 8 -45s15 -16 29 -16c40.667 0 84.667 38.667 132 116c44.667 73.333 67 136.333 67 189z
" />
    <glyph glyph-name="one" unicode="1" horiz-adv-x="244" 
d="M315 512c0 -7.33301 -2.66797 -15.335 -8.00098 -24.002c-24 -40 -59.333 -102.333 -106 -187c-49.333 -89.333 -85 -155.666 -107 -198.999c-14.667 -29.333 -23 -45.666 -25 -48.999c-9.33301 -15.333 -18 -23 -26 -23c-6 0 -11.667 2 -17 6s-8 10.333 -8 19
s3.33301 21 10 37c4.66699 11.333 13.667 30.666 27 57.999c23.333 50.667 49.333 102 78 154c21.333 38.667 48 84.334 80 137.001c-68 -39.333 -108.333 -59 -121 -59c-11.333 0 -18.333 6.66699 -21 20c-3.33301 12 12.334 26 47.001 42c43.333 20 67 32 71 36
c24 18.667 44.167 32.167 60.5 40.5s29.833 12.5 40.5 12.5c16.667 0 25 -7 25 -21z" />
    <glyph glyph-name="two" unicode="2" horiz-adv-x="362" 
d="M411 433c0 -34.667 -16.3359 -66 -49.0029 -94c-24.667 -22.667 -62.667 -52.667 -114 -90c-66 -48 -106.667 -78 -122 -90c-41.333 -32.667 -67.666 -59.334 -78.999 -80.001c20.667 6.66699 45.834 13 75.501 19s54.5 9 74.5 9c20.667 0 36.5 -2.66699 47.5 -8
s16.5 -14.333 16.5 -27c0 -17.333 -4.33301 -26 -13 -26c-1.33301 0 -9.66602 1 -24.999 3s-30.333 3 -45 3c-21.333 0 -43 -1.83301 -65 -5.5s-49.333 -11.167 -82 -22.5c-12 -4.66699 -23.667 -7 -35 -7c-24.667 0 -37 10.667 -37 32c0 13.333 8.33301 28.333 25 45
c34.667 34.667 83.667 77 147 127c52 41.333 110.667 85.666 176 132.999c26 18 39 40.333 39 67c0 13.333 -4.33301 24 -13 32s-22.667 12 -42 12c-18 0 -37.833 -7.83301 -59.5 -23.5l-66.5 -47.5c-20 0 -30 5.66699 -30 17c0 18.667 19 40.334 57 65.001
c42.667 27.333 86.667 41 132 41c26 0 47 -8.66699 63 -26s24 -36.666 24 -57.999z" />
    <glyph glyph-name="three" unicode="3" horiz-adv-x="331" 
d="M349 449c0 -22 -8.99902 -42.999 -26.999 -62.999s-44 -38.333 -78 -55c34 -15.333 51 -43 51 -83c0 -53.333 -24.5 -104.833 -73.5 -154.5s-97.167 -74.5 -144.5 -74.5c-25.333 0 -47.5 8.33301 -66.5 25s-28.5 40 -28.5 70c0 16.667 4 30.667 12 42s20.333 17 37 17
c8.66699 0 14.5 -2.33301 17.5 -7s4.5 -11.334 4.5 -20.001v-19c0 -16 2 -27 6 -33c6.66699 -10 20 -15 40 -15c30.667 0 62 21 94 63c30 39.333 45 74 45 104v9c-1.33301 2.66699 -2 4.33398 -2 5.00098c-4.66699 16 -11 27.333 -19 34s-16.667 10 -26 10
c-6.66699 0 -14.834 -1.33301 -24.501 -4s-15.834 -4 -18.501 -4c-5.33301 0 -10 3.16699 -14 9.5s-6 12.166 -6 17.499c0 12 12.667 23 38 33l62 22c16.667 9.33301 29.5 19.833 38.5 31.5s13.5 22.167 13.5 31.5c0 20.667 -12 31 -36 31c-12 0 -31 -6.83301 -57 -20.5
s-43 -20.5 -51 -20.5c-12.667 0 -19 4.33301 -19 13c0 14.667 16.667 31.5 50 50.5s66.333 28.5 99 28.5c22.667 0 41.334 -6.5 56.001 -19.5s23.667 -31.167 27 -54.5z" />
    <glyph glyph-name="four" unicode="4" horiz-adv-x="362" 
d="M394 518c0 -12 -13.332 -37.666 -39.999 -76.999c-16.667 -24.667 -29.667 -45.667 -39 -63l-47 -87c16.667 3.33301 30.334 5 41.001 5c29.333 0 41.666 -9.33301 36.999 -28c-3.33301 -14.667 -11.333 -23.667 -24 -27s-38.667 -5 -78 -5
c-27.333 -45.333 -48.333 -91.333 -63 -138c-17.333 -54.667 -33 -82 -47 -82c-20.667 0 -31 10.333 -31 31c0 21.333 9.33301 52.666 28 93.999l42 87c-24 0 -52 -3.83301 -84 -11.5s-51.333 -11.5 -58 -11.5c-16 0 -24 7.33301 -24 22c0 21.333 24 58 72 110
s99 98.667 153 140c59.333 45.333 101.666 68 126.999 68c9.33301 0 17.5 -2.5 24.5 -7.5s10.5 -11.5 10.5 -19.5zM307.001 465.001c-20.667 -8.66699 -51.332 -30.665 -91.999 -65.998c-44.667 -39.333 -87.334 -83 -128.001 -131c8.66699 2 23.667 4.16699 45 6.5
s45.666 5.16602 72.999 8.49902c14.667 33.333 32.334 67.666 53.001 102.999z" />
    <glyph glyph-name="five" unicode="5" horiz-adv-x="339" 
d="M401 501c0 -14 -7.66406 -21.002 -22.9971 -21.002l-134 -15c-11.333 -6 -24 -16.333 -38 -31c-2.66699 -2.66699 -26.667 -32 -72 -88c35.333 12.667 65 19 89 19c30 0 51.667 -7.5 65 -22.5s20 -35.5 20 -61.5c0 -62 -23.667 -119.667 -71 -173
c-49.333 -56 -106 -84 -170 -84c-26.667 0 -46.334 9.16699 -59.001 27.5s-19 40.5 -19 66.5c0 22.667 4.16699 42.834 12.5 60.501s18.166 26.5 29.499 26.5c10.667 0 18 -2.33301 22 -7s6 -11.334 6 -20.001c0 -8 -0.333008 -14.333 -1 -19
c-3.33301 -22.667 -5 -34.667 -5 -36c0 -11.333 2.33301 -20.5 7 -27.5s13.667 -12.5 27 -16.5c5.33301 -1.33301 9.66602 -2 12.999 -2c28.667 0 59.667 21.667 93 65s50 83 50 119c0 14 -4.5 26.833 -13.5 38.5s-20.5 17.5 -34.5 17.5
c-15.333 0 -34.666 -6.5 -57.999 -19.5s-38 -19.5 -44 -19.5c-8 0 -15.333 3 -22 9s-10 13.667 -10 23c0 12 11.167 33.667 33.5 65s51.166 66.333 86.499 105c-8 6.66699 -12.333 12.334 -13 17.001c0 10.667 22 19.334 66 26.001s83 10 117 10
c16.667 0 29.167 -3.16699 37.5 -9.5s12.5 -13.833 12.5 -22.5z" />
    <glyph glyph-name="six" unicode="6" horiz-adv-x="346" 
d="M335 496c0 -12.667 -6.66895 -23 -20.002 -31c-46.667 -26 -87 -53 -121 -81c-26 -22 -48.667 -45 -68 -69c24.667 10.667 42 17.667 52 21c20.667 6.66699 39.334 10 56.001 10c24.667 0 43.667 -6.33301 57 -19c16 -15.333 24 -40.333 24 -75
c0 -62.667 -28.667 -119.667 -86 -171c-50 -44.667 -95 -67 -135 -67c-30 0 -54.333 11.667 -73 35s-28 52.666 -28 87.999c0 54.667 22.333 113.334 67 176.001c38 53.333 83.333 99.833 136 139.5s92.334 59.5 119.001 59.5c13.333 0 20 -5.33301 20 -16zM256.998 253
c0 14 -3.50293 25.167 -10.5029 33.5s-18.167 12.5 -33.5 12.5c-17.333 0 -36.166 -3 -56.499 -9s-46.166 -18.667 -77.499 -38c-8.66699 -10 -16.167 -24.333 -22.5 -43s-9.5 -37.334 -9.5 -56.001c0 -23.333 4.83301 -42.833 14.5 -58.5s25.834 -23.5 48.501 -23.5
c32 -2.66699 64.5 17.833 97.5 61.5s49.5 83.834 49.5 120.501z" />
    <glyph glyph-name="seven" unicode="7" horiz-adv-x="299" 
d="M385 489c1.33301 -10 -3.66797 -20.6641 -15.001 -31.9971c-58 -54.667 -115.167 -120.167 -171.5 -196.5s-98.833 -144.833 -127.5 -205.5c-7.33301 -20.667 -17 -34.334 -29 -41.001c-7.33301 -4 -18.666 -6 -33.999 -6c-8.66699 0 -13 4.33301 -13 13
c0 19.333 22.333 61.666 67 126.999c36 52.667 83 114 141 184c54 65.333 94 109.666 120 132.999c-24 -5.33301 -57 -11.166 -99 -17.499s-74.333 -9.5 -97 -9.5c-14 0 -25.5 0.666992 -34.5 2s-13.5 7 -13.5 17c0 18 25.5 27.833 76.5 29.5s101.5 10.167 151.5 25.5
c16.667 4.66699 28.667 7 36 7c14 0 24.5 -2.83301 31.5 -8.5s10.5 -12.834 10.5 -21.501z" />
    <glyph glyph-name="eight" unicode="8" horiz-adv-x="339" 
d="M375 479c0 -24.667 -9.66602 -49 -28.999 -73c-22.667 -27.333 -54 -49.666 -94 -66.999c20 -13.333 34.5 -28.666 43.5 -45.999s13.5 -36.333 13.5 -57c0 -49.333 -24.5 -97.166 -73.5 -143.499s-99.167 -69.5 -150.5 -69.5c-33.333 0 -61 9.66699 -83 29
s-33 43.666 -33 72.999c0 35.333 16 71.666 48 108.999c36 42 88 79.333 156 112c-30 20 -45 47 -45 81c0 32 15.167 60.667 45.5 86s68.166 38 113.499 38c27.333 0 48.833 -6.83301 64.5 -20.5s23.5 -30.834 23.5 -51.501zM309.001 466c0 11.333 -4.33203 21 -12.999 29
s-19 12 -31 12c-22 0 -40.333 -7 -55 -21s-22 -29 -22 -45c0 -22.667 13.333 -43.667 40 -63c27.333 14 47.666 28.833 60.999 44.5s20 30.167 20 43.5zM248.002 234c0 32.667 -14.335 59.666 -43.002 80.999c-47.333 -26 -86.166 -56.667 -116.499 -92
s-45.5 -66.666 -45.5 -93.999c0 -14 6.83301 -26.167 20.5 -36.5s28.834 -15.5 45.501 -15.5c34 0 65.667 16.667 95 50s44 69 44 107z" />
    <glyph glyph-name="nine" unicode="9" horiz-adv-x="323" 
d="M365 459c0 -43.333 -16.4971 -96.333 -49.4971 -159s-77.833 -126 -134.5 -190c-16.667 -20.667 -35.5 -39 -56.5 -55s-38.833 -24 -53.5 -24c-2 0 -4.83301 1 -8.5 3s-5.83398 4.66699 -6.50098 8c0 8.66699 9.66699 22 29 40l49 44c18 18 37.167 41.667 57.5 71
s32.5 50.333 36.5 63c-12.667 -10.667 -27.834 -19.5 -45.501 -26.5s-34.834 -10.5 -51.501 -10.5c-25.333 0 -46.5 9.66699 -63.5 29s-25.5 44.333 -25.5 75c0 56 27 109.667 81 161c50.667 48 98.667 72 144 72c31.333 0 55.5 -9.16699 72.5 -27.5
s25.5 -42.833 25.5 -73.5zM302.003 454c0 19.333 -4 34.332 -12 44.999s-20.667 15 -38 13c-35.333 -2.66699 -69.833 -24.667 -103.5 -66s-50.5 -79.666 -50.5 -114.999c0 -15.333 4.66699 -27.666 14 -36.999s21.666 -14 36.999 -14c18.667 0 38.334 4.66699 59.001 14
s40.667 21.666 60 36.999c8.66699 14.667 16.5 34 23.5 58s10.5 45.667 10.5 65z" />
    <glyph glyph-name="colon" unicode=":" horiz-adv-x="220" 
d="M189 306c0 -19.333 -5.33203 -36.667 -15.999 -52s-23.334 -23 -38.001 -23c-14 0 -21 10 -21 30c0 15.333 5.5 32.833 16.5 52.5s22.167 29.5 33.5 29.5c16.667 0 25 -12.333 25 -37zM87.001 45.999c0 -15.333 -6.33301 -32 -19 -50s-24.667 -26.333 -36 -25
c-13.333 0 -20 11 -20 33c0 13.333 5.5 30 16.5 50s21.833 30 32.5 30c17.333 0 26 -12.667 26 -38z" />
    <glyph glyph-name="semicolon" unicode=";" horiz-adv-x="220" 
d="M189 300c0 -15.333 -5.83301 -32 -17.5 -50s-23.5 -27 -35.5 -27c-14.667 0 -22 9.33301 -22 28c0 14.667 5.66699 32.5 17 53.5s22.333 31.5 33 31.5c16.667 0 25 -12 25 -36zM87 31c0 -30.667 -17.833 -68.5 -53.5 -113.5s-65.167 -67.5 -88.5 -67.5
c-15.333 0 -23 6.66699 -23 20c0 8.66699 5 18 15 28c22 18 41.333 41.333 58 70c14.667 25.333 24.334 49 29.001 71c3.33301 21.333 14.666 32 33.999 32c8 0 14.833 -3.33301 20.5 -10s8.5 -16.667 8.5 -30z" />
    <glyph glyph-name="less" unicode="&#x3c;" horiz-adv-x="511" 
d="M548 430c-2.66699 -4.66699 -5 -8.00195 -7 -10.002c-7.33301 -8 -16.666 -12.667 -27.999 -14l-349 -164l266 -198c6 -5.33301 9.66699 -12.666 11 -21.999c0 -14.667 -5.33301 -22 -16 -22c-4 0 -10.5 1.83301 -19.5 5.5s-14.5 7.5 -16.5 11.5l-247 193
c-16 6.66699 -24 15.334 -24 26.001l2 6c1.33301 6 5 12.167 11 18.5s16.333 13.5 31 21.5l331 150c6 3.33301 12.667 6.33301 20 9s13.666 4 18.999 4c10.667 0 16 -5 16 -15z" />
    <glyph glyph-name="equal" unicode="=" horiz-adv-x="616" 
d="M627 336c0 -6 -5.66797 -10.667 -17.001 -14s-26 -5 -44 -5h-339c-26 0 -43 0.833008 -51 2.5s-12 5.16699 -12 10.5c0 8 6.83301 14.667 20.5 20s30.834 8 51.501 8h338c35.333 0 53 -7.33301 53 -22zM577.999 129c0 -6 -5.66797 -10.667 -17.001 -14s-26 -5 -44 -5
h-339c-26 0 -43 0.833008 -51 2.5s-12 5.16699 -12 10.5c0 8 6.83301 14.667 20.5 20s30.834 8 51.501 8h338c35.333 0 53 -7.33301 53 -22z" />
    <glyph glyph-name="greater" unicode="&#x3e;" horiz-adv-x="511" 
d="M538 190l-2 -5.99805c-1.33301 -6 -5 -12.167 -11 -18.5s-16.333 -13.5 -31 -21.5l-331 -150c-6 -3.33301 -12.667 -6.33301 -20 -9s-13.666 -4 -18.999 -4c-10.667 0 -16 5 -16 15c2.66699 4.66699 5 8 7 10c7.33301 8 16.666 12.667 27.999 14l349 164l-266 198
c-6 5.33301 -9.66699 12.666 -11 21.999c0 14.667 5.33301 22 16 22c4 0 10.5 -1.83301 19.5 -5.5s14.5 -7.5 16.5 -11.5l247 -193c16 -6.66699 24 -15.334 24 -26.001z" />
    <glyph glyph-name="question" unicode="?" horiz-adv-x="386" 
d="M510 605c0 -40.667 -21.668 -81.999 -65.001 -123.999c-6 -6 -50 -41 -132 -105c-53.333 -42 -86.666 -78 -99.999 -108c-10.667 -22 -20.667 -39 -30 -51c-14 -18.667 -27.667 -28 -41 -28s-20 7.33301 -20 22c0 22 11 49 33 81c18.667 27.333 45.667 58.666 81 93.999
l132 95c62.667 46.667 94 89 94 127c0 14 -4.16699 25.167 -12.5 33.5s-21.833 12.5 -40.5 12.5c-35.333 0 -70.333 -13.333 -105 -40l-107 -89c-5.33301 0 -10 1.83301 -14 5.5s-6 9.5 -6 17.5c0 26 27 58.167 81 96.5s101.333 57.5 142 57.5
c32.667 0 59.167 -8.83301 79.5 -26.5s30.5 -41.167 30.5 -70.5zM149.999 49.001c0 -20.667 -5 -38.832 -15 -54.499s-22.667 -23.5 -38 -23.5s-23 10.333 -23 31c0 13.333 5.5 30.166 16.5 50.499s21.833 30.833 32.5 31.5c18 0 27 -11.667 27 -35z" />
    <glyph glyph-name="at" unicode="@" horiz-adv-x="860" 
d="M917 526c0 -26 -12 -71.0029 -36 -135.003c-29.333 -78 -63.333 -141.667 -102 -191c-50.667 -64.667 -104.334 -97 -161.001 -97c-23.333 0 -35 14.333 -35 43c0 6.66699 1.16699 16.334 3.5 29.001s4.66602 24.334 6.99902 35.001s7.16602 27.334 14.499 50.001
s12 39.334 14 50.001c-46.667 -51.333 -98.5 -95.5 -155.5 -132.5s-104.833 -55.5 -143.5 -55.5c-18.667 0 -33.167 5.5 -43.5 16.5s-15.5 25.833 -15.5 44.5c0 44 20.667 97 62 159c44 66 97 120.667 159 164c71.333 50 142 75 212 75h17
c12.667 14.667 24.334 22 35.001 22c4 0 8.66699 -7.66699 14 -23l3 -12c0 -2.66699 -1 -5.83398 -3 -9.50098s-3.66699 -7.16699 -5 -10.5c-0.666992 0 -12 -31 -34 -93l-63 -179c-22.667 -66 -34 -102 -34 -108c0 -7.33301 2.16699 -13.5 6.5 -18.5
s9.16602 -7.5 14.499 -7.5c31.333 0 74.333 39.333 129 118c60 86.667 90 169 90 247c0 49.333 -12.333 89.666 -37 120.999c-28 35.333 -68 53 -120 53c-69.333 0 -148.666 -28.667 -237.999 -86c-86 -55.333 -159 -122.333 -219 -201c-64 -84 -96 -160 -96 -228
c0 -41.333 13.833 -74.166 41.5 -98.499s61.834 -36.5 102.501 -36.5c24.667 0 51 4.5 79 13.5s54.333 22.5 79 40.5c6 4.66699 12.333 9.33398 19 14.001c10 6.66699 18 10 24 10c4.66699 0 9.33398 -1.66699 14.001 -5c8 -6 12 -13.667 12 -23l-12 -10
c-10.667 -8 -21.667 -15 -33 -21c-77.333 -39.333 -143.666 -59 -198.999 -59c-50.667 0 -90.667 15.667 -120 47s-44 72.666 -44 123.999c0 86 35 173.667 105 263c64 82 143.667 150.667 239 206s181.666 83 258.999 83c57.333 0 104 -16.667 140 -50s54 -79.333 54 -138z
M694 499.997c0 14 -3.5 25.167 -10.5 33.5s-17.167 12.5 -30.5 12.5c-50 0 -119.667 -39 -209 -117c-94 -82 -141 -153.333 -141 -214c0 -30 14.667 -45 44 -45c48.667 0 118 41 208 123c92.667 84.667 139 153.667 139 207z" />
    <glyph glyph-name="A" unicode="A" 
d="M528 679c-2.66699 -24.667 -18.667 -80 -48 -166c-20 -58 -33 -97.667 -39 -119l26 4c28 0 42 -7.66699 42 -23c0 -10 -7 -18.5 -21 -25.5s-35 -10.5 -63 -10.5c-24 -90 -39.667 -170.333 -47 -241s-18 -106 -32 -106c-12 0 -20.5 6.16699 -25.5 18.5
s-7.5 30.5 -7.5 54.5c0 28 3.66699 62 11 102c3.33301 19.333 16 74 38 164l-197 -55c-40.667 -62.667 -78.167 -125.667 -112.5 -189s-62.166 -95 -83.499 -95c-10 0 -15 5.66699 -15 17c0 22 22.667 70 68 144l57 91c-20.667 -8.66699 -36.834 -15.167 -48.501 -19.5
s-21.167 -6.5 -28.5 -6.5c-12 -1.33301 -18 4.66699 -18 18c0 16 20.333 32.333 61 49l97 38c60.667 92 128 179.333 202 262c77.333 86.667 129.333 130 156 130c18.667 0 28 -12 28 -36zM449 614c-24.667 -14 -64.667 -54.667 -120 -122
c-48 -58 -84.333 -106.667 -109 -146l158 40c4.66699 21.333 22 74.333 52 159c12.667 35.333 19 58.333 19 69z" />
    <glyph glyph-name="B" unicode="B" 
d="M529 605c0 -38.667 -23.498 -77.835 -70.498 -117.502s-102.833 -68.167 -167.5 -85.5c40 -9.33301 70.667 -27.666 92 -54.999s32 -60 32 -98c0 -54 -30.833 -110 -92.5 -168s-124.167 -87 -187.5 -87c-20 0 -39.333 2.33301 -58 7s-36.334 12.334 -53.001 23.001
c0 -14.667 -2.5 -27.167 -7.5 -37.5s-13.167 -13.833 -24.5 -10.5c-16.667 5.33301 -25 19.333 -25 42c0 18 6.33301 43.667 19 77l22 55c26.667 64 73 153.333 139 268c62.667 108.667 105.667 176.667 129 204c-11.333 -2 -36.333 -11.333 -75 -28
c-18 -8 -30.333 -12 -37 -12c-11.333 2 -17 8.66699 -17 20s33.167 31.833 99.5 61.5s116.5 44.5 150.5 44.5c37.333 0 68.666 -9.66699 93.999 -29s38 -44 38 -74zM472.002 621.999c-4 12 -11.667 20.666 -23 25.999s-25 8 -41 8c-27.333 0 -53 -6 -77 -18
c4.66699 -2.66699 7 -6.66699 7 -12c0 -8 -7 -21.667 -21 -41c-48.667 -68 -81 -116 -97 -144c42 0 93.333 18 154 54c66.667 39.333 100 77 100 113c0 2.66699 -0.666992 7.33398 -2 14.001zM356.002 276.998c0 27.333 -13 50.167 -39 68.5s-51 27.5 -75 27.5
c-4.66699 0 -11.667 -0.333008 -21 -1s-15.666 -1 -18.999 -1c-10.667 0 -17.667 2.33301 -21 7l-62 -121c-26.667 -54.667 -53.334 -116.667 -80.001 -186c0 -6.66699 8.66699 -12.834 26 -18.501s37 -8.5 59 -8.5c58 0 112 27 162 81c46.667 50.667 70 101.334 70 152.001
z" />
    <glyph glyph-name="C" unicode="C" horiz-adv-x="441" 
d="M519 617c0 -32 -10.8311 -67.165 -32.498 -105.498s-49.834 -74.833 -84.501 -109.5c-6.66699 -6.66699 -13 -11.334 -19 -14.001s-12.333 -4 -19 -4c-18 0 -27 8.33301 -27 25c0 6.66699 2 13.334 6 20.001s10.333 13.334 19 20.001c38.667 29.333 69 61.333 91 96
c19.333 30 29 56 29 78s-9.66699 33 -29 33c-28.667 0 -67 -23.333 -115 -70c-37.333 -36.667 -78.333 -85.334 -123 -146.001c-39.333 -54 -66.333 -95.667 -81 -125c-20.667 -40 -36.167 -77 -46.5 -111s-15.5 -63 -15.5 -87c0 -28.667 6 -50.667 18 -66s28 -23 48 -23
c32 0 67 14.667 105 44c42 32.667 81.667 79.667 119 141c6.66699 8.66699 13.667 15.667 21 21s13.666 8 18.999 8c4 0 6 -2.33301 6 -7c0 -6.66699 -2 -14 -6 -22c-40 -74.667 -87.667 -133.334 -143 -176.001c-50.667 -39.333 -98.667 -59 -144 -59
c-33.333 0 -60 10.333 -80 31s-30 51.667 -30 93c0 30.667 5.83301 64.667 17.5 102s30.5 79.666 56.5 126.999c38 79.333 93.667 158.333 167 237c82 87.333 149 131 201 131c20 0 37 -8 51 -24s21 -35.333 21 -58z" />
    <glyph glyph-name="D" unicode="D" horiz-adv-x="488" 
d="M546 541c0 -66.667 -27.001 -144.998 -81.001 -234.998s-118 -166.333 -192 -229c-80 -67.333 -152.667 -101 -218 -101c-16 0 -29.5 5.16699 -40.5 15.5s-16.5 23.166 -16.5 38.499c0 18 4.33301 40.333 13 67c2.66699 8 9.33398 25.667 20.001 53
c18.667 49.333 47.667 113.333 87 192l126 249c-18 -23.333 -35 -35 -51 -35c-16 1.33301 -24 8.33301 -24 21c0 9.33301 21.667 29.666 65 60.999c51.333 36.667 98 55 140 55c46.667 0 86 -12.667 118 -38c36 -28 54 -66 54 -114zM481.999 550.002
c0 29.333 -8.16699 51.832 -24.5 67.499s-38.166 23.5 -65.499 23.5c-13.333 0 -27 -2.33301 -41 -7s-28.667 -11.334 -44 -20.001c4.66699 0 7 -2.33301 7 -7c0 -12 -21.667 -61.333 -65 -148l-121 -241c-43.333 -90 -65 -145.667 -65 -167c0 -15.333 6 -23 18 -23
c9.33301 0 21.666 3.5 36.999 10.5s31 15.167 47 24.5c76 46.667 147.833 120.834 215.5 222.501s101.5 189.834 101.5 264.501z" />
    <glyph glyph-name="E" unicode="E" horiz-adv-x="417" 
d="M624 694c0 -16.667 -16.665 -26.9961 -49.998 -30.9961c-12 -1.33301 -27.333 -2 -46 -2c-22.667 0 -56.5 -2.66699 -101.5 -8s-74.167 -10.333 -87.5 -15c9.33301 0 14 -2.66699 14 -8c0 -6 -20 -37 -60 -93c-28 -38.667 -52.333 -76 -73 -112l174 24
c28 0 42 -7.33301 42 -22c0 -8.66699 -7.66699 -16.334 -23 -23.001s-37.666 -10 -66.999 -10s-59.333 -3 -90 -9c-32 -7.33301 -54.333 -12.333 -67 -15c-40 -78.667 -67 -133 -81 -163c-22.667 -50 -37.667 -87.667 -45 -113c24.667 12.667 59.167 25.167 103.5 37.5
s78.166 18.5 101.499 18.5c20.667 0 36.5 -1.5 47.5 -4.5s16.5 -10.833 16.5 -23.5c0 -6.66699 -0.333008 -10.667 -1 -12c-3.33301 -7.33301 -34 -14 -92 -20c-38.667 -4 -76.334 -15.667 -113.001 -35c-42.667 -19.333 -77.334 -29 -104.001 -29c-24 0 -36 9.66699 -36 29
c0 4 2 12 6 24c24.667 66.667 54.834 136.667 90.501 210s71.167 137 106.5 191l70 104c10.667 17.333 18.667 32.666 24 45.999c-5.33301 0 -10.333 2.66699 -15 8s-7 10 -7 14c0 7.33301 4.66699 14.666 14 21.999s25.333 13.666 48 18.999
c32.667 6 74.167 11.833 124.5 17.5s91.166 8.5 122.499 8.5c24 0 40 -3 48 -9c5.33301 -4 7.33301 -9.33301 6 -16z" />
    <glyph glyph-name="F" unicode="F" horiz-adv-x="417" 
d="M609 690c0 -16 -4.49512 -25.501 -13.4951 -28.501s-28.5 -4.5 -58.5 -4.5c-25.333 0 -52 -1.66699 -80 -5s-62.333 -10.666 -103 -21.999c-28.667 -37.333 -54.5 -73.666 -77.5 -108.999s-41.833 -67.333 -56.5 -96l90.5 15.5c32.333 5.66699 60.166 8.5 83.499 8.5
c7.33301 0 13.5 -3.16699 18.5 -9.5s7.5 -13.5 7.5 -21.5c0 -16 -8.66699 -24 -26 -24c-22 0 -57.333 -4.33301 -106 -13l-107 -19c-15.333 -24.667 -35 -63.334 -59 -116.001c-28.667 -62 -48.334 -112.667 -59.001 -152l-8 -39c-6 -20.667 -19 -31 -39 -31
c-17.333 0 -26 9.33301 -26 28c0 8 1.66699 18.167 5 30.5s7.66602 26.833 12.999 43.5c9.33301 30 34.666 83 75.999 159c34 62.667 72.333 129.667 115 201l77 128c-14 0 -21 7 -21 21c0 21.333 31.167 40.333 93.5 57s122.166 25 179.499 25c26 0 46 -1.5 60 -4.5
s21 -10.5 21 -22.5z" />
    <glyph glyph-name="G" unicode="G" horiz-adv-x="425" 
d="M534 625c0 -52.667 -25.3301 -109.334 -75.9971 -170.001c-46 -55.333 -82 -83 -108 -83c-7.33301 0 -14.5 2.5 -21.5 7.5s-10.5 10.833 -10.5 17.5c46 46 86 88 120 126c37.333 41.333 56 79.666 56 114.999c0 21.333 -9 32 -27 32c-20 0 -45.333 -11 -76 -33
c-35.333 -25.333 -76.333 -64.333 -123 -117c-53.333 -60.667 -99.333 -124 -138 -190c-40.667 -69.333 -61 -122 -61 -158c0 -3.33301 0.666992 -8.33301 2 -15c4 -16 10.5 -27.5 19.5 -34.5s19.833 -10.5 32.5 -10.5c26.667 0 60 14.333 100 43
c25.333 18 50.666 39.667 75.999 65c22 19.333 38.667 29 50 29c10 0 15 -6.66699 15 -20c0 -14.667 -6 -30.667 -18 -48c-20.667 -32.667 -46.334 -78 -77.001 -136c-35.333 -65.333 -59.333 -114.333 -72 -147l-25 -86c-7.33301 -16.667 -17.333 -25 -30 -25
c-23.333 0 -35 9.66699 -35 29c0 8.66699 2 19.834 6 33.501s8.33301 27.167 13 40.5c5.33301 24 25.666 68 60.999 132c32.667 59.333 49 94 49 104c-52 -48 -96.667 -72 -134 -72c-24 0 -45 10.667 -63 32s-27 50 -27 86c0 45.333 18 101.666 54 168.999
c28 52.667 61 101.667 99 147c27.333 34.667 54 65.334 80 92.001c36 37.333 70 67 102 89c38.667 26.667 72.667 40 102 40c30 0 51.667 -7.66699 65 -23s20 -35.666 20 -60.999z" />
    <glyph glyph-name="H" unicode="H" horiz-adv-x="488" 
d="M614 685c0 -17.333 -18.667 -58.666 -56 -123.999c-32 -56 -60.667 -101.333 -86 -136c4.66699 0 11.334 0.666992 20.001 2s14.667 2 18 2c16.667 0 25 -9 25 -27c0 -16.667 -10.5 -25.834 -31.5 -27.501s-41.833 -3.16699 -62.5 -4.5l-54 -110
c-21.333 -44.667 -39.333 -85.667 -54 -123c-18 -45.333 -29.333 -80.666 -34 -105.999c-5.33301 -23.333 -14.666 -35 -27.999 -35c-8 0 -15.167 4.16699 -21.5 12.5s-9.5 19.166 -9.5 32.499c0 4 1.33301 11.333 4 22c10.667 40 29.667 89.667 57 149l69 142
c-32 -6 -71.667 -16.333 -119 -31l-101 -32c-42.667 -95.333 -66.334 -148.666 -71.001 -159.999c-16.667 -42.667 -27.334 -78.334 -32.001 -107.001c-2 -13.333 -6.5 -23.5 -13.5 -30.5s-15.167 -10.5 -24.5 -10.5c-20.667 0 -29 13.667 -25 41
c2.66699 29.333 12 64.666 28 105.999l59 138c-18.667 -11.333 -31.334 -17 -38.001 -17c-11.333 0 -17 8.33301 -17 25c0 19.333 16 34 48 44c12.667 3.33301 25.334 7 38.001 11c14 26.667 51 91.334 111 194.001c41.333 71.333 72.666 132.666 93.999 183.999
c4.66699 12.667 9.83398 21.834 15.501 27.501s11.834 8.5 18.501 8.5c6 0 11.167 -3.33301 15.5 -10s6.5 -14.334 6.5 -23.001c0 -18.667 -12.667 -52.667 -38 -102c-18 -35.333 -43.5 -81.666 -76.5 -138.999s-52.833 -93.666 -59.5 -108.999l213 55
c10.667 19.333 29 50.333 55 93c48.667 79.333 77 128.666 85 147.999s16.667 33.333 26 42s18.666 13 27.999 13c12 0 18 -9.33301 18 -28z" />
    <glyph glyph-name="I" unicode="I" horiz-adv-x="236" 
d="M389 672c0 -8 -2.5 -17.167 -7.5 -27.5s-11.5 -20.5 -19.5 -30.5c-50.667 -69.333 -101.667 -146.333 -153 -231c-62 -101.333 -105.333 -184.333 -130 -249c-8 -20 -14.333 -44.667 -19 -74s-16.667 -44 -36 -44c-18.667 0 -28 10 -28 30l4 25
c0 30.667 16 79.334 48 146.001c24 49.333 59.333 112.666 106 189.999l106 168c17.333 30.667 35.833 58 55.5 82s35.167 36 46.5 36c18 0 27 -7 27 -21z" />
    <glyph glyph-name="J" unicode="J" horiz-adv-x="449" 
d="M661 677c0 -20.667 -41.998 -30.998 -125.998 -30.998c-30.667 -88 -63 -168.333 -97 -241c-50.667 -108.667 -103 -195 -157 -259c-68.667 -81.333 -136 -122 -202 -122c-28.667 0 -50.334 10 -65.001 30s-22 46.333 -22 79c0 44 11.667 92.333 35 145
c26 58 59 104.333 99 139c18 15.333 31.333 23 40 23c6.66699 0 10 -4.66699 10 -14c0 -16.667 -8.66699 -35.334 -26 -56.001c-30.667 -36 -53.667 -73 -69 -111s-23 -72.667 -23 -104c0 -26 4.5 -46.5 13.5 -61.5s21.833 -22.5 38.5 -22.5c25.333 0 53.333 16.333 84 49
c27.333 29.333 52 65.333 74 108l113 226c49.333 100 77.333 161.333 84 184c-15.333 0 -35.333 -3.66699 -60 -11c-56 -16.667 -87.333 -25 -94 -25c-16.667 0 -26 6.66699 -28 20c-3.33301 21.333 27.5 41.166 92.5 59.499s126.167 27.5 183.5 27.5
c35.333 0 61.166 -1.66699 77.499 -5s24.5 -12.333 24.5 -27z" />
    <glyph glyph-name="K" unicode="K" horiz-adv-x="488" 
d="M622 638c0 -7.33301 -2.83105 -14.833 -8.49805 -22.5s-13.167 -13.5 -22.5 -17.5c-44.667 -14.667 -82 -29.667 -112 -45c-44 -22.667 -101.333 -60 -172 -112c-9.33301 -30 -18.5 -75.333 -27.5 -136s-13.5 -112 -13.5 -154c0 -19.333 1.33301 -34.833 4 -46.5
s7 -17.5 13 -17.5c16.667 0 43.5 23.167 80.5 69.5s58.167 69.5 63.5 69.5c6.66699 0 10 -5.66699 10 -17c0 -19.333 -18.667 -52.333 -56 -99c-42 -52.667 -80.333 -79 -115 -79c-19.333 0 -34.333 9.83301 -45 29.5s-16 48.167 -16 85.5s5.33301 85.166 16 143.499
l31 167.5l-69 -118c-36.667 -63.333 -68.334 -121 -95.001 -173c-32.667 -63.333 -49 -103 -49 -119c0 -16.667 -3.33301 -29.667 -10 -39s-14.334 -14 -23.001 -14c-14.667 0 -22 12.333 -22 37c0 36 12.667 82.667 38 140c17.333 39.333 44 90 80 152l78 118
c28.667 42.667 52 80 70 112c24 42 43 83.333 57 124c12 34 25.667 51 41 51c11.333 1.33301 17 -8 17 -28c0 -18 -16.333 -59.667 -49 -125l-48 -95l122 75c57.333 34.667 98.333 58.334 123 71.001c40.667 20.667 69 31 85 31s24 -6.33301 24 -19z" />
    <glyph glyph-name="L" unicode="L" horiz-adv-x="323" 
d="M376 660c0 -5.33301 -1.99707 -12.6699 -5.99707 -22.0029c-16 -30 -39.167 -65.333 -69.5 -106l-89.5 -118c-32.667 -44 -58.334 -82.333 -77.001 -115c-28 -49.333 -49 -87.666 -63 -114.999c-23.333 -44.667 -36.666 -77 -39.999 -97l123 32c26.667 6 47.667 9 63 9
c13.333 0 23.666 -2.83301 30.999 -8.5s11 -12.5 11 -20.5c0 -7.33301 -3.5 -13.833 -10.5 -19.5s-16.5 -8.5 -28.5 -8.5c-41.333 0 -87.833 -9.16699 -139.5 -27.5s-83.834 -27.5 -96.501 -27.5c-18 0 -27 10 -27 30c0 18.667 6 42.834 18 72.501s28.333 63.5 49 101.5
c26 52.667 71.667 126.334 137 221.001c54.667 78.667 108.667 152 162 220c9.33301 13.333 20.666 20 33.999 20c12.667 0 19 -7 19 -21z" />
    <glyph glyph-name="M" unicode="M" horiz-adv-x="598" 
d="M709 693c0 -25.333 -17.9951 -69.668 -53.9951 -133.001c-46.667 -82 -70.667 -124.333 -72 -127l-52 -109c-24.667 -53.333 -44 -99.333 -58 -138c-18.667 -51.333 -29.334 -89.666 -32.001 -114.999l1 -34c0 -16.667 -0.333008 -27 -1 -31
c-2.66699 -15.333 -10.334 -23 -23.001 -23c-4 0 -7 0.333008 -9 1c-21.333 2.66699 -32 21 -32 55c0 28.667 6.66699 65.334 20 110.001c11.333 38 23.333 69.667 36 95c24 52.667 47.333 101.334 70 146.001l60 112l59 104c-26.667 -26.667 -63 -71 -109 -133
c-37.333 -50 -76.333 -105.333 -117 -166l-89 -134c-10.667 -16 -21.5 -27.667 -32.5 -35s-21.167 -11 -30.5 -11s-16.833 3.5 -22.5 10.5s-8.5 16.167 -8.5 27.5c0 42 7 85.667 21 131c12 40 31 85.667 57 137c19.333 36.667 34.333 66 45 88
c14 28.667 22.667 46.667 26 54c-24 -19.333 -59.333 -66 -106 -140c-39.333 -62.667 -81.333 -135.334 -126 -218.001c-39.333 -73.333 -69.666 -132.666 -90.999 -177.999l-25 -52c-9.33301 -17.333 -22 -26 -38 -26c-14 0 -21 6.66699 -21 20c0 11.333 5.33301 28 16 50
l29 56c29.333 63.333 66.666 133.333 111.999 210c51.333 86.667 100.666 161 147.999 223c39.333 51.333 61.333 79.666 66 84.999c26 32 46 54.333 60 67c19.333 17.333 35.666 26 48.999 26c18 0 27 -8.33301 27 -25c0.666992 -4 -1 -13 -5 -27
c-56.667 -114.667 -100.334 -206.334 -131.001 -275.001c-33.333 -74.667 -50 -130 -50 -166l69 100l74 106l69 101c52 76 95.333 131 130 165c29.333 28.667 52.333 43 69 43c7.33301 0 12.833 -2.5 16.5 -7.5s5.5 -11.5 5.5 -19.5z" />
    <glyph glyph-name="N" unicode="N" horiz-adv-x="528" 
d="M667 703c0 -9.33301 -13.333 -37.3301 -40 -83.9971l-85 -144c-37.333 -63.333 -63 -108.666 -77 -135.999c-16 -30 -33 -67.333 -51 -112l-68 -172c-8.66699 -17.333 -18.834 -31.5 -30.501 -42.5s-22.834 -16.5 -33.501 -16.5c-8.66699 0 -15.834 4.66699 -21.501 14
s-8.5 24.333 -8.5 45c0 76 7.5 157.167 22.5 243.5s31.167 173.166 48.5 260.499c-57.333 -88.667 -107.666 -172 -150.999 -250c-45.333 -82 -79 -151 -101 -207l-24 -65c-14.667 -35.333 -30.334 -53 -47.001 -53c-12 2 -18 10.333 -18 25c0 23.333 13.667 64 41 122
l32 66c36.667 73.333 85.334 158.666 146.001 255.999c63.333 101.333 111.666 170.666 144.999 207.999c18 20.667 33.333 31 46 31c14 0 21 -7.33301 21 -22c0 -6 -1.33301 -11.333 -4 -16c-27.333 -58.667 -50.666 -152 -69.999 -280c-16 -106.667 -24 -192 -24 -256
c6.66699 15.333 22.334 49.333 47.001 102c20.667 43.333 36.334 77.666 47.001 102.999l54 112c18.667 38 39.5 78 62.5 120s45.167 80.5 66.5 115.5s41 52.5 59 52.5c10.667 0.666992 16 -6 16 -20z" />
    <glyph glyph-name="O" unicode="O" 
d="M544 550c0 -67.333 -28.334 -147 -85.001 -239c-51.333 -83.333 -113.5 -157.333 -186.5 -222s-132.167 -97 -177.5 -97c-26.667 0 -48 9.83301 -64 29.5s-24 51.167 -24 94.5c0 74.667 37.333 167.334 112 278.001c68 100.667 141.333 182 220 244
c-12.667 0 -27.667 -4 -45 -12c-41.333 -18.667 -63.666 -28 -66.999 -28c-4.66699 0 -8.66699 1.66699 -12 5s-5 7.66602 -5 12.999c0 18 20 35.667 60 53s81.667 26 125 26c48 0 84.833 -12.5 110.5 -37.5s38.5 -60.833 38.5 -107.5zM482.999 557
c0 25.333 -5.00098 44.999 -15.001 58.999c-12.667 18 -33.667 27 -63 27c-9.33301 0 -16.833 -0.666992 -22.5 -2l-12.5 -3c7.33301 -1.33301 10.333 -4.66602 9 -9.99902c0 -10 -13.667 -29.333 -41 -58l-70 -74c-56 -61.333 -102.333 -128.5 -139 -201.5
s-55 -132.167 -55 -177.5c0 -41.333 14.667 -62 44 -62c26.667 0 69.334 28.667 128.001 86c61.333 60 114.333 126.333 159 199c52 84.667 78 157 78 217z" />
    <glyph glyph-name="P" unicode="P" horiz-adv-x="465" 
d="M575 575c0 -80 -38.332 -150.668 -114.999 -212.001c-72 -57.333 -149 -86 -231 -86c-19.333 0 -38 2 -56 6l-102 -252c-7.33301 -28 -19.333 -42 -36 -42c-14.667 0 -22 11.667 -22 35l3 23c6.66699 27.333 22 67.333 46 120l64 132c-12 12 -18 25.333 -18 40
c0 14 7.66699 21 23 21c6 0 14.667 -2 26 -6l47 93c23.333 46.667 39.333 81.334 48 104.001c-15.333 -6.66699 -26.833 -11.5 -34.5 -14.5s-13.834 -4.5 -18.501 -4.5c-6 0 -11.333 2.66699 -16 8s-7 11.333 -7 18c0 12.667 12 27 36 43c18.667 12.667 42.334 25 71.001 37
c2 16 7.16699 28.5 15.5 37.5s17.166 13.5 26.499 13.5c14.667 0 22 -7.66699 22 -23l-1 -5c40 17.333 76 26 108 26c36.667 0 66 -10 88 -30s33 -47.333 33 -82zM535.001 566.999c-4 42 -31.998 62.999 -83.998 62.999c-32.667 0 -72.667 -8 -120 -24l-49 -107
c-36.667 -81.333 -62.334 -134.666 -77.001 -159.999c13.333 -2 26.666 -3 39.999 -3c70 0 137.667 31 203 93c58 55.333 87 101.333 87 138z" />
    <glyph glyph-name="Q" unicode="Q" 
d="M544 558c0 -38 -10.332 -82.666 -30.999 -133.999c-16 -38.667 -37.333 -80.334 -64 -125.001c-30 -47.333 -59.333 -88.333 -88 -123c-30.667 -37.333 -64.334 -72.333 -101.001 -105c9.33301 -50.667 25.5 -94 48.5 -130s47.5 -54 73.5 -54
c9.33301 0 22.333 5.5 39 16.5s28.334 16.5 35.001 16.5c14.667 0 21.334 -5.66699 20.001 -17c0 -15.333 -13.333 -30.833 -40 -46.5s-50.667 -23.5 -72 -23.5c-37.333 0 -69.833 18.667 -97.5 56s-45.5 84.666 -53.5 141.999c-26 -16.667 -48.833 -28.667 -68.5 -36
s-37.5 -11 -53.5 -11c-29.333 0 -50.5 12 -63.5 36s-19.5 56.667 -19.5 98c0 72.667 37.333 163.334 112 272.001c63.333 92 136.333 174.667 219 248c-2 -0.666992 -23.333 -10 -64 -28c-22.667 -10 -38.334 -15 -47.001 -15c-10.667 0 -16 6.33301 -16 19
c0 18 23.167 35.833 69.5 53.5s91.166 26.5 134.499 26.5c46.667 0 80.667 -14.333 102 -43c17.333 -23.333 26 -54.333 26 -93zM482.001 551.001c0 28.667 -7.33398 51.333 -22.001 68c-16.667 18.667 -42 28 -76 28l-14 -1c6.66699 -8.66699 9.66699 -16.334 9 -23.001
c0 -10.667 -11.667 -25.667 -35 -45c-17.333 -14.667 -29.666 -26.334 -36.999 -35.001l-87 -110c-31.333 -41.333 -56.666 -78.666 -75.999 -111.999c-23.333 -40 -40 -78.667 -50 -116c28 10 50.333 15 67 15c16 0 30.333 -5.33301 43 -16s26 -34 40 -70
c20 10 47.333 38 82 84c17.333 22.667 45 63 83 121c19.333 30.667 35.666 64.334 48.999 101.001c16 43.333 24 80.333 24 111zM197 94c-19.333 51.333 -41.001 77 -65.001 77c-8.66699 0 -17.167 -2.16699 -25.5 -6.5s-20.166 -11.833 -35.499 -22.5
c0 -60 15.333 -90 46 -90c21.333 0 48 14 80 42z" />
    <glyph glyph-name="R" unicode="R" horiz-adv-x="465" 
d="M575 573c0 -66.667 -34.0039 -125.666 -102.004 -176.999s-145 -77 -231 -77h-33c-9.33301 2 -16 3.33301 -20 4c14.667 -38 35 -85.333 61 -142c30.667 -66 55 -113.333 73 -142c4.66699 -8.66699 7 -17 7 -25c0 -8.66699 -2.16699 -15.5 -6.5 -20.5
s-9.83301 -7.5 -16.5 -7.5c-11.333 0 -21.666 7.33301 -30.999 22c-18.667 30 -41.167 75 -67.5 135l-51.5 117l-54 -116c-26 -56.667 -42 -94.334 -48 -113.001c-9.33301 -24 -21.666 -36 -36.999 -36c-7.33301 0 -13.666 3 -18.999 9s-8 12.667 -8 20
c0 18 13.5 56.167 40.5 114.5s58.5 117.166 94.5 176.499l-4.5 26c-1 6 -1.5 11.333 -1.5 16c0 10 3.16699 17.333 9.5 22s18.166 7 35.499 7l67 113c22.667 39.333 37.334 67.333 44.001 84c-4 -2 -12.333 -6.66699 -25 -14c-8 -4.66699 -13.667 -7 -17 -7
c-2.66699 0 -5.66699 2.33301 -9 7s-5 9.33398 -5 14.001c0 16 29 42 87 78c0 11.333 3.5 20.833 10.5 28.5s15.167 11.5 24.5 11.5c13.333 0 20 -8 20 -24c35.333 13.333 68.333 20 99 20c38.667 0 68.334 -14.667 89.001 -44c16.667 -23.333 25 -50 25 -80z
M526.996 575.001c0 20.667 -6.66699 37.167 -20 49.5s-32.333 18.5 -57 18.5c-29.333 0 -66.333 -12.333 -111 -37c0 -9.33301 -13.333 -39 -40 -89l-79 -147c79.333 0 150.333 22 213 66s94 90.333 94 139z" />
    <glyph glyph-name="S" unicode="S" horiz-adv-x="417" 
d="M549 635c0 -44 -31.001 -92.668 -93.001 -146.001c-56 -48 -97.667 -72 -125 -72c-30.667 0 -45.334 7 -44.001 21c0 14 14.667 25.333 44 34c41.333 10 79.666 33 114.999 69c32.667 33.333 49 62.666 49 87.999c0 18 -10.667 27 -32 27c-37.333 0 -83.333 -20 -138 -60
c-65.333 -47.333 -98 -99.333 -98 -156c0 -21.333 26 -76.333 78 -165c24 -40.667 36 -79.334 36 -116.001c0 -45.333 -27 -82 -81 -110c-42.667 -22 -84.667 -33 -126 -33c-46 0 -81.667 11.667 -107 35c-22 20.667 -33 46.334 -33 77.001c0 27.333 10.667 52.333 32 75
s43.666 34 66.999 34c10 0 17.833 -1.66699 23.5 -5s8.83398 -7.66602 9.50098 -12.999c0 -12 -10.667 -22 -32 -30c-14.667 -5.33301 -25.5 -12.5 -32.5 -21.5s-10.5 -19.5 -10.5 -31.5c0 -17.333 7.33301 -33 22 -47s33.334 -21 56.001 -21c4 -0.666992 10 -1 18 -1
c36.667 0 68.334 10.833 95.001 32.5s40 44.834 40 69.501c0 36 -25.667 87.333 -77 154c-24.667 33.333 -37 70.333 -37 111c0 60.667 28.333 119.667 85 177c62 62.667 133.667 94 215 94c22.667 0 41.834 -6.66699 57.501 -20s23.5 -30 23.5 -50z" />
    <glyph glyph-name="T" unicode="T" 
d="M731 690c0 -22.667 -44 -36.333 -132 -41c-35.333 -2 -88 -3 -158 -3c1.33301 -2 2 -6 2 -12c0 -11.333 -8 -28.666 -24 -51.999c-24 -35.333 -37.667 -56 -41 -62l-84 -153c-38.667 -70.667 -68.334 -128 -89.001 -172c-30.667 -64.667 -51.667 -119.334 -63 -164.001
c-3.33301 -15.333 -8.16602 -26.5 -14.499 -33.5s-13.5 -10.5 -21.5 -10.5s-15 4.66699 -21 14s-9 20.666 -9 33.999c0 32 21 89.333 63 172c21.333 42.667 65 120 131 232c56.667 96.667 92.667 160.334 108 191.001c-38 -4 -74 -10.333 -108 -19l-101 -26
c-20 0 -30 8 -30 24c0 12 11 22.833 33 32.5s46 16.167 72 19.5c76 21.333 160 36.666 252 45.999c64 6.66699 124.333 10 181 10c18 0 31.5 -2.66699 40.5 -8s13.5 -11.666 13.5 -18.999z" />
    <glyph glyph-name="U" unicode="U" horiz-adv-x="551" 
d="M661 656c0 -12.667 -5.00391 -24.001 -15.0039 -34.001c-41.333 -45.333 -95.166 -139.166 -161.499 -281.499s-99.5 -236.5 -99.5 -282.5c0 -5.33301 0.333008 -9 1 -11l2 -17c0 -20.667 -8.33301 -31 -25 -31c-10 0 -19.167 4.83301 -27.5 14.5s-12.5 23.5 -12.5 41.5
c0 25.333 8 60.333 24 105c12 32.667 31.333 78 58 136c13.333 29.333 35.666 75 66.999 137l-186 -241c-55.333 -71.333 -95.666 -119.666 -120.999 -144.999c-35.333 -35.333 -67.666 -53 -96.999 -53c-18 0 -32.5 7.5 -43.5 22.5s-16.5 35.833 -16.5 62.5
c0 55.333 23.333 129 70 221c38 74 86.667 152 146 234c52.667 72 93.334 119.667 122.001 143c19.333 14.667 34.333 22 45 22c4 0 7.83301 -1.5 11.5 -4.5s5.16699 -8.5 4.5 -16.5c0 -12.667 -4.33301 -23.334 -13 -32.001c-32.667 -32.667 -74 -84.334 -124 -155.001
c-54 -76 -99.333 -149 -136 -219c-43.333 -82 -65 -142.333 -65 -181c0 -18.667 6 -28 18 -28c20.667 0 65 41.333 133 124l199 256c84.667 110.667 144.334 183.334 179.001 218.001c14 14 27 21 39 21c16 0 24 -8.66699 24 -26z" />
    <glyph glyph-name="V" unicode="V" horiz-adv-x="441" 
d="M604 670c0 -5.33301 -1.00098 -11.666 -3.00098 -18.999s-8 -17 -18 -29c-28.667 -36 -71.834 -96 -129.501 -180l-162.5 -246c-56 -88.667 -92.667 -151.334 -110 -188.001c-7.33301 -16.667 -15.166 -28.834 -23.499 -36.501s-17.5 -11.5 -27.5 -11.5
c-34 0 -51 32.333 -51 97c0 76.667 8.66699 154.334 26 233.001c13.333 62 33.333 129.667 60 203l63 161c4 14 11.333 25.167 22 33.5s21.334 12.5 32.001 12.5c14 0 21 -6.66699 21 -20c0 -6.66699 -1.33301 -13 -4 -19c-27.333 -62 -49.666 -116.667 -66.999 -164
c-28 -76 -50.333 -149 -67 -219c-20.667 -88 -31 -167.667 -31 -239l107 180c55.333 92 105 171.333 149 238c57.333 87.333 105.666 153 144.999 197c20.667 23.333 38.667 35 54 35c10 0 15 -6.33301 15 -19z" />
    <glyph glyph-name="W" unicode="W" horiz-adv-x="591" 
d="M742 705c0 -6.66699 -3.33203 -13.3311 -9.99902 -19.998c-38.667 -46 -83.334 -111.667 -134.001 -197c-38 -64.667 -81.333 -144.334 -130 -239.001c-40.667 -79.333 -73.334 -146.666 -98.001 -201.999c-20.667 -45.333 -45.667 -68 -75 -68
c-15.333 0 -27.666 7.5 -36.999 22.5s-14 38.167 -14 69.5c0 23.333 6 64.333 18 123l14 66c-20 -24.667 -60.333 -90 -121 -196c-39.333 -69.333 -74 -104 -104 -104c-18.667 0 -28 15.667 -28 47c0 22.667 4.66699 56 14 100l18 82c28.667 101.333 67 209.666 115 324.999
c51.333 124 86 186 104 186c16.667 0 25 -10.333 25 -31c-2 -24.667 -18.333 -70.334 -49 -137.001c-49.333 -108 -80 -177.667 -92 -209c-36 -94 -59.667 -180.667 -71 -260c16 16 38.667 48 68 96l84 141c36 60.667 64 105 84 133c5.33301 9.33301 11.833 16.5 19.5 21.5
s15.5 7.5 23.5 7.5c14 0 21 -7 21 -21l-1 -8c-23.333 -60 -41.666 -118.667 -54.999 -176s-20 -106 -20 -146c0 -16.667 1.33301 -30 4 -40c20.667 28.667 53.667 88 99 178c62 123.333 104.333 205.333 127 246c52 94 97.333 162.667 136 206
c11.333 14 24.666 21 39.999 21c16.667 0 25 -5.66699 25 -17z" />
    <glyph glyph-name="X" unicode="X" horiz-adv-x="457" 
d="M602 686c0 -16.667 -6.33008 -29.999 -18.9971 -39.999l-88 -74l-100 -90l-104 -96c0 -45.333 6.16699 -107.666 18.5 -186.999l38.5 -236c0 -17.333 -10 -26 -30 -26c-16.667 0 -28.334 8 -35.001 24c-8.66699 27.333 -18.667 81.666 -30 162.999s-17 150.333 -17 207
c-26 -26 -71 -76 -135 -150c-60 -69.333 -101.667 -119.333 -125 -150c-20 -27.333 -37.667 -41 -53 -41c-8.66699 0 -13 5.66699 -13 17c0 20 25.333 60.667 76 122c29.333 35.333 78 90.333 146 165c57.333 62.667 89.333 101 96 115c0 67.333 -2.33301 124.333 -7 171
s-12.667 81.667 -24 105c-3.33301 6 -5 12.333 -5 19c0 8.66699 3.16699 15.5 9.5 20.5s13.833 7.5 22.5 7.5c15.333 0 24.666 -7.66699 27.999 -23c8 -26.667 15 -58.334 21 -95.001c8.66699 -73.333 14.667 -123 18 -149l119 115c57.333 54.667 107 95 149 121
c9.33301 6 16.666 9 21.999 9c14 0 21 -8 21 -24z" />
    <glyph glyph-name="Y" unicode="Y" horiz-adv-x="433" 
d="M607 684c0 -12.667 -5.33398 -25.3359 -16.001 -38.0029c-68.667 -80 -143.334 -189.667 -224.001 -329s-134.667 -250.333 -162 -333c-6 -19.333 -17.333 -29 -34 -29c-8 0 -14.5 2.5 -19.5 7.5s-7.5 13.167 -7.5 24.5c0 26.667 20.333 80.334 61 161.001
s85.334 157.334 134.001 230.001l-106 -105c-42.667 -36.667 -81.667 -55 -117 -55c-14.667 0 -26.334 5 -35.001 15s-13 26 -13 48c0 70.667 37.667 157.167 113 259.5s135.333 153.5 180 153.5c19.333 0 29 -8 29 -24c0 -13.333 -12 -26.666 -36 -39.999
c-45.333 -28.667 -87.666 -69.667 -126.999 -123c-32.667 -44 -58.5 -87.833 -77.5 -131.5s-26.833 -71.834 -23.5 -84.501c2.66699 -6.66699 7.66699 -10 15 -10c30.667 0 93.334 50.667 188.001 152c84.667 90.667 156 177.334 214 260.001c10 16.667 21.333 25 34 25
c20 0 30 -11.333 30 -34z" />
    <glyph glyph-name="Z" unicode="Z" horiz-adv-x="409" 
d="M591 694c0 -7.33301 -2.66895 -15.001 -8.00195 -23.001s-10.666 -13.667 -15.999 -17c-112.667 -90.667 -225 -195 -337 -313c-102 -108 -178.667 -200.667 -230 -278c33.333 0 87.333 13.667 162 41s120.667 41 138 41c11.333 0 20.333 -2.66699 27 -8
s10 -11.666 10 -18.999c0 -8.66699 -4.33301 -16 -13 -22s-22.334 -9 -41.001 -9l-281 -81c-16 0 -29 4.33301 -39 13s-15 19.667 -15 33c0 33.333 32.667 90.333 98 171c56.667 70 129.334 148.333 218.001 235c80 78 154.667 145.667 224 203l-212 -23
c-17.333 0 -35.166 4.33301 -53.499 13s-27.5 17.667 -27.5 27c0 6 2.5 11.167 7.5 15.5s10.833 6.5 17.5 6.5c2.66699 0 11 -2 25 -6s28 -6 42 -6c26.667 0 71.667 5.66699 135 17s103 17 119 17c18 0 30.833 -2.5 38.5 -7.5s11.5 -11.833 11.5 -20.5z" />
    <glyph glyph-name="bracketleft" unicode="[" horiz-adv-x="402" 
d="M573 725c0 -24 -30.668 -40.6689 -92.001 -50.002c-26.667 -4 -50.667 -6 -72 -6c-11.333 -31.333 -40.666 -101.666 -87.999 -210.999s-84.333 -199.666 -111 -270.999c-38.667 -105.333 -61.334 -186 -68.001 -242c36 30.667 69 46 99 46c18 0 27 -7.33301 27 -22
c0 -12 -7 -21 -21 -27c-48.667 -21.333 -83.667 -44 -105 -68c-11.333 -11.333 -22.333 -17 -33 -17c-20.667 0 -31 19.333 -31 58c0 34.667 17 103.834 51 207.501s73.333 209.167 118 316.5c48.667 116.667 92.334 206.667 131.001 270c9.33301 14 21.333 21 36 21
c4.66699 0 13.5 -0.666992 26.5 -2s21.5 -2 25.5 -2c7.33301 0 20 3.66699 38 11s31.667 11 41 11c6 0 11 -1 15 -3c8.66699 -4.66699 13 -11.334 13 -20.001z" />
    <glyph glyph-name="backslash" unicode="\" horiz-adv-x="404" 
d="M325 20c0 -18 -9.99805 -27.001 -29.998 -27.001c-17.333 0 -26 6 -26 18l-48 664c0 3.33301 3.16699 6.33301 9.5 9s13.166 4 20.499 4c5.33301 0 10.666 -2 15.999 -6s8 -8.66699 8 -14c4 -55.333 8.33301 -110.666 13 -165.999l25 -317.5
c8.66699 -107.667 12.667 -162.5 12 -164.5z" />
    <glyph glyph-name="bracketright" unicode="]" horiz-adv-x="402" 
d="M398 707c0 -34.667 -16.999 -103.832 -50.999 -207.499s-73.333 -209.167 -118 -316.5c-48.667 -116.667 -92.334 -206.667 -131.001 -270c-9.33301 -14 -21.333 -21 -36 -21c-4.66699 0 -13.5 0.666992 -26.5 2s-21.5 2 -25.5 2c-7.33301 0 -20 -3.66699 -38 -11
s-31.667 -11 -41 -11c-6 0 -11 1 -15 3c-8.66699 4.66699 -13 11.334 -13 20.001c0 24 30.667 40.667 92 50c26.667 4 50.667 6 72 6c11.333 31.333 40.666 101.666 87.999 210.999s84.333 199.666 111 270.999c38.667 105.333 61.334 186 68.001 242
c-36 -30.667 -69 -46 -99 -46c-18 0 -27 7.33301 -27 22c0 12 7 21 21 27c48.667 21.333 83.667 44 105 68c11.333 11.333 22.333 17 33 17c20.667 0 31 -19.333 31 -58z" />
    <glyph glyph-name="asciicircum" unicode="^" horiz-adv-x="500" 
d="M568 456c0 -10.667 -3.33301 -18.5 -10 -23.5s-13 -7.16699 -19 -6.5c-12.667 0 -34 34.167 -64 102.5s-45.667 102.5 -47 102.5c-4 0 -24.167 -16.833 -60.5 -50.5l-106.5 -99.5c-39.333 -35.333 -63 -53 -71 -53c-4 0 -8.33301 1.33301 -13 4s-7 5.66699 -7 9
c0 18 41.333 63.667 124 137s131.667 110 147 110c12 0 36.167 -35.5 72.5 -106.5s54.5 -112.833 54.5 -125.5z" />
    <glyph glyph-name="underscore" unicode="_" horiz-adv-x="492" 
d="M496 -126h-496v63h496v-63z" />
    <glyph glyph-name="grave" unicode="`" horiz-adv-x="260" 
d="M251 421c0 -9.33301 -5.66504 -14.002 -16.998 -14.002c-12.667 0 -29.667 14.667 -51 44c-16.667 22.667 -30.334 40.334 -41.001 53.001c-7.33301 6.66699 -11 14 -11 22s2.66699 13.833 8 17.5s10.333 5.5 15 5.5c7.33301 0 13.666 -4.66699 18.999 -14
c0.666992 -1.33301 20 -26.666 58 -75.999c13.333 -17.333 20 -30 20 -38z" />
    <glyph glyph-name="a" unicode="a" horiz-adv-x="276" 
d="M259 329c0 -10 -2.33398 -19.998 -7.00098 -29.998c4 -2.66699 6 -7.33398 6 -14.001c0 -13.333 -10.333 -42.333 -31 -87s-31 -74.667 -31 -90c0 -22 8 -37 24 -45s24 -18.667 24 -32c0 -6 -2.66699 -10.667 -8 -14s-12.333 -5 -21 -5c-16 0 -30 5.66699 -42 17
c-14.667 14 -22 32.667 -22 56c0 4 0.833008 9.66699 2.5 17s2.83398 12.666 3.50098 15.999c-33.333 -56 -67.333 -84 -102 -84c-30.667 0 -48 21.333 -52 64c0 51.333 21.667 108.333 65 171c46.667 67.333 93 101 139 101c16 0 28.667 -3.5 38 -10.5s14 -17.167 14 -30.5
zM219.999 291.002c-4.66699 17.333 -13.6689 26 -27.002 26c-23.333 0 -51.666 -25.167 -84.999 -75.5s-50 -90.833 -50 -121.5c0 -13.333 4.33301 -22 13 -26c14.667 -4.66699 34.334 12.333 59.001 51z" />
    <glyph glyph-name="b" unicode="b" horiz-adv-x="291" 
d="M342 635c0 -12 -33.666 -73.998 -100.999 -185.998l-76 -126c10 8 22 15.333 36 22s26.667 10 38 10c14 0 25 -4 33 -12s12 -21 12 -39c0 -52 -23 -109.667 -69 -173s-87.333 -95 -124 -95c-20.667 0 -38 9 -52 27c-2.66699 -10 -8.33398 -19 -17.001 -27
s-17 -12 -25 -12c-8.66699 1.33301 -13 8.66602 -13 21.999c2.66699 18.667 18.667 56.667 48 114l104 194c46 88 84.667 167 116 237c10.667 23.333 22 40.5 34 51.5s23 16.5 33 16.5c7.33301 0 13 -2.33301 17 -7s6 -10.334 6 -17.001zM231.001 273.002
c0 21.333 -7.00098 32.001 -21.001 32.001s-32.667 -13 -56 -39c-13.333 -15.333 -30.666 -38.333 -51.999 -69l-47 -95c10 -12 20.333 -18 31 -18c23.333 0 53.333 23.167 90 69.5s55 86.166 55 119.499z" />
    <glyph glyph-name="c" unicode="c" horiz-adv-x="291" 
d="M263 196c0 -25.333 -22 -58.3369 -66 -99.0039c-47.333 -44 -89.333 -66 -126 -66c-24 0 -41 5.83301 -51 17.5s-15 28.834 -15 51.501c0 60.667 26 122.334 78 185.001c48.667 58.667 91.667 88 129 88c21.333 0 32 -16.667 32 -50
c0 -23.333 -8.16699 -46.666 -24.5 -69.999s-31.5 -35 -45.5 -35c-10.667 0 -16 5 -16 15c0 5.33301 9.66699 20.333 29 45c9.33301 12 14 21 14 27c0 8.66699 -3 13 -9 13c-16.667 0 -43.667 -25.333 -81 -76c-39.333 -53.333 -59 -94.666 -59 -123.999
c0 -26 10.333 -39 31 -39c18 0 39 9 63 27c26.667 20 51.334 47.667 74.001 83c7.33301 14 16.666 21 27.999 21c8.66699 0 13.667 -4.66699 15 -14z" />
    <glyph glyph-name="d" unicode="d" horiz-adv-x="276" 
d="M437 631c0 -9.33301 -4.83496 -21.501 -14.502 -36.501l-28.5 -43.5c-27.333 -44.667 -51 -85.334 -71 -122.001c-32 -58.667 -57.667 -112 -77 -160c-24.667 -61.333 -37 -109 -37 -143c0 -24.667 6.33301 -43 19 -55c9.33301 -9.33301 14 -17.666 14 -24.999
c0 -11.333 -8 -17 -24 -17c-17.333 0 -32.166 8.5 -44.499 25.5s-18.5 36.5 -18.5 58.5l2 21c-12.667 -32.667 -29 -58 -49 -76c-17.333 -16 -34.666 -24 -51.999 -24c-18 0 -32.5 7.83301 -43.5 23.5s-16.5 34.834 -16.5 57.501c0 52 18.333 104.667 55 158
c40.667 58.667 85 88 133 88c16.667 0 28.667 -5 36 -15l103 189l47 87c15.333 24.667 29 37 41 37c17.333 0 26 -9.33301 26 -28zM204.998 306.999l-26.999 3.99902c-30.667 0 -60.334 -20.667 -89.001 -62s-43 -80.666 -43 -117.999c0 -9.33301 1.16699 -16.5 3.5 -21.5
s6.83301 -7.5 13.5 -7.5c23.333 0 55 37.333 95 112z" />
    <glyph glyph-name="e" unicode="e" horiz-adv-x="291" 
d="M286 194c0 -23.333 -24.332 -54.668 -72.999 -94.001c-52 -42 -98.667 -63 -140 -63c-20.667 0 -38.834 7.83301 -54.501 23.5s-23.5 34.834 -23.5 57.501c0 28.667 8.66699 60 26 94c14.667 29.333 31.334 53 50.001 71c26.667 28 50 47.833 70 59.5
s36.667 17.5 50 17.5c12.667 0 23 -4 31 -12s12 -17.667 12 -29c0 -21.333 -11.333 -47 -34 -77c-16.667 -22.667 -36 -43 -58 -61c-10 -10 -24.333 -19.667 -43 -29c-13.333 -6.66699 -28 -12.667 -44 -18c0 -16 3.5 -27.833 10.5 -35.5s16.833 -11.5 29.5 -11.5
c20.667 0 46.167 10 76.5 30s57.166 44 80.499 72c10.667 12.667 18.667 19 24 19c6.66699 0 10 -4.66699 10 -14zM184.001 290.998c0 8 -4.00098 12.668 -12.001 14.001c-10.667 0 -23.334 -7.33301 -38.001 -22c-11.333 -10.667 -24.166 -25.5 -38.499 -44.5
s-25.166 -35.5 -32.499 -49.5c22 0 47.667 12.667 77 38s44 46.666 44 63.999z" />
    <glyph glyph-name="f" unicode="f" horiz-adv-x="268" 
d="M388 671c0 -10 -6.00098 -20.998 -18.001 -32.998c-29.333 -29.333 -64 -74.333 -104 -135s-73.667 -118 -101 -172c17.333 8 33.666 14.667 48.999 20c24 8 45 12 63 12c15.333 0 28.5 -3.66699 39.5 -11s17.167 -16.333 18.5 -27c0 -6 -4.16699 -12 -12.5 -18
s-16.166 -9 -23.499 -9c-2.66699 0 -11 3.66699 -25 11c-7.33301 4 -15 6 -23 6c-12.667 0 -33 -4.5 -61 -13.5s-49.333 -20.167 -64 -33.5c24 -8 41.667 -25.667 53 -53c9.33301 -22.667 14 -49.334 14 -80.001c0 -131.333 -26.667 -233 -80 -305
c-40.667 -54.667 -83 -82 -127 -82c-16 0 -29.833 8.16699 -41.5 24.5s-17.5 36.833 -17.5 61.5c0 20.667 2.33301 42.167 7 64.5s11 45.833 19 70.5c14.667 44.667 38.334 104 71.001 178c13.333 30 21 49.333 23 58c-2.66699 -0.666992 -6 -1 -10 -1
c-10.667 0 -16 3.66699 -16 11c0 8.66699 6.66699 20.667 20 36s31 31.333 53 48l69 127c25.333 45.333 51.5 89.166 78.5 131.499s51.5 76.833 73.5 103.5c8 10 16.667 17.5 26 22.5s18 7.5 26 7.5c14 0 21 -6.66699 21 -20zM147.999 127.002c0 24.667 -3 45.334 -9 62.001
s-15.667 27 -29 31c-19.333 -39.333 -46.5 -105 -81.5 -197s-52.5 -147 -52.5 -165c0 -14.667 2.66699 -25.834 8 -33.501s11.333 -11.5 18 -11.5c27.333 0 57.333 30 90 90c37.333 68 56 142.667 56 224z" />
    <glyph glyph-name="g" unicode="g" horiz-adv-x="323" 
d="M341 238c0 -23.333 -17.666 -57.002 -52.999 -101.002c-41.333 -51.333 -90 -91.666 -146 -120.999c-22.667 -49.333 -43.667 -91 -63 -125c-28 -49.333 -53.667 -86 -77 -110c-30 -30.667 -59.667 -46 -89 -46c-32.667 0 -49 21 -49 63c0 34 21 72.667 63 116
s97.667 82.333 167 117c10.667 16 18 28 22 36c6.66699 13.333 10 25 10 35c-14.667 -16 -29 -27.833 -43 -35.5s-27.333 -11.5 -40 -11.5c-26.667 0 -40 16 -40 48c0 42 25.667 98 77 168c54.667 74 104 111 148 111c16 0 28.667 -5 38 -15s14 -22.333 14 -37
c0 -10 -1.5 -19.167 -4.5 -27.5s-8.16699 -17.166 -15.5 -26.499c11.333 0 16.333 -3 15 -9l-58 -93c-20 -32.667 -32 -61.667 -36 -87c33.333 25.333 62.666 54 87.999 86l62 79c6.66699 0 10 -4.66699 10 -14zM223.001 308.998c0 10.667 -5.33105 16 -15.998 16
c-18.667 0 -48.334 -25 -89.001 -75c-43.333 -53.333 -65 -95.333 -65 -126c0 -15.333 6 -23 18 -23s25.667 7.33301 41 22c18 16.667 38.333 44 61 82c-11.333 2 -17 4.66699 -17 8l34.5 39.5c12.333 14.333 22.166 29.833 29.499 46.5zM71.0029 -31.002
c-23.333 0 -55.5 -20.168 -96.5 -60.501s-61.5 -72.166 -61.5 -95.499c0 -5.33301 2.33301 -10 7 -14s10 -6 16 -6c18 0 40.333 21 67 63z" />
    <glyph glyph-name="h" unicode="h" horiz-adv-x="331" 
d="M331 229c0 -27.333 -17.667 -63.333 -53 -108c-39.333 -49.333 -77 -74 -113 -74c-12 0 -20.833 4.16699 -26.5 12.5s-8.5 19.5 -8.5 33.5c0 23.333 7.66699 52 23 86s35.333 68.667 60 104c-76.667 -60 -132 -132 -166 -216c-12 -28.667 -25 -43 -39 -43
c-14.667 0 -22 9 -22 27c0 15.333 11.333 48.666 34 99.999c18.667 41.333 37 78.666 55 111.999c48.667 88 100.334 193 155.001 315c25.333 56.667 48 85 68 85c18 0 27 -9 27 -27c0 -12 -14.5 -43 -43.5 -93l-87.5 -150c-35.333 -61.333 -58 -105.666 -68 -132.999
c31.333 31.333 61 55.333 89 72c23.333 14 42.333 21 57 21c16 0 24 -6.66699 24 -20c0 -4 -1.66699 -10 -5 -18l-67 -106c-26.667 -43.333 -40 -71.666 -40 -84.999c0 -9.33301 4.33301 -14 13 -14c14 0 27 6.33301 39 19c1.33301 1.33301 19.666 29.333 54.999 84
c12 16.667 22.667 25 32 25c5.33301 0 8 -3 8 -9z" />
    <glyph glyph-name="i" unicode="i" horiz-adv-x="142" 
d="M266 526c0 -16 -8.16699 -32.499 -24.5 -49.499s-30.5 -25.5 -42.5 -25.5c-14 0 -21 8.33301 -21 25c0 15.333 8 31.666 24 48.999s30 26 42 26c14.667 0 22 -8.33301 22 -25zM163 338.001c0 -10 -4.33301 -20.334 -13 -31.001c-18 -21.333 -41.333 -62.166 -70 -122.499
s-45 -101.833 -49 -124.5s-13 -33.334 -27 -32.001c-5.33301 0 -10 3.66699 -14 11s-6 15.333 -6 24c0 33.333 15.333 79.333 46 138c26 50 55.333 96 88 138c3.33301 4 7.5 8 12.5 12s10.5 6 16.5 6c10.667 -1.33301 16 -7.66602 16 -18.999z" />
    <glyph glyph-name="j" unicode="j" horiz-adv-x="236" 
d="M290 520c0 -16.667 -7.99902 -33.667 -23.999 -51s-30 -26 -42 -26c-15.333 0 -23 8.66699 -23 26c1.33301 14 10.166 29.833 26.499 47.5s29.833 26.5 40.5 26.5c14.667 0 22 -7.66699 22 -23zM220.001 207c0 -4 -2.33301 -10.001 -7 -18.001
c-13.333 -26.667 -36 -55.334 -68 -86.001c-37.333 -36.667 -77.666 -65.667 -120.999 -87c-28 -64 -46.333 -104.667 -55 -122c-24 -48 -48.333 -85.333 -73 -112c-30.667 -33.333 -61.667 -50 -93 -50c-41.333 0 -62 16.667 -62 50c0 20.667 7 44.334 21 71.001
s33 52 57 76c16.667 16.667 41.167 34.334 73.5 53.001l99.5 57l77 173c25.333 58 47 100.333 65 127c8 10.667 18 16 30 16c16 0 24 -6.66699 24 -20c0 -6 -2.33301 -12.667 -7 -20l-50 -84c-22 -39.333 -44.667 -87.333 -68 -144c26.667 18.667 49 38 67 58
c15.333 16.667 29.666 36.667 42.999 60c6 12.667 15.333 19 28 19s19 -5.66699 19 -17zM-46.999 -24.001c-37.333 -14.667 -74.333 -43 -111 -85c-34 -39.333 -51 -70.333 -51 -93c0 -12 6.66699 -18 20 -18c21.333 0 50.333 27.167 87 81.5s55 92.5 55 114.5z" />
    <glyph glyph-name="k" unicode="k" horiz-adv-x="378" 
d="M441 645c0 -40.667 -23.3291 -90.666 -69.9961 -149.999c-57.333 -72 -139 -142.667 -245 -212l-39 -78c25.333 31.333 60 62.333 104 93s76.667 46 98 46c12.667 0 19 -6.33301 19 -19c0 -9.33301 -14 -19.333 -42 -30c-22 -8.66699 -39.667 -17.667 -53 -27
c-12 -27.333 -21.167 -52.333 -27.5 -75s-9.5 -41.334 -9.5 -56.001c0 -17.333 3.16699 -30.166 9.5 -38.499s15.166 -12.5 26.499 -12.5c40 0 82.333 37 127 111c1.33301 6 4.33301 10.833 9 14.5s9.66699 5.5 15 5.5c7.33301 0 11 -4 11 -12
c0 -23.333 -19.667 -57.333 -59 -102c-44 -49.333 -84.667 -74 -122 -74c-20 0 -35.833 9.66699 -47.5 29s-17.5 43.333 -17.5 72c0 11.333 0.666992 23.666 2 36.999s2.66602 26 3.99902 38c-14.667 -14.667 -31.167 -36 -49.5 -64s-33.5 -54 -45.5 -78
c-4 -6.66699 -9 -12 -15 -16s-12 -6 -18 -6c-16.667 0 -25 8.33301 -25 25l3 13c49.333 120.667 108.666 237 177.999 349c79.333 128.667 148.666 211.667 207.999 249c12.667 8 25 12.667 37 14c22.667 0 34 -15.333 34 -46zM391.004 609.001
c0 8.66699 -4.33203 13 -12.999 13c-24 0 -63.333 -38.667 -118 -116c-42.667 -60 -74.334 -110.667 -95.001 -152c25.333 19.333 45.333 35.333 60 48c20 17.333 44.667 40.666 74 69.999c22.667 22.667 43.667 47.834 63 75.501s29 48.167 29 61.5z" />
    <glyph glyph-name="l" unicode="l" horiz-adv-x="228" 
d="M418 654c0 -52 -37.667 -126.667 -113 -224c-68 -88 -138.333 -160.333 -211 -217c-21.333 -46.667 -32 -78 -32 -94c0 -12 3 -18 9 -18c11.333 0 28.166 12.167 50.499 36.5s36.833 46.833 43.5 67.5c6 13.333 13.333 20 22 20c4.66699 0 8.83398 -1.83301 12.501 -5.5
s5.5 -8.83398 5.5 -15.501c0 -24 -20.667 -56.667 -62 -98s-73 -62 -95 -62c-24.667 0 -37 16.333 -37 49c0 8.66699 1.66699 19.667 5 33c34 116 86 231.667 156 347c65.333 107.333 123.333 178 174 212c15.333 9.33301 28 14 38 14c10.667 0 19 -4.16699 25 -12.5
s9 -19.166 9 -32.499zM369 633c0 9.33301 -3.66699 14 -11 14c-16.667 0 -52 -40.5 -106 -121.5s-90.667 -151.167 -110 -210.5c48 35.333 98.333 91 151 167c50.667 72.667 76 123 76 151z" />
    <glyph glyph-name="m" unicode="m" horiz-adv-x="378" 
d="M389 320l-82.0049 -114.001c-26 -38 -39 -70.667 -39 -98c0 -12.667 6.33301 -27 19 -43c6.66699 -8.66699 10 -15 10 -19c0 -8 -3 -15 -9 -21s-13 -9 -21 -9c-12.667 0 -24.167 9.5 -34.5 28.5s-15.5 39.5 -15.5 61.5c0 18.667 3.83301 38.334 11.5 59.001
s20.834 44.334 39.501 71.001c-41.333 -34 -74.333 -71 -99 -111c-35.333 -57.333 -57.666 -86 -66.999 -86c-11.333 0 -17 7.33301 -17 22c0 18.667 8.33301 46.334 25 83.001c14.667 32.667 30.334 60.667 47.001 84c-29.333 -18 -56.333 -45.333 -81 -82
c-22 -33.333 -39.333 -69 -52 -107c-4 -16 -12.667 -23.333 -26 -22c-14.667 0 -22 10 -22 30c8 49.333 31.5 111.5 70.5 186.5s68.167 112.5 87.5 112.5c14 0 21 -4 21 -12c0 -5.33301 -10.333 -24.666 -31 -57.999c-14.667 -22.667 -24.667 -41.334 -30 -56.001l83 75
c22.667 18.667 42.334 28 59.001 28c13.333 0 20 -4 20 -12s-7.66699 -22 -23 -42c-17.333 -22.667 -26.666 -36.334 -27.999 -41.001c12.667 9.33301 33 26.666 61 51.999c43.333 39.333 75.333 59 96 59c10 0 17 -1.66699 21 -5s6 -8 6 -14z" />
    <glyph glyph-name="n" unicode="n" horiz-adv-x="268" 
d="M294 326c0 -8 -6.33301 -21.002 -19 -39.002c-39.333 -55.333 -60 -85.333 -62 -90c-10.667 -21.333 -19.667 -42 -27 -62c-9.33301 -26.667 -14 -49 -14 -67c0 -12 2 -22.333 6 -31c8.66699 -18 13 -29.667 13 -35c0 -13.333 -6 -20 -18 -20s-23.667 8 -35 24
s-17 35 -17 57c0 24.667 5.33301 53.667 16 87c8 26 17.333 49.333 28 70c-30.667 -21.333 -58 -50.333 -82 -87c-40.667 -62.667 -68.334 -94 -83.001 -94c-11.333 0 -16.333 6 -15 18c0 14.667 11 43.334 33 86.001l37 70c46 84 75 126 87 126c14.667 0 22 -6 22 -18
c0 -10 -6.33301 -25.667 -19 -47l-27 -46c4.66699 4.66699 24.334 23.334 59.001 56.001c38 36.667 68.333 55 91 55c16 0 24.667 -4.33301 26 -13z" />
    <glyph glyph-name="o" unicode="o" horiz-adv-x="244" 
d="M250 327c0 -51.333 -22 -112.668 -66 -184.001c-46 -74.667 -89 -112 -129 -112c-18 0 -31.5 5.83301 -40.5 17.5s-13.5 28.167 -13.5 49.5c0 56 21.667 115.333 65 178c46.667 68 95.667 102 147 102c12.667 0 22 -4.66699 28 -14s9 -21.666 9 -36.999zM202 302.998
c0 13.333 -5.99805 20.001 -17.998 20.001c-18 0 -44.667 -24.5 -80 -73.5s-53 -89.5 -53 -121.5c0 -24.667 8 -37 24 -37c12.667 0 26.167 7.66699 40.5 23s25.833 37.666 34.5 66.999c-10.667 0 -15.334 3 -14.001 9c0 6.66699 6.33301 18 19 34
c20 25.333 31.333 40 34 44c7.33301 12 11.666 23.667 12.999 35z" />
    <glyph glyph-name="p" unicode="p" horiz-adv-x="276" 
d="M283 293c0 -39.333 -22.3311 -90.001 -66.998 -152.001c-50 -69.333 -98 -104 -144 -104c-17.333 0 -31 6 -41 18c-36 -73.333 -67.333 -145.666 -94 -216.999s-48.334 -107 -65.001 -107c-10.667 0 -16 6.66699 -16 20c0 24 14 68.667 42 134
c17.333 40.667 44.666 98 81.999 172l51 100l113 218c13.333 22.667 25.666 34 36.999 34c14.667 0 22 -5.33301 22 -16c0 -8 -4.33301 -20 -13 -36c-4 -8 -12.333 -22 -25 -42c26.667 21.333 51.334 32 74.001 32c29.333 0 44 -18 44 -54zM227.002 276.999
c0 14.667 -4.66699 22 -14 22c-20.667 0 -45.167 -17.5 -73.5 -52.5s-59.166 -85.833 -92.499 -152.5c7.33301 -7.33301 16.666 -11 27.999 -11c29.333 0 62 24.833 98 74.5s54 89.5 54 119.5z" />
    <glyph glyph-name="q" unicode="q" horiz-adv-x="268" 
d="M282 289c0 -8 -4.66699 -20.499 -14 -37.499s-14.666 -27.5 -15.999 -31.5l-103 -225c-40.667 -92 -69.334 -163.667 -86.001 -215l-12 -48c-7.33301 -20.667 -19 -31 -35 -31c-12 0 -18 8.66699 -18 26c0 19.333 8 51 24 95c12 32.667 30 76.667 54 132l58 133
c-16 -19.333 -31.5 -33.833 -46.5 -43.5s-27.833 -14.5 -38.5 -14.5c-12.667 0 -22.667 5.66699 -30 17s-11 26.666 -11 45.999c0 58.667 26.667 121 80 187c51.333 63.333 95.333 95 132 95c13.333 0 24.333 -4 33 -12s13 -18 13 -30c0 -8.66699 -2 -17 -6 -25
c14.667 -2.66699 22 -8.66699 22 -18zM216 297.001c0 17.333 -5.00098 25.999 -15.001 25.999c-16 0 -42.667 -25.333 -80 -76c-39.333 -54 -59 -97.333 -59 -130c0 -18 6 -27 18 -27c10 0 21.667 6.66699 35 20c16.667 16.667 33.334 40.334 50.001 71.001
c-3.33301 2.66699 -5 6 -5 10c0.666992 6 9 18 25 36s25.333 31.667 28 41z" />
    <glyph glyph-name="r" unicode="r" horiz-adv-x="323" 
d="M332 263c0 -14 -15.502 -31.166 -46.502 -51.499s-57.833 -30.5 -80.5 -30.5c-15.333 0 -27.333 3.66699 -36 11s-13 19.333 -13 36c0 6.66699 0.333008 12 1 16c-28.667 -28.667 -56.667 -62 -84 -100c-29.333 -40.667 -45.666 -70.334 -48.999 -89.001
c-4 -13.333 -10.167 -23.833 -18.5 -31.5s-17.166 -11.5 -26.499 -11.5c-14 0 -21 6.66699 -21 20c0 26.667 24.833 85.667 74.5 177s86.167 137 109.5 137c8.66699 0 13.667 -3 15 -9c0 -6 -13.333 -28 -40 -66c-14.667 -20.667 -24.667 -37.667 -30 -51l94 84
c39.333 33.333 66.333 50 81 50c13.333 0 20 -4.33301 20 -13c0 -8 -4.66699 -16.667 -14 -26c-19.333 -16.667 -33.5 -30.667 -42.5 -42s-12.833 -20 -11.5 -26c0.666992 -6.66699 6 -10 16 -10c11.333 0 23.5 2.83301 36.5 8.5s23.833 13.167 32.5 22.5
c8 6.66699 14.333 10 19 10c9.33301 1.33301 14 -3.66699 14 -15z" />
    <glyph glyph-name="s" unicode="s" horiz-adv-x="268" 
d="M302 329c0 -24.667 -11.3301 -46.999 -33.9971 -66.999c-25.333 -22.667 -57 -34 -95 -34c-8.66699 0 -15.834 1.83301 -21.501 5.5s-8.16699 8.16699 -7.5 13.5c0 10 12.333 17 37 21c19.333 2 34.666 8 45.999 18s17 20.667 17 32c0 14.667 -9.33301 22 -28 22
c-25.333 0 -48.5 -9.16699 -69.5 -27.5s-31.5 -39.166 -31.5 -62.499c0 -12 7.5 -34 22.5 -66s22.5 -61.667 22.5 -89c0 -24 -7 -43.167 -21 -57.5s-36.667 -21.5 -68 -21.5c-29.333 0 -51.5 9.16699 -66.5 27.5s-22.5 41.166 -22.5 68.499c0 22 5 42.167 15 60.5
s22 27.5 36 27.5c7.33301 0 11 -3.33301 11 -10c0 -5.33301 -1.66699 -11 -5 -17c-8.66699 -14 -13 -27.333 -13 -40c0 -17.333 4.66699 -33.333 14 -48s19.666 -22 30.999 -22c30 0 45 12.333 45 37c0 12.667 -3.33301 26.5 -10 41.5s-15.667 30.833 -27 47.5
c-10 19.333 -15 38 -15 56c0 38 17.333 71 52 99s72 42 112 42c24 0 42.333 -5.33301 55 -16s19 -24.334 19 -41.001z" />
    <glyph glyph-name="t" unicode="t" horiz-adv-x="260" 
d="M339 425c2.66699 -18 -11.332 -29.0029 -41.999 -33.0029c-53.333 -7.33301 -89.333 -14.666 -108 -21.999c-36 -66 -63.667 -123.667 -83 -173c-16 -40 -24 -69.333 -24 -88c0 -14.667 5.66699 -22 17 -22c13.333 0 30.833 11.167 52.5 33.5s39.5 47.833 53.5 76.5
c5.33301 12 12 18 20 18c10.667 1.33301 16 -4.66699 16 -18c0 -28 -18.5 -61.833 -55.5 -101.5s-70.833 -59.5 -101.5 -59.5c-16.667 0 -31 6.33301 -43 19s-18 29.667 -18 51c0 32 11.667 74.333 35 127c17.333 38.667 37.333 76.334 60 113.001
c-14 -5.33301 -24.667 -8 -32 -8c-15.333 0 -23 8 -23 24c0 12.667 9.5 21.334 28.5 26.001l58.5 14c33.333 54 58.333 90.5 75 109.5s31.667 28.5 45 28.5c10 1.33301 15 -4.66699 15 -18c0 -10.667 -7 -25.667 -21 -45c-20.667 -28.667 -32.667 -46 -36 -52
c16 4 30.667 7.33301 44 10s25.666 4 36.999 4c20 0 30 -4.66699 30 -14z" />
    <glyph glyph-name="u" unicode="u" horiz-adv-x="276" 
d="M247 40c0 -10.667 -11.335 -16.002 -34.002 -16.002c-21.333 0 -38.666 7.33301 -51.999 22s-20 33.667 -20 57l1 15c-20 -27.333 -38 -47.333 -54 -60s-30.667 -19 -44 -19c-14 0 -26 5.33301 -36 16s-15 25.334 -15 44.001c0 36.667 17.5 83.167 52.5 139.5
s64.5 84.5 88.5 84.5c15.333 0 23 -3.66699 23 -11c0 -6.66699 -13.667 -28 -41 -64c-31.333 -41.333 -51.666 -76.666 -60.999 -105.999c-4 -14 -6 -24.667 -6 -32c0 -10 2.33301 -15 7 -15c11.333 0 29.666 16.667 54.999 50c28 37.333 51.333 78.333 70 123
c7.33301 16.667 14.833 29 22.5 37s14.5 12 20.5 12c15.333 0 23 -10.667 23 -32c0 -10.667 -3.66699 -21.667 -11 -33c-16.667 -25.333 -28.5 -48 -35.5 -68s-10.5 -38.333 -10.5 -55c0 -14 2.83301 -26.167 8.5 -36.5s12.834 -17.5 21.501 -21.5
c18 -8.66699 27 -19 27 -31z" />
    <glyph glyph-name="v" unicode="v" horiz-adv-x="291" 
d="M302 241c0 -18.667 -9.83008 -34.6641 -29.4971 -47.9971s-39.5 -20 -59.5 -20c-12.667 0 -26 2.66699 -40 8c-16.667 -34 -40.334 -66.333 -71.001 -97c-33.333 -34 -59.333 -49 -78 -45c-12.667 2.66699 -22.5 10 -29.5 22s-10.5 26.333 -10.5 43
c0 26 13 63.667 39 113l56 106c3.33301 13.333 10.666 20 21.999 20c13.333 0 20 -7 20 -21c0 -12.667 -14 -46.334 -42 -101.001s-42 -89.334 -42 -104.001c0 -9.33301 3.33301 -14.333 10 -15c12.667 0 30.167 13.5 52.5 40.5s39.166 55.5 50.499 85.5l-3 18
c0 29.333 8 54.666 24 75.999c14 18.667 28.333 28 43 28c13.333 0 20 -9.33301 20 -28c0 -20.667 -12.333 -52 -37 -94c5.33301 -3.33301 11.333 -5 18 -5c10.667 0 22 4.33301 34 13l38 27c10 0 15 -7.33301 15 -22z" />
    <glyph glyph-name="w" unicode="w" horiz-adv-x="402" 
d="M404 322c0 -33.333 -23.999 -88.332 -71.999 -164.999c-52.667 -84 -97.667 -126 -135 -126c-29.333 0 -44 16 -44 48c0 25.333 9.33301 56.666 28 93.999c-60 -89.333 -110 -134 -150 -134c-22.667 0 -34 13 -34 39c0 30 18 77 54 141
c38.667 68.667 71.334 103 98.001 103c16 0 24 -6 24 -18c0 -4.66699 -0.666992 -8.33398 -2 -11.001c-3.33301 -7.33301 -10.333 -15.666 -21 -24.999c-14.667 -14.667 -33.334 -38.334 -56.001 -71.001c-24.667 -35.333 -37 -59 -37 -71c0 -5.33301 2 -8 6 -8
c15.333 -3.33301 42.333 18 81 64l76 94c16.667 19.333 32.667 29 48 29c12.667 0 19 -6 19 -18c0 -6.66699 -3.66699 -15.667 -11 -27c-14.667 -21.333 -29 -46.333 -43 -75c-16.667 -34.667 -25 -59.667 -25 -75c0 -10.667 4 -16 12 -16c12 0 34.833 27.333 68.5 82
s50.5 93 50.5 115c2 18.667 7.16699 33.834 15.5 45.501s17.166 18.167 26.499 19.5c15.333 0 23 -11.333 23 -34z" />
    <glyph glyph-name="x" unicode="x" horiz-adv-x="268" 
d="M259 200c2.66699 -16 -15.835 -48.167 -55.502 -96.5s-70.834 -72.5 -93.501 -72.5c-14 0 -24 10.167 -30 30.5s-9 44.5 -9 72.5c-19.333 -26 -39.666 -50 -60.999 -72c-25.333 -26 -41.333 -38.667 -48 -38c-7.33301 1.33301 -12.333 3.33301 -15 6s-3.66699 6 -3 10
c0 15.333 22 45 66 89l61 60c0 56 0.5 96.167 1.5 120.5s8.16699 36.5 21.5 36.5c18.667 0 28 -12.333 28 -37c0 -6 -0.666992 -17.5 -2 -34.5s-2 -27.167 -2 -30.5c6.66699 8.66699 15.667 19 27 31c28.667 30 46.334 49.333 53.001 58s15.334 13 26.001 13
c12.667 0 19 -5.33301 19 -16c0 -8.66699 -24.333 -38 -73 -88c-26.667 -27.333 -44 -47.666 -52 -60.999l-3.5 -22.5c-1 -6.33301 -1.5 -13.833 -1.5 -22.5c0 -23.333 6 -35 18 -35c10.667 0 24.5 9.16699 41.5 27.5s32.833 41.166 47.5 68.499
c7.33301 10.667 15.666 16 24.999 16c8.66699 0 13.334 -4.33301 14.001 -13z" />
    <glyph glyph-name="y" unicode="y" horiz-adv-x="354" 
d="M366 201c0 -17.333 -21.332 -46.3291 -63.999 -86.9961c-46.667 -44.667 -89.667 -74.667 -129 -90c-36 -101.333 -77 -179 -123 -233c-38 -44.667 -73 -67 -105 -67c-22 0 -39.333 8.33301 -52 25s-19 37.334 -19 62.001c0 39.333 26 81.666 78 126.999
c48.667 42 106.667 75.667 174 101l35 63c16 29.333 28 55.666 36 78.999c-25.333 -37.333 -54.333 -69 -87 -95s-58.667 -39 -78 -39c-10 0 -17.833 4.83301 -23.5 14.5s-8.5 20.5 -8.5 32.5c0 33.333 24 80.666 72 141.999c46 58.667 76 88 90 88
c11.333 0 17 -7.33301 17 -22c0 -6.66699 -20.167 -33.834 -60.5 -81.501s-60.5 -80.167 -60.5 -97.5c0 -7.33301 3 -11 9 -11c12.667 0 37 19.333 73 58l96 108c35.333 39.333 57.666 59 66.999 59c17.333 0 26 -8.66699 26 -26c0 -6 -9.66699 -26 -29 -60
c-50 -88 -79 -142.667 -87 -164c27.333 19.333 49.5 37.5 66.5 54.5s31.5 35.5 43.5 55.5c8.66699 16.667 17.667 25 27 25c5.33301 0 9.33301 -1.83301 12 -5.5s4 -8.83398 4 -15.501zM102.001 -15.9961c-50 -24.667 -92.667 -56 -128 -94c-30 -32 -45 -55.667 -45 -71
c0 -26 10 -39 30 -39c12 0 25.667 7.66699 41 23c20 20 40.167 51.333 60.5 94z" />
    <glyph glyph-name="z" unicode="z" horiz-adv-x="228" 
d="M264 331c0 -8.66699 -16.6699 -28.668 -50.0029 -60.001l-99 -93c-38.667 -36.667 -61.334 -62 -68.001 -76c24 7.33301 48.667 11 74 11c17.333 0 31.666 -2.16699 42.999 -6.5s17 -10.833 17 -19.5c0 -11.333 -2.16699 -19.166 -6.5 -23.499s-11.166 -6.5 -20.499 -6.5
c-2 0 -11.167 1.16699 -27.5 3.5s-28.833 3.5 -37.5 3.5c-12.667 0 -34.667 -7 -66 -21c-15.333 -6.66699 -27.666 -10 -36.999 -10c-13.333 0 -20 7 -20 21c0 30.667 27 74 81 130c25.333 26 70 67 134 123c-14 -2 -30.167 -4.16699 -48.5 -6.5s-31.166 -3.5 -38.499 -3.5
c-31.333 0 -47 11.333 -47 34c0 6 2.16699 10.167 6.5 12.5s10.833 3.5 19.5 3.5c24.667 0 48.834 0.5 72.501 1.5s51.834 2.5 84.501 4.5c22.667 0 34 -7.33301 34 -22z" />
    <glyph glyph-name="braceleft" unicode="{" horiz-adv-x="441" 
d="M764 732c0 -10 -2.83496 -16.835 -8.50195 -20.502s-13.834 -5.5 -24.501 -5.5h-17c-6 0 -12 0.333008 -18 1c-14 0 -27.667 -1.5 -41 -4.5s-27 -8.83301 -41 -17.5c-46.667 -28 -84 -67 -112 -117c-48 -85.333 -73.667 -130.333 -77 -135
c-15.333 -19.333 -45.833 -43.166 -91.5 -71.499s-83.5 -46.5 -113.5 -54.5c22 -13.333 38.5 -31 49.5 -53s16.5 -45.333 16.5 -70c0 -23.333 -8 -52 -24 -86l-55 -117c0 -18.667 7.16699 -36.167 21.5 -52.5s29.833 -24.5 46.5 -24.5c6.66699 0 13.5 0.833008 20.5 2.5
l23.5 5.5c11.333 0 17 -3.66699 17 -11c0 -6.66699 -5.66699 -14.167 -17 -22.5s-23.333 -12.5 -36 -12.5c-40 0 -71 7 -93 21c-26.667 17.333 -40 44.666 -40 81.999c0 22 13.5 58.333 40.5 109s40.5 86 40.5 106c0 22.667 -17.5 45.834 -52.5 69.501
s-52.5 41.5 -52.5 53.5c0 8.66699 40.667 31 122 67c42.667 18.667 70.334 33 83.001 43c24.667 17.333 55.834 58.833 93.501 124.5s71.834 112.834 102.501 141.501c51.333 47.333 114 71 188 71c16 0 28.167 -1.5 36.5 -4.5s12.5 -8.83301 12.5 -17.5z" />
    <glyph glyph-name="bar" unicode="|" horiz-adv-x="172" 
d="M114 4c-2.66699 -10 -12.332 -15.001 -28.999 -15.001c-7.33301 0 -13.833 1.33301 -19.5 4s-8.5 6.33398 -8.5 11.001c0 7.33301 14.667 69 44 185l82 317l44 169c2 10.667 7.16699 19.167 15.5 25.5s17.166 9.5 26.499 9.5c4 0 8.16699 -2.5 12.5 -7.5
s6.5 -10.5 6.5 -16.5l-45 -175l-83 -327z" />
    <glyph glyph-name="braceright" unicode="}" horiz-adv-x="441" 
d="M440 323c0 -8.66699 -40.665 -30.998 -121.998 -66.998c-42.667 -18.667 -70.334 -33 -83.001 -43c-24.667 -17.333 -55.334 -58 -92.001 -122c-38.667 -67.333 -73.334 -115.333 -104.001 -144c-51.333 -47.333 -114 -71 -188 -71c-16 0 -28.167 1.5 -36.5 4.5
s-12.5 8.83301 -12.5 17.5c0 10 2.83301 16.833 8.5 20.5s13.834 5.5 24.501 5.5h17c6 0 12 -0.333008 18 -1c14 0 27.667 1.5 41 4.5s27 8.83301 41 17.5c46.667 28 84 67 112 117c48 85.333 73.667 130.333 77 135c15.333 19.333 45.833 43.166 91.5 71.499
s83.5 46.5 113.5 54.5c-22 13.333 -38.5 31 -49.5 53s-16.5 45.333 -16.5 70c0 23.333 8.5 53.166 25.5 89.499l53.5 113.5c0 18.667 -7.16699 36.167 -21.5 52.5s-29.833 24.5 -46.5 24.5c-6.66699 0 -15 -1.33301 -25 -4s-16.333 -4 -19 -4c-11.333 0 -17 3.66699 -17 11
c0 6.66699 5.66699 14.167 17 22.5s23.333 12.5 36 12.5c40 0 71 -7 93 -21c26.667 -17.333 40 -44.666 40 -81.999c0 -22 -13.5 -58.333 -40.5 -109s-40.5 -86 -40.5 -106c0 -22.667 17.5 -45.834 52.5 -69.501s52.5 -41.5 52.5 -53.5z" />
    <glyph glyph-name="asciitilde" unicode="~" horiz-adv-x="552" 
d="M616 463c0 -30.667 -15 -61.333 -45 -92c-34 -34.667 -72.333 -52 -115 -52c-33.333 0 -63.833 16.5 -91.5 49.5s-50.167 49.5 -67.5 49.5c-8.66699 0 -31.667 -14.667 -69 -44s-63 -44 -77 -44c-13.333 0 -20 5.66699 -20 17c0 18.667 23 43.667 69 75s84 47 114 47
c12.667 0 37.167 -16.833 73.5 -50.5s63.5 -50.5 81.5 -50.5c29.333 0 55.5 19.833 78.5 59.5s41.5 59.5 55.5 59.5c8.66699 0 13 -8 13 -24z" />
    <glyph glyph-name="nonbreakingspace" unicode="&#xa0;" horiz-adv-x="500" 
 />
    <glyph glyph-name="exclamdown" unicode="&#xa1;" horiz-adv-x="276" 
d="M-22 -146c0 13.333 4 26.667 12 40l260 441l15 31c9.33301 16 20 24 32 24c19.333 0 29 -8 29 -24c0 -12.667 -7 -31 -21 -55l-260 -441l-14 -22c-8 -11.333 -16.333 -17 -25 -17c-18.667 0 -28 7.66699 -28 23zM320 466.001c0 22 4.66699 40.5 14 55.5s22 22.5 38 22.5
c17.333 0 26 -9.33301 26 -28c0 -14 -5.66699 -31.833 -17 -53.5s-22.333 -32.5 -33 -32.5c-18.667 0 -28 12 -28 36z" />
    <glyph glyph-name="cent" unicode="&#xa2;" horiz-adv-x="323" 
d="M319 372c0 -20 -8.66699 -40 -26 -60s-32.333 -30 -45 -30c-10 0 -15 4.66699 -15 14c0 8 3.66699 14.333 11 19c22 16.667 33 34.667 33 54c0 11.333 -5.66699 17 -17 17c-8.66699 0 -31.334 -32.667 -68.001 -98c-5.33301 -9.33301 -27.333 -50.333 -66 -123
c23.333 0 48 6.16699 74 18.5s48.667 29.833 68 52.5c8.66699 12 17 17.333 25 16c12.667 0 19 -6.66699 19 -20c0 -20.667 -23.833 -45.167 -71.5 -73.5s-87.167 -42.5 -118.5 -42.5c-9.33301 0 -16 0.666992 -20 2l-38 -79c-11.333 -20.667 -22.333 -31 -33 -31
c-7.33301 2 -11 7 -11 15c0 10.667 7 29 21 55l22 40c-33.333 13.333 -50 37.333 -50 72c0 40.667 18 85 54 133c46 62 107.667 101.333 185 118c8.66699 22 15.334 36.667 20.001 44s11 11 19 11c15.333 0 22.333 -4.33301 21 -13c0 -4.66699 -1.33301 -9.5 -4 -14.5
s-11 -16.833 -25 -35.5c24 -12 36 -32.333 36 -61zM213 386c-36 -14 -69.333 -42 -100 -84c-28 -38.667 -42 -72 -42 -100c0 -19.333 7.66699 -29 23 -29c22 44 43.667 84.333 65 121z" />
    <glyph glyph-name="sterling" unicode="&#xa3;" horiz-adv-x="480" 
d="M502 556c0 -14 -10.999 -21.0029 -32.999 -21.0029l-18 2c-40.667 0 -79.334 -24.333 -116.001 -73c-16 -21.333 -38.333 -60.666 -67 -117.999c17.333 2 40.666 6.66699 69.999 14c13.333 3.33301 23 5 29 5c12.667 0 24.167 -3.16699 34.5 -9.5
s15.5 -13.166 15.5 -20.499c0 -8 -4 -14.667 -12 -20s-17 -8 -27 -8c-3.33301 0 -8.33301 0.666992 -15 2s-12 2 -16 2c-12.667 0 -28.167 -1.83301 -46.5 -5.5s-39.833 -8.5 -64.5 -14.5c-4 -25.333 -17.5 -60.166 -40.5 -104.499s-46.167 -80.166 -69.5 -107.499
c2 0.666992 28.667 7 80 19c38.667 9.33301 68.667 14 90 14c34.667 0 52 -9 52 -27c0 -19.333 -18 -29 -54 -29c-44.667 0 -98.334 -10 -161.001 -30c-85.333 -27.333 -129.666 -41.333 -132.999 -42c-10 -2 -18 -0.5 -24 4.5s-9 11.833 -9 20.5c0 17.333 11 30 33 38
c32.667 11.333 65.334 39.666 98.001 84.999c29.333 40.667 54.333 88.667 75 144c-2 0 -15.333 -1.66699 -40 -5c-10 -1.33301 -19.333 -2 -28 -2c-10.667 0 -17 0.333008 -19 1c-10 2.66699 -15 9.66699 -15 21c0 13.333 3.83301 22 11.5 26s19.834 6 36.501 6h30
c12 0 21.833 0.5 29.5 1.5s16.5 3.16699 26.5 6.5c84 168.667 161 253 231 253c19.333 0 35.166 -2.66699 47.499 -8s18.5 -12 18.5 -20z" />
    <glyph glyph-name="currency" unicode="&#xa4;" horiz-adv-x="487" 
d="M524 408l-52.001 -40.998c11.333 -20.667 17 -46.334 17 -77.001c0 -19.333 -2 -39 -6 -59c-16.667 -54.667 -42.334 -98.334 -77.001 -131.001l22 -28c7.33301 -11.333 11 -20 11 -26c-2.66699 -14.667 -10.667 -22 -24 -22s-20 9.33301 -20 28l-17 27
c-21.333 -19.333 -43.666 -34 -66.999 -44s-46.333 -15 -69 -15c-24 0 -45.333 3.5 -64 10.5s-32 17.833 -40 32.5l-35 -19c-4.66699 -9.33301 -9 -15.333 -13 -18s-9.33301 -4 -16 -4c-4 0 -8.16699 1.5 -12.5 4.5s-6.5 6.5 -6.5 10.5l2 9c0 4.66699 8 10.334 24 17.001
l35 29c-7.33301 16 -11 34 -11 54c0 10 1.33301 23.167 4 39.5s5.66699 33.166 9 50.499c6.66699 26 16.5 50.333 29.5 73s27.833 42 44.5 58l-30 41c-7.33301 9.33301 -11 17.333 -11 24l2 9c5.33301 10 14.666 15 27.999 15s20 -8.66699 20 -26l20 -35
c22.667 14 45.334 24.833 68.001 32.5s45 11.5 67 11.5c23.333 0 43.5 -3.5 60.5 -10.5s31.167 -18.167 42.5 -33.5l43 35c3.33301 9.33301 6.5 15.333 9.5 18s7.83301 4 14.5 4c4.66699 0 9.83398 -3.16699 15.501 -9.5s8.5 -11.833 8.5 -16.5c-2 -12 -10.667 -18 -26 -18z
M453.999 290.002c0 32.667 -7.66699 59.665 -23 80.998c-18 24.667 -43 37 -75 37c-53.333 0 -98.666 -19 -135.999 -57c-32 -32.667 -53.667 -73.334 -65 -122.001c-2.66699 -11.333 -4.83398 -21.666 -6.50098 -30.999s-2.5 -18.666 -2.5 -27.999
c0 -31.333 7 -56.666 21 -75.999c16.667 -23.333 41.667 -35 75 -35c48 0 92.333 19.667 133 59c36.667 36 61.667 79 75 129z" />
    <glyph glyph-name="yen" unicode="&#xa5;" horiz-adv-x="433" 
d="M552 563c0 -9.33301 -3.00195 -16 -9.00195 -20c-23.333 -18.667 -50.666 -44.667 -81.999 -78c-17.333 -18 -46.166 -50.833 -86.499 -98.5l-83.5 -98.5l20 3c8.66699 1.33301 15 2 19 2c20 0 35.667 -2.5 47 -7.5s17 -12.167 17 -21.5c0 -12 -8.66699 -18 -26 -18h-19
c-6.66699 0 -13.667 0.333008 -21 1c-16.667 0 -30.167 -1 -40.5 -3s-22.166 -5.66699 -35.499 -11l-16 -24h22c7.33301 0 14.666 0.333008 21.999 1c16.667 0 29.334 -1.66699 38.001 -5s13 -10 13 -20c0 -13.333 -7.33301 -20 -22 -20c-3.33301 0 -11 0.333008 -23 1
s-22.667 1 -32 1c-13.333 0 -32.333 -1.66699 -57 -5l-68 -117c-32 -50 -56.333 -75 -73 -75c-14.667 0 -22 7.33301 -22 22c0 10.667 9.16699 31.5 27.5 62.5s39.833 61.5 64.5 91.5c-16 0 -32.833 -1.5 -50.5 -4.5l-55.5 -9.5c-18.667 0 -28 10 -28 30
c0 8 4.83301 12.5 14.5 13.5s21.5 1.5 35.5 1.5h12c21.333 0 39 0.833008 53 2.5s30.667 6.16699 50 13.5l16 24c-0.666992 0 -16.667 -1.66699 -48 -5c-12.667 -1.33301 -24.334 -2 -35.001 -2c-14 0 -24.667 1.66699 -32 5s-11 9.33301 -11 18
c0 10.667 3.16699 17.167 9.5 19.5s17.5 3.5 33.5 3.5c14 -0.666992 25 -1 33 -1c16 0 31.333 1.16699 46 3.5s29.334 6.83301 44.001 13.5c0 4 1 7.5 3 10.5s6 7.5 12 13.5c0 44.667 -3 91.334 -9 140.001s-13.333 86 -22 112c-2 5.33301 -3 10.333 -3 15
c0 12.667 6.66699 19 20 19s23.333 -6.33301 30 -19c7.33301 -18 14.666 -46.333 21.999 -85s13 -78.334 17 -119.001l120 147c62 71.333 103.333 107 124 107c7.33301 0 13.333 -3 18 -9s7 -13 7 -21z" />
    <glyph glyph-name="section" unicode="&#xa7;" horiz-adv-x="498" 
d="M589 619c0 -7.33301 -2.00195 -12.998 -6.00195 -16.998s-11.667 -6 -23 -6c-16.667 19.333 -34 35.666 -52 48.999c-20.667 15.333 -45.334 23 -74.001 23c-50 0 -99.833 -22.167 -149.5 -66.5s-74.5 -87.5 -74.5 -129.5c0 -26.667 21.667 -40 65 -40
c13.333 0 30 3 50 9c48.667 14.667 87.334 22 116.001 22c35.333 0 63.166 -7.83301 83.499 -23.5s30.5 -37.834 30.5 -66.501c0 -32 -19 -72 -57 -120c1.33301 -4 2 -12.667 2 -26c0 -70 -38.333 -130.667 -115 -182c-68.667 -46 -138.667 -69 -210 -69
c-37.333 0 -68.166 9.33301 -92.499 28s-36.5 45 -36.5 79c0 16.667 3.16699 30.667 9.5 42s14.166 17 23.499 17c10 0 15 -8.66699 15 -26c-4.66699 -12 -7 -22.333 -7 -31c0 -22.667 10.833 -39.667 32.5 -51s49.5 -17 83.5 -17c50.667 0 106.334 23.667 167.001 71
s91 89.333 91 126c0 19.333 -7 34 -21 44s-33.333 15 -58 15c-35.333 -8.66699 -69.666 -16 -102.999 -22s-66 -9 -98 -9c-21.333 0 -39.666 5.33301 -54.999 16s-23 25 -23 43c0 29.333 22.333 71.666 67 126.999c0 2.66699 -0.666992 7 -2 13s-2 10.333 -2 13
c0 75.333 31.667 137 95 185c56 42.667 119.667 64 191 64c25.333 0 54.5 -10.167 87.5 -30.5s49.5 -38.166 49.5 -53.499zM510.998 365.002c0 20 -7.16699 36.1689 -21.5 48.502s-33.5 18.5 -57.5 18.5c-10 0 -40 -7.66699 -90 -23c-26 -8 -49 -12 -69 -12
c-12.667 0 -27 1 -43 3s-25.667 4 -29 6c-16.667 -12.667 -29.167 -26.334 -37.5 -41.001s-12.5 -29.334 -12.5 -44.001c0 -26 22.333 -39 67 -39c17.333 0 48.333 4.66699 93 14s77.667 14 99 14c27.333 0 50 -8 68 -24c10 11.333 18 23.5 24 36.5s9 27.167 9 42.5z" />
    <glyph glyph-name="dieresis" unicode="&#xa8;" horiz-adv-x="339" 
d="M269 521c0 -12 -8.66699 -27.167 -26 -45.5s-31.666 -27.5 -42.999 -27.5c-13.333 0 -20 7.33301 -20 22c0 15.333 8.66699 31.333 26 48s31.666 25 42.999 25c13.333 0 20 -7.33301 20 -22zM160 522c0 -12 -8.66699 -27.167 -26 -45.5s-31.666 -27.5 -42.999 -27.5
c-13.333 0 -20 7.33301 -20 22c0 15.333 8.66699 31.333 26 48s31.666 25 42.999 25c13.333 0 20 -7.33301 20 -22z" />
    <glyph glyph-name="copyright" unicode="&#xa9;" horiz-adv-x="740" 
d="M764 315c0 -105.333 -39.334 -189 -118.001 -251c-68 -53.333 -147 -80 -237 -80c-88 0 -165.333 27 -232 81c-76 61.333 -114 142 -114 242c0 109.333 32.333 198.333 97 267s145.334 103 242.001 103c90.667 0 171.667 -31.667 243 -95c79.333 -70 119 -159 119 -267z
M708.999 315c0 89.333 -27.333 163.334 -82 222.001c-57.333 62 -132.333 93 -225 93c-84 0 -152.333 -29.333 -205 -88s-79 -137 -79 -235c0 -90.667 34.333 -161.334 103 -212.001c58 -42.667 126 -64 204 -64c71.333 0 135.333 25.667 192 77c61.333 56 92 125 92 207z
M552.999 486.001c0 -20 -6 -40.999 -18 -62.999s-28.667 -44 -50 -66c-10 -9.33301 -20.667 -14 -32 -14c-18 0 -28 9 -30 27c0 6.66699 1.5 12.834 4.5 18.501s8.16699 11.167 15.5 16.5c19.333 14.667 34.166 29.667 44.499 45s15.5 28.333 15.5 39l-1 3
c-21.333 0 -51.666 -24.333 -90.999 -73c-32 -40 -56 -75.333 -72 -106c-21.333 -44.667 -32 -79 -32 -103c0 -22 7.33301 -33 22 -33s32.167 8.5 52.5 25.5s39.5 40.167 57.5 69.5c4.66699 7.33301 10.834 13 18.501 17s13.5 5.66699 17.5 5c11.333 0 17 -6 17 -18
c0 -7.33301 -1.66699 -14 -5 -20c-23.333 -44 -51.333 -78.333 -84 -103c-30 -22.667 -59 -34 -87 -34c-22.667 0 -40.834 6.83301 -54.501 20.5s-20.5 34.5 -20.5 62.5c0 18 3.16699 38 9.5 60s16.833 46.333 31.5 73c21.333 45.333 54 90.666 98 135.999
c48.667 50 88.334 75 119.001 75c15.333 0 28.166 -5.83301 38.499 -17.5s15.5 -25.834 15.5 -42.501z" />
    <glyph glyph-name="ordfeminine" unicode="&#xaa;" horiz-adv-x="173" 
d="M323 672l-3.00195 -14.998l2 -9c0 -6.66699 -5.66699 -22.334 -17 -47.001s-17 -41.334 -17 -50.001c0 -12 4.33301 -20.333 13 -25s13 -10.667 13 -18c0 -10 -7.33301 -15 -22 -15c-13.333 0 -23.166 4.5 -29.499 13.5s-9.5 19.5 -9.5 31.5l3 19l9 -4
c-18.667 -32 -38.667 -48 -60 -48c-22 0 -33 13.333 -33 40c0 30 12.833 63.333 38.5 100s51.834 55 78.501 55c10 0 18.167 -2.5 24.5 -7.5s9.5 -11.833 9.5 -20.5zM314.998 441.002h-165v24h165v-24zM289.998 653.002c-2 5.33301 -5 8 -9 8
c-12 0 -26.5 -13.167 -43.5 -39.5s-25.5 -47.833 -25.5 -64.5c0 -5.33301 1 -8.33301 3 -9c8 -2 17.667 6 29 24z" />
    <glyph glyph-name="guillemotleft" unicode="&#xab;" horiz-adv-x="291" 
d="M274 292c0 -7.33301 -9.33301 -19.333 -28 -36s-28 -26.667 -28 -30c0 -7.33301 5.66699 -21.666 17 -42.999c6 -11.333 9 -20.333 9 -27c0 -8 -2.66699 -14.667 -8 -20s-11.666 -8 -18.999 -8c-10.667 0 -25 14.667 -43 44c-10.667 17.333 -16 31.666 -16 42.999
c0 14 11.167 33.833 33.5 59.5s40.166 38.5 53.499 38.5c19.333 0 29 -7 29 -21zM158 294c0 -7.33301 -9.33301 -19.333 -28 -36s-28 -26.667 -28 -30c0 -7.33301 5.66699 -21.666 17 -42.999c6 -11.333 9 -20.333 9 -27c0 -8 -2.66699 -14.667 -8 -20
s-11.666 -8 -18.999 -8c-10.667 0 -25 14.667 -43 44c-10.667 17.333 -16 31.666 -16 42.999c0 14 11.167 33.833 33.5 59.5s40.166 38.5 53.499 38.5c19.333 0 29 -7 29 -21z" />
    <glyph glyph-name="logicalnot" unicode="&#xac;" horiz-adv-x="531" 
d="M548 293c-7.33301 -39.333 -13.668 -68.668 -19.001 -88.001c-16.667 -59.333 -34.334 -89 -53.001 -89c-5.33301 0 -10.333 2 -15 6s-7 9.33301 -7 16c0 9.33301 6.33301 34 19 74c4 13.333 10.667 33 20 59c-31.333 -1.33301 -66.666 -2.66602 -105.999 -3.99902
s-81.333 -2 -126 -2c-51.333 0 -89.166 0.833008 -113.499 2.5s-36.5 5.5 -36.5 11.5c0 10 2.83301 19.167 8.5 27.5s13.167 12.5 22.5 12.5h389c2.66699 0 6.16699 -3.16699 10.5 -9.5s6.5 -11.833 6.5 -16.5z" />
    <glyph glyph-name="minus" unicode="&#xad;" horiz-adv-x="395" 
d="M391 303c-0.666992 -7.33301 -5.66699 -14.833 -15 -22.5s-18.333 -11.5 -27 -11.5l-190 -20c-8 0 -13.5 2.5 -16.5 7.5s-4.5 9.83301 -4.5 14.5c0 7.33301 4.33301 16.333 13 27s18 16 28 16l194 20c6 0 10.5 -3 13.5 -9s4.5 -13.333 4.5 -22z" />
    <glyph glyph-name="registered" unicode="&#xae;" horiz-adv-x="740" 
d="M748 346c0 -104.667 -34.333 -189.832 -103 -255.499s-155 -98.5 -259 -98.5c-98 0 -178.667 36.333 -242 109c-59.333 68 -89 149.667 -89 245s31 176 93 242c66 70 150.667 105 254 105c100.667 -8.66699 182 -41.667 244 -99c68 -62.667 102 -145.334 102 -248.001z
M693 346.002c0 94 -33.668 169.667 -101.001 227c-57.333 48.667 -120.666 73 -189.999 73c-79.333 0 -148 -27 -206 -81c-62.667 -58 -94 -131 -94 -219c0 -87.333 30.667 -161 92 -221c58.667 -57.333 125.334 -86 200.001 -86c77.333 0 144.666 25.667 201.999 77
c64.667 58 97 134.667 97 230zM572.999 479.002c0 -40.667 -21 -76.665 -63 -107.998s-89.333 -47 -142 -47l31 -70c12.667 -26 23.667 -46.333 33 -61c4 -6.66699 6 -13.667 6 -21c0 -10 -2.66699 -17.667 -8 -23s-12 -8 -20 -8c-5.33301 0 -10.333 1.33301 -15 4
s-9.66699 7.66699 -15 15c-8 13.333 -16.833 30.333 -26.5 51s-18.5 40.667 -26.5 60c-12 -25.333 -20 -42.666 -24 -51.999c-8.66699 -19.333 -14.667 -33.833 -18 -43.5s-8.33301 -17 -15 -22s-13 -7.5 -19 -7.5c-8 0 -15 3 -21 9s-9 13.333 -9 22
c0 10.667 7.16699 32.167 21.5 64.5s31.833 65.166 52.5 98.499l-3 20c0 9.33301 2.16699 16.833 6.5 22.5s12.5 8.5 24.5 8.5l36 59c0.666992 -1.33301 1.33398 -2.33301 2.00098 -3c11.333 7.33301 17 11.333 17 12c-3.33301 -0.666992 -6 -1 -8 -1
c-4 0 -8.83301 3.16699 -14.5 9.5s-8.5 12.166 -8.5 17.499c0 7.33301 3.5 14.666 10.5 21.999s19.833 17 38.5 29c2 8.66699 6.16699 15.5 12.5 20.5s13.166 7.5 20.499 7.5c8 0 14.667 -3 20 -9c16.667 4.66699 32 7 46 7c26 0 46.333 -10 61 -30
c11.333 -15.333 17 -33 17 -53zM515.999 480.004c0 15.333 -9 23 -27 23c-13.333 0 -29.666 -5.66699 -48.999 -17c-3.33301 -8.66699 -10.333 -23 -21 -43l-32 -59c35.333 4.66699 65.666 16.5 90.999 35.5s38 39.167 38 60.5z" />
    <glyph glyph-name="twosuperior" unicode="&#xb2;" horiz-adv-x="199" 
d="M282 655c0 -20 -9.66699 -38.6689 -29 -56.002c-5.33301 -5.33301 -42 -33 -110 -83c-25.333 -18.667 -43.333 -34.334 -54 -47.001c9.33301 2.66699 21 5.33398 35 8.00098s25.667 4 35 4c27.333 0 41 -8 41 -24c0 -13.333 -4.33301 -20 -13 -20
c-0.666992 0 -5 0.666992 -13 2s-16.333 2 -25 2c-11.333 0 -22.666 -1.16699 -33.999 -3.5s-26.333 -6.5 -45 -12.5c-7.33301 -2.66699 -14.333 -4 -21 -4c-17.333 0 -26 7.66699 -26 23c0 8 5 17.667 15 29c19.333 19.333 46.333 42.333 81 69l98 74
c12.667 8.66699 19 19.667 19 33c0 12.667 -8.33301 19 -25 19c-9.33301 0 -20 -4.33301 -32 -13l-37 -26c-14.667 0 -22 4.66699 -22 14c0 10.667 11 23.334 33 38.001c25.333 16.667 50.666 25 75.999 25c16 0 28.833 -5.16699 38.5 -15.5s14.5 -22.166 14.5 -35.499z" />
    <glyph glyph-name="threesuperior" unicode="&#xb3;" horiz-adv-x="182" 
d="M224 668c0 -24.667 -17.3301 -46.6689 -51.9971 -66.002c14.667 -10.667 22 -26 22 -46c0 -30 -14 -59.333 -42 -88s-55.667 -43 -83 -43c-15.333 0 -28.666 5 -39.999 15s-17 24.333 -17 43c0 10.667 2.5 19.5 7.5 26.5s13.167 10.5 24.5 10.5
c7.33301 0 12 -1.66699 14 -5s3 -8.33301 3 -15c0 -12 0.666992 -20.333 2 -25s7.33301 -7 18 -7c17.333 0 34.666 12.333 51.999 37s23.666 43.667 18.999 57c-4.66699 14.667 -11.334 21.334 -20.001 20.001l-25 -4c-3.33301 0 -6.66602 2.33301 -9.99902 7s-5 9 -5 13
c0 7.33301 7.33301 14.333 22 21c18 6.66699 30 11.334 36 14.001c17.333 10 26 20.333 26 31c1.33301 7.33301 -3.66699 11 -15 11c-6 0 -16.333 -3.83301 -31 -11.5s-24 -11.5 -28 -11.5c-10.667 0 -16 4 -16 12c0 9.33301 9.66699 19.833 29 31.5
s38.666 17.5 57.999 17.5c14 0 25.667 -4 35 -12s14.666 -19 15.999 -33z" />
    <glyph glyph-name="acute" unicode="&#xb4;" horiz-adv-x="260" 
d="M251 515c0 -6 -2.33203 -12.333 -6.99902 -19c-28.667 -36.667 -47.334 -60 -56.001 -70c-20.667 -22.667 -36.667 -34 -48 -34c-10.667 0 -16 5 -16 15c0 16.667 14.667 41.667 44 75s50 50 62 50c14 0 21 -5.66699 21 -17z" />
    <glyph glyph-name="periodcentered" unicode="&#xb7;" horiz-adv-x="299" 
d="M158 258c0 -16 -6.16797 -32.8311 -18.501 -50.498s-24.166 -25.834 -35.499 -24.501c-14 0 -21 10 -21 30c0 15.333 5.33301 33.166 16 53.499s21.667 30.5 33 30.5c17.333 0 26 -13 26 -39z" />
    <glyph glyph-name="periodcentered" unicode="&#x2219;" horiz-adv-x="299" 
d="M158 258c0 -16 -6.16797 -32.8311 -18.501 -50.498s-24.166 -25.834 -35.499 -24.501c-14 0 -21 10 -21 30c0 15.333 5.33301 33.166 16 53.499s21.667 30.5 33 30.5c17.333 0 26 -13 26 -39z" />
    <glyph glyph-name="cedilla" unicode="&#xb8;" horiz-adv-x="157" 
d="M63 0c-12 -12 -20.334 -21.998 -25.001 -29.998s-7 -16.333 -7 -25c16.667 -8.66699 25 -21.334 25 -38.001c0 -21.333 -11.167 -44.833 -33.5 -70.5s-40.166 -38.5 -53.499 -38.5c-5.33301 0 -8 1.66699 -8 5c0 6 9 18 27 36s27.333 30.333 28 37
c1.33301 10.667 -6.16699 18.167 -22.5 22.5s-24.5 9.16602 -24.5 14.499c0 6 11.333 21.333 34 46c16 17.333 28 31 36 41h24z" />
    <glyph glyph-name="onesuperior" unicode="&#xb9;" horiz-adv-x="134" 
d="M187 690c0 -6 -1.66895 -11.665 -5.00195 -16.998c-11.333 -18.667 -30.666 -52.667 -57.999 -102c-30 -54.667 -49.5 -90.834 -58.5 -108.501s-14.167 -27.5 -15.5 -29.5c-6 -8.66699 -11.667 -13 -17 -13c-12.667 0 -19 6 -19 18
c-0.666992 5.33301 1.83301 14.166 7.5 26.499s9.83398 21.833 12.501 28.5c8.66699 17.333 21.667 42 39 74l39 70c-25.333 -15.333 -42.666 -23.333 -51.999 -24c-8.66699 0 -14.334 5 -17.001 15c-1.33301 6 3.66699 12.333 15 19l51 29c12 10 23.333 17.5 34 22.5
s19 7.5 25 7.5c12.667 0 19 -5.33301 19 -16z" />
    <glyph glyph-name="ordmasculine" unicode="&#xba;" horiz-adv-x="165" 
d="M321 661c0 -29.333 -13 -64.499 -39 -105.499s-50.667 -61.5 -74 -61.5c-10.667 0 -19 3.66699 -25 11s-9 17.333 -9 30c0 32 12.833 66.5 38.5 103.5s53.167 55.5 82.5 55.5c8.66699 0 15.167 -2.83301 19.5 -8.5s6.5 -13.834 6.5 -24.501zM291 433.001h-165v32h165v-32
zM284 648.001c0 4 -1.66797 6 -5.00098 6c-9.33301 0 -23 -13 -41 -39s-27 -47 -27 -63c0 -10 2.66699 -15 8 -15c6 0 12.333 3.33301 19 10s12 16.667 16 30c-6 2 -8 5.66699 -6 11c0.666992 4 4.33398 10.333 11.001 19c10.667 14 17.5 23.167 20.5 27.5
s4.5 8.83301 4.5 13.5z" />
    <glyph glyph-name="guillemotright" unicode="&#xbb;" horiz-adv-x="291" 
d="M263 224c0 -14 -11.167 -33.833 -33.5 -59.5s-40.166 -38.5 -53.499 -38.5c-19.333 0 -29 7 -29 21c0 7.33301 9.33301 19.333 28 36s28 26.667 28 30c0 7.33301 -5.66699 21.666 -17 42.999c-6 11.333 -9 20.333 -9 27c0 8 2.66699 14.667 8 20s11.666 8 18.999 8
c10.667 0 25 -14.667 43 -44c10.667 -17.333 16 -31.666 16 -42.999zM147 226c0 -14 -11.167 -33.833 -33.5 -59.5s-40.166 -38.5 -53.499 -38.5c-19.333 0 -29 7 -29 21c0 7.33301 9.33301 19.333 28 36s28 26.667 28 30c0 7.33301 -5.66699 21.666 -17 42.999
c-6 11.333 -9 20.333 -9 27c0 8 2.66699 14.667 8 20s11.666 8 18.999 8c10.667 0 25 -14.667 43 -44c10.667 -17.333 16 -31.666 16 -42.999z" />
    <glyph glyph-name="onequarter" unicode="&#xbc;" horiz-adv-x="580" 
d="M227 690c0 -6 -1.66895 -11.665 -5.00195 -16.998c-11.333 -18.667 -30.666 -52.667 -57.999 -102c-30 -54.667 -49.5 -90.834 -58.5 -108.501s-14.167 -27.5 -15.5 -29.5c-6 -8.66699 -11.667 -13 -17 -13c-12.667 0 -19 6 -19 18
c-0.666992 5.33301 1.83301 14.166 7.5 26.499s9.83398 21.833 12.501 28.5c8.66699 17.333 21.667 42 39 74l39 70c-25.333 -15.333 -42.666 -23.333 -51.999 -24c-8.66699 0 -14.334 5 -17.001 15c-1.33301 6 3.66699 12.333 15 19l51 29c12 10 23.333 17.5 34 22.5
s19 7.5 25 7.5c12.667 0 19 -5.33301 19 -16zM532.998 657.002c0 -4 -23.998 -33.998 -71.998 -89.998s-107 -139 -177 -249c-54.667 -85.333 -110.334 -177.666 -167.001 -276.999c-6.66699 -12 -13.334 -23.333 -20.001 -34s-14 -16.334 -22 -17.001
c-13.333 0 -23.333 2.66699 -30 8s-10 12.666 -10 21.999c-0.666992 11.333 5.66602 23.666 18.999 36.999l114 188l115 174l99 146l55 72c29.333 34.667 51.333 52 66 52c8.66699 0 15.834 -3.83301 21.501 -11.5s8.5 -14.5 8.5 -20.5zM547 280.004
c0 -7.33301 -5.00098 -18.666 -15.001 -33.999l-30 -45l-21 -39l14 1c10 0 17.167 -1.66699 21.5 -5s5.5 -9 3.5 -17c-2 -8.66699 -7 -14.334 -15 -17.001s-22.333 -4 -43 -4c-16 -27.333 -29.333 -58.333 -40 -93c-6 -18.667 -13.667 -28 -23 -28
c-14.667 0 -22 7.33301 -22 22c0 12.667 6 32.334 18 59.001l17 35c-11.333 0 -24.666 -2 -39.999 -6s-25.333 -6 -30 -6c-12 0 -18 5.66699 -18 17c0 19.333 27.5 54.166 82.5 104.499s93.5 75.5 115.5 75.5c6.66699 0 12.5 -1.83301 17.5 -5.5s7.5 -8.5 7.5 -14.5z
M479.999 238.004c-28.667 -20 -60 -49.334 -94 -88.001l48 6l23 44c1.33301 2.66699 9 15.334 23 38.001z" />
    <glyph glyph-name="onehalf" unicode="&#xbd;" horiz-adv-x="595" 
d="M557 250c0 -20 -9.66699 -38.6689 -29 -56.002c-5.33301 -5.33301 -42 -33 -110 -83c-25.333 -18.667 -43.333 -34.334 -54 -47.001c9.33301 2.66699 21 5.33398 35 8.00098s25.667 4 35 4c27.333 0 41 -8 41 -24c0 -13.333 -4.33301 -20 -13 -20
c-0.666992 0 -5 0.666992 -13 2s-16.333 2 -25 2c-11.333 0 -22.666 -1.16699 -33.999 -3.5s-26.333 -6.5 -45 -12.5c-7.33301 -2.66699 -14.333 -4 -21 -4c-17.333 0 -26 7.66699 -26 23c0 8 5 17.667 15 29c19.333 19.333 46.333 42.333 81 69l98 74
c12.667 8.66699 19 19.667 19 33c0 12.667 -8.33301 19 -25 19c-9.33301 0 -20 -4.33301 -32 -13l-37 -26c-14.667 0 -22 4.66699 -22 14c0 10.667 11 23.334 33 38.001c25.333 16.667 50.666 25 75.999 25c16 0 28.833 -5.16699 38.5 -15.5s14.5 -22.166 14.5 -35.499z
M242 669.998c0 -6 -1.66895 -11.665 -5.00195 -16.998c-11.333 -18.667 -30.666 -52.667 -57.999 -102c-30 -54.667 -49.5 -90.834 -58.5 -108.501s-14.167 -27.5 -15.5 -29.5c-6 -8.66699 -11.667 -13 -17 -13c-12.667 0 -19 6 -19 18
c-0.666992 5.33301 1.83301 14.166 7.5 26.499s9.83398 21.833 12.501 28.5c8.66699 17.333 21.667 42 39 74l39 70c-25.333 -15.333 -42.666 -23.333 -51.999 -24c-8.66699 0 -14.334 5 -17.001 15c-1.33301 6 3.66699 12.333 15 19l51 29c12 10 23.333 17.5 34 22.5
s19 7.5 25 7.5c12.667 0 19 -5.33301 19 -16zM532.998 657c0 -4 -23.998 -33.998 -71.998 -89.998s-107 -139 -177 -249c-54.667 -85.333 -110.334 -177.666 -167.001 -276.999c-6.66699 -12 -13.334 -23.333 -20.001 -34s-14 -16.334 -22 -17.001
c-13.333 0 -23.333 2.66699 -30 8s-10 12.666 -10 21.999c-0.666992 11.333 5.66602 23.666 18.999 36.999l114 188l115 174l99 146l55 72c29.333 34.667 51.333 52 66 52c8.66699 0 15.834 -3.83301 21.501 -11.5s8.5 -14.5 8.5 -20.5z" />
    <glyph glyph-name="threequarters" unicode="&#xbe;" horiz-adv-x="595" 
d="M254 638c0 -24.667 -17.3301 -46.6689 -51.9971 -66.002c14.667 -10.667 22 -26 22 -46c0 -30 -14 -59.333 -42 -88s-55.667 -43 -83 -43c-15.333 0 -28.666 5 -39.999 15s-17 24.333 -17 43c0 10.667 2.5 19.5 7.5 26.5s13.167 10.5 24.5 10.5
c7.33301 0 12 -1.66699 14 -5s3 -8.33301 3 -15c0 -12 0.666992 -20.333 2 -25s7.33301 -7 18 -7c17.333 0 34.666 12.333 51.999 37s23.666 43.667 18.999 57c-4.66699 14.667 -11.334 21.334 -20.001 20.001l-25 -4c-3.33301 0 -6.66602 2.33301 -9.99902 7s-5 9 -5 13
c0 7.33301 7.33301 14.333 22 21c18 6.66699 30 11.334 36 14.001c17.333 10 26 20.333 26 31c1.33301 7.33301 -3.66699 11 -15 11c-6 0 -16.333 -3.83301 -31 -11.5s-24 -11.5 -28 -11.5c-10.667 0 -16 4 -16 12c0 9.33301 9.66699 19.833 29 31.5
s38.666 17.5 57.999 17.5c14 0 25.667 -4 35 -12s14.666 -19 15.999 -33zM533.003 656.998c0 -4 -23.998 -33.998 -71.998 -89.998s-107 -139 -177 -249c-54.667 -85.333 -110.334 -177.666 -167.001 -276.999c-6.66699 -12 -13.334 -23.333 -20.001 -34
s-14 -16.334 -22 -17.001c-13.333 0 -23.333 2.66699 -30 8s-10 12.666 -10 21.999c-0.666992 11.333 5.66602 23.666 18.999 36.999l114 188l115 174l99 146l55 72c29.333 34.667 51.333 52 66 52c8.66699 0 15.834 -3.83301 21.501 -11.5s8.5 -14.5 8.5 -20.5z
M537.005 275c0 -7.33301 -5.00098 -18.666 -15.001 -33.999l-30 -45l-21 -39l14 1c10 0 17.167 -1.66699 21.5 -5s5.5 -9 3.5 -17c-2 -8.66699 -7 -14.334 -15 -17.001s-22.333 -4 -43 -4c-16 -27.333 -29.333 -58.333 -40 -93c-6 -18.667 -13.667 -28 -23 -28
c-14.667 0 -22 7.33301 -22 22c0 12.667 6 32.334 18 59.001l17 35c-11.333 0 -24.666 -2 -39.999 -6s-25.333 -6 -30 -6c-12 0 -18 5.66699 -18 17c0 19.333 27.5 54.166 82.5 104.499s93.5 75.5 115.5 75.5c6.66699 0 12.5 -1.83301 17.5 -5.5s7.5 -8.5 7.5 -14.5z
M470.004 233c-28.667 -20 -60 -49.334 -94 -88.001l48 6l23 44c1.33301 2.66699 9 15.334 23 38.001z" />
    <glyph glyph-name="questiondown" unicode="&#xbf;" horiz-adv-x="386" 
d="M24 -73c0 40.667 21.668 81.999 65.001 123.999c6 6 50 41 132 105c53.333 42 86.666 78 99.999 108c10.667 22 20.667 39 30 51c14 18.667 27.667 28 41 28s20 -7.33301 20 -22c0 -22 -11 -49 -33 -81c-18.667 -27.333 -45.667 -58.666 -81 -93.999l-132 -95
c-62.667 -46.667 -94 -89 -94 -127c0 -14 4.16699 -25.167 12.5 -33.5s21.833 -12.5 40.5 -12.5c35.333 0 70.333 13.333 105 40l107 89c5.33301 0 10 -1.83301 14 -5.5s6 -9.5 6 -17.5c0 -26 -27 -58.167 -81 -96.5s-101.333 -57.5 -142 -57.5
c-32.667 0 -59.167 8.83301 -79.5 26.5s-30.5 41.167 -30.5 70.5zM384.001 482.999c0 20.667 5 38.832 15 54.499s22.667 23.5 38 23.5s23 -10.333 23 -31c0 -13.333 -5.5 -30.166 -16.5 -50.499s-21.833 -30.833 -32.5 -31.5c-18 0 -27 11.667 -27 35z" />
    <glyph glyph-name="Agrave" unicode="&#xc0;" 
d="M528 679c-2.66699 -24.667 -18.667 -80 -48 -166c-20 -58 -33 -97.667 -39 -119l26 4c28 0 42 -7.66699 42 -23c0 -10 -7 -18.5 -21 -25.5s-35 -10.5 -63 -10.5c-24 -90 -39.667 -170.333 -47 -241s-18 -106 -32 -106c-12 0 -20.5 6.16699 -25.5 18.5
s-7.5 30.5 -7.5 54.5c0 28 3.66699 62 11 102c3.33301 19.333 16 74 38 164l-197 -55c-40.667 -62.667 -78.167 -125.667 -112.5 -189s-62.166 -95 -83.499 -95c-10 0 -15 5.66699 -15 17c0 22 22.667 70 68 144l57 91c-20.667 -8.66699 -36.834 -15.167 -48.501 -19.5
s-21.167 -6.5 -28.5 -6.5c-12 -1.33301 -18 4.66699 -18 18c0 16 20.333 32.333 61 49l97 38c60.667 92 128 179.333 202 262c77.333 86.667 129.333 130 156 130c18.667 0 28 -12 28 -36zM449 614c-24.667 -14 -64.667 -54.667 -120 -122
c-48 -58 -84.333 -106.667 -109 -146l158 40c4.66699 21.333 22 74.333 52 159c12.667 35.333 19 58.333 19 69zM506 761c0 -9.33301 -5.66504 -14.002 -16.998 -14.002c-12.667 0 -29.667 14.667 -51 44c-16.667 22.667 -30.334 40.334 -41.001 53.001
c-7.33301 6.66699 -11 14 -11 22s2.66699 13.833 8 17.5s10.333 5.5 15 5.5c7.33301 0 13.666 -4.66699 18.999 -14c0.666992 -1.33301 20 -26.666 58 -75.999c13.333 -17.333 20 -30 20 -38z" />
    <glyph glyph-name="Aacute" unicode="&#xc1;" 
d="M528 679c-2.66699 -24.667 -18.667 -80 -48 -166c-20 -58 -33 -97.667 -39 -119l26 4c28 0 42 -7.66699 42 -23c0 -10 -7 -18.5 -21 -25.5s-35 -10.5 -63 -10.5c-24 -90 -39.667 -170.333 -47 -241s-18 -106 -32 -106c-12 0 -20.5 6.16699 -25.5 18.5
s-7.5 30.5 -7.5 54.5c0 28 3.66699 62 11 102c3.33301 19.333 16 74 38 164l-197 -55c-40.667 -62.667 -78.167 -125.667 -112.5 -189s-62.166 -95 -83.499 -95c-10 0 -15 5.66699 -15 17c0 22 22.667 70 68 144l57 91c-20.667 -8.66699 -36.834 -15.167 -48.501 -19.5
s-21.167 -6.5 -28.5 -6.5c-12 -1.33301 -18 4.66699 -18 18c0 16 20.333 32.333 61 49l97 38c60.667 92 128 179.333 202 262c77.333 86.667 129.333 130 156 130c18.667 0 28 -12 28 -36zM449 614c-24.667 -14 -64.667 -54.667 -120 -122
c-48 -58 -84.333 -106.667 -109 -146l158 40c4.66699 21.333 22 74.333 52 159c12.667 35.333 19 58.333 19 69zM631 855c0 -6 -2.33203 -12.333 -6.99902 -19c-28.667 -36.667 -47.334 -60 -56.001 -70c-20.667 -22.667 -36.667 -34 -48 -34c-10.667 0 -16 5 -16 15
c0 16.667 14.667 41.667 44 75s50 50 62 50c14 0 21 -5.66699 21 -17z" />
    <glyph glyph-name="Acircumflex" unicode="&#xc2;" 
d="M528 679c-2.66699 -24.667 -18.667 -80 -48 -166c-20 -58 -33 -97.667 -39 -119l26 4c28 0 42 -7.66699 42 -23c0 -10 -7 -18.5 -21 -25.5s-35 -10.5 -63 -10.5c-24 -90 -39.667 -170.333 -47 -241s-18 -106 -32 -106c-12 0 -20.5 6.16699 -25.5 18.5
s-7.5 30.5 -7.5 54.5c0 28 3.66699 62 11 102c3.33301 19.333 16 74 38 164l-197 -55c-40.667 -62.667 -78.167 -125.667 -112.5 -189s-62.166 -95 -83.499 -95c-10 0 -15 5.66699 -15 17c0 22 22.667 70 68 144l57 91c-20.667 -8.66699 -36.834 -15.167 -48.501 -19.5
s-21.167 -6.5 -28.5 -6.5c-12 -1.33301 -18 4.66699 -18 18c0 16 20.333 32.333 61 49l97 38c60.667 92 128 179.333 202 262c77.333 86.667 129.333 130 156 130c18.667 0 28 -12 28 -36zM449 614c-24.667 -14 -64.667 -54.667 -120 -122
c-48 -58 -84.333 -106.667 -109 -146l158 40c4.66699 21.333 22 74.333 52 159c12.667 35.333 19 58.333 19 69zM606 758c0 -14.667 -7.66895 -21.999 -23.002 -21.999c-7.33301 0 -17.5 8 -30.5 24s-22.5 25 -28.5 27c-1.33301 0 -12.666 -5.66699 -33.999 -17
c-11.333 -6 -20 -9 -26 -9c-13.333 0 -20 5.33301 -20 16c0 12.667 8.66699 26 26 40c20.667 16.667 44 25 70 25c10.667 0 24.334 -10.333 41.001 -31s25 -38.334 25 -53.001z" />
    <glyph glyph-name="Atilde" unicode="&#xc3;" 
d="M528 679c-2.66699 -24.667 -18.667 -80 -48 -166c-20 -58 -33 -97.667 -39 -119l26 4c28 0 42 -7.66699 42 -23c0 -10 -7 -18.5 -21 -25.5s-35 -10.5 -63 -10.5c-24 -90 -39.667 -170.333 -47 -241s-18 -106 -32 -106c-12 0 -20.5 6.16699 -25.5 18.5
s-7.5 30.5 -7.5 54.5c0 28 3.66699 62 11 102c3.33301 19.333 16 74 38 164l-197 -55c-40.667 -62.667 -78.167 -125.667 -112.5 -189s-62.166 -95 -83.499 -95c-10 0 -15 5.66699 -15 17c0 22 22.667 70 68 144l57 91c-20.667 -8.66699 -36.834 -15.167 -48.501 -19.5
s-21.167 -6.5 -28.5 -6.5c-12 -1.33301 -18 4.66699 -18 18c0 16 20.333 32.333 61 49l97 38c60.667 92 128 179.333 202 262c77.333 86.667 129.333 130 156 130c18.667 0 28 -12 28 -36zM449 614c-24.667 -14 -64.667 -54.667 -120 -122
c-48 -58 -84.333 -106.667 -109 -146l158 40c4.66699 21.333 22 74.333 52 159c12.667 35.333 19 58.333 19 69zM641 813c0 -15.333 -5.66602 -29.502 -16.999 -42.502s-26.333 -19.5 -45 -19.5c-17.333 0 -36 7.66699 -56 23l-42 27c-13.333 8 -23.333 12 -30 12
c-4.66699 0 -9.5 -5.5 -14.5 -16.5s-11.167 -16.5 -18.5 -16.5c-10 0 -15 6 -15 18c0 16 5.16699 28.5 15.5 37.5s22.166 13.5 35.499 13.5h11c6 -1.33301 12.5 -2.66602 19.5 -3.99902s26.5 -11.666 58.5 -30.999c16 -9.33301 27.667 -14 35 -14
c6 0.666992 15.167 6.16699 27.5 16.5s20.833 15.5 25.5 15.5c6.66699 0 10 -6.33301 10 -19z" />
    <glyph glyph-name="Adieresis" unicode="&#xc4;" 
d="M528 679c-2.66699 -24.667 -18.667 -80 -48 -166c-20 -58 -33 -97.667 -39 -119l26 4c28 0 42 -7.66699 42 -23c0 -10 -7 -18.5 -21 -25.5s-35 -10.5 -63 -10.5c-24 -90 -39.667 -170.333 -47 -241s-18 -106 -32 -106c-12 0 -20.5 6.16699 -25.5 18.5
s-7.5 30.5 -7.5 54.5c0 28 3.66699 62 11 102c3.33301 19.333 16 74 38 164l-197 -55c-40.667 -62.667 -78.167 -125.667 -112.5 -189s-62.166 -95 -83.499 -95c-10 0 -15 5.66699 -15 17c0 22 22.667 70 68 144l57 91c-20.667 -8.66699 -36.834 -15.167 -48.501 -19.5
s-21.167 -6.5 -28.5 -6.5c-12 -1.33301 -18 4.66699 -18 18c0 16 20.333 32.333 61 49l97 38c60.667 92 128 179.333 202 262c77.333 86.667 129.333 130 156 130c18.667 0 28 -12 28 -36zM449 614c-24.667 -14 -64.667 -54.667 -120 -122
c-48 -58 -84.333 -106.667 -109 -146l158 40c4.66699 21.333 22 74.333 52 159c12.667 35.333 19 58.333 19 69zM634 816c0 -12 -8.66699 -27.167 -26 -45.5s-31.666 -27.5 -42.999 -27.5c-13.333 0 -20 7.33301 -20 22c0 15.333 8.66699 31.333 26 48s31.666 25 42.999 25
c13.333 0 20 -7.33301 20 -22zM525 817c0 -12 -8.66699 -27.167 -26 -45.5s-31.666 -27.5 -42.999 -27.5c-13.333 0 -20 7.33301 -20 22c0 15.333 8.66699 31.333 26 48s31.666 25 42.999 25c13.333 0 20 -7.33301 20 -22z" />
    <glyph glyph-name="Aring" unicode="&#xc5;" 
d="M528 679c-2.66699 -24.667 -18.667 -80 -48 -166c-20 -58 -33 -97.667 -39 -119l26 4c28 0 42 -7.66699 42 -23c0 -10 -7 -18.5 -21 -25.5s-35 -10.5 -63 -10.5c-24 -90 -39.667 -170.333 -47 -241s-18 -106 -32 -106c-12 0 -20.5 6.16699 -25.5 18.5
s-7.5 30.5 -7.5 54.5c0 28 3.66699 62 11 102c3.33301 19.333 16 74 38 164l-197 -55c-40.667 -62.667 -78.167 -125.667 -112.5 -189s-62.166 -95 -83.499 -95c-10 0 -15 5.66699 -15 17c0 22 22.667 70 68 144l57 91c-20.667 -8.66699 -36.834 -15.167 -48.501 -19.5
s-21.167 -6.5 -28.5 -6.5c-12 -1.33301 -18 4.66699 -18 18c0 16 20.333 32.333 61 49l97 38c60.667 92 128 179.333 202 262c77.333 86.667 129.333 130 156 130c18.667 0 28 -12 28 -36zM449 614c-24.667 -14 -64.667 -54.667 -120 -122
c-48 -58 -84.333 -106.667 -109 -146l158 40c4.66699 21.333 22 74.333 52 159c12.667 35.333 19 58.333 19 69zM605 801c-14.667 -16 -29.1689 -28.001 -43.502 -36.001s-27.5 -12 -39.5 -12c-21.333 0 -32 10.333 -32 31c0 9.33301 2.16699 19 6.5 29s11.5 21.667 21.5 35
c12.667 16.667 25.834 29.167 39.501 37.5s26.834 12.5 39.501 12.5c11.333 0 20.5 -3.16699 27.5 -9.5s10.5 -15.166 10.5 -26.499c0 -18.667 -10 -39 -30 -61zM572.998 808.999c10 13.333 15 24.666 15 33.999c0 8.66699 -3.66699 13 -11 13c-9.33301 0 -21 -8 -35 -24
c-11.333 -13.333 -17 -24.666 -17 -33.999c0 -8 4 -12 12 -12c6.66699 0 13.167 2.33301 19.5 7s11.833 10 16.5 16z" />
    <glyph glyph-name="AE" unicode="&#xc6;" horiz-adv-x="669" 
d="M881 689c0 -8 -3.66504 -14.6719 -10.998 -20.0049s-19 -8 -35 -8c-34.667 0 -73.167 -2.66699 -115.5 -8l-121.5 -15c6.66699 -2.66699 10 -8 10 -16c0 -13.333 -18.667 -47 -56 -101c-31.333 -44.667 -52.666 -76.667 -63.999 -96l110 15.5
c39.333 5.66699 65.666 8.5 78.999 8.5c9.33301 0 16.166 -1.66699 20.499 -5s6.5 -7.66602 6.5 -12.999c-1.33301 -8.66699 -6.33301 -17 -15 -25s-18 -12 -28 -12l-204 -24c-14 -24 -34.333 -64.333 -61 -121s-51 -110.667 -73 -162c39.333 12.667 81 24.667 125 36
c57.333 14.667 98 22 122 22c16 0 27 -2.66699 33 -8s9 -11.666 9 -18.999c0 -14.667 -49.333 -30.667 -148 -48c-55.333 -10 -92 -20.333 -110 -31c-27.333 -14.667 -49.333 -22 -66 -22c-20.667 0 -31 10.333 -31 31c0 25.333 15.667 73 47 143
c26 58 53.333 112.333 82 163c-30.667 -3.33301 -61.667 -8 -93 -14l-88 -17l-229 -284c-5.33301 -8 -11 -13.833 -17 -17.5s-12.333 -5.5 -19 -5.5c-14.667 0 -22 8.66699 -22 26c0 15.333 14.333 41.333 43 78c16.667 22 46.167 56.833 88.5 104.5
s67.833 77.834 76.5 90.501c-11.333 0 -24.333 -0.666992 -39 -2s-23.667 -2 -27 -2c-14 0 -21 6.66699 -21 20c0 18.667 13.667 29 41 31c63.333 4.66699 97 7.33398 101 8.00098l77 69c4 3.33301 35.333 32 94 86l89 81c-18.667 9.33301 -28 17.333 -28 24
c-2.66699 22.667 75 44.334 233 65.001l181 22c16 2 28.667 0.166992 38 -5.5s14.666 -13.167 15.999 -22.5zM543.002 613.995c-15.333 -13.333 -42.499 -33.998 -81.499 -61.998s-70.167 -52 -93.5 -72c-36.667 -30.667 -67.334 -62 -92.001 -94
c46 6.66699 72.333 10.667 79 12c25.333 5.33301 46 11.666 62 18.999c11.333 19.333 41.333 65.666 90 138.999c19.333 28.667 31.333 48 36 58z" />
    <glyph glyph-name="Ccedilla" unicode="&#xc7;" horiz-adv-x="441" 
d="M519 617c0 -32 -10.8311 -67.165 -32.498 -105.498s-49.834 -74.833 -84.501 -109.5c-6.66699 -6.66699 -13 -11.334 -19 -14.001s-12.333 -4 -19 -4c-18 0 -27 8.33301 -27 25c0 6.66699 2 13.334 6 20.001s10.333 13.334 19 20.001c38.667 29.333 69 61.333 91 96
c19.333 30 29 56 29 78s-9.66699 33 -29 33c-28.667 0 -67 -23.333 -115 -70c-37.333 -36.667 -78.333 -85.334 -123 -146.001c-39.333 -54 -66.333 -95.667 -81 -125c-20.667 -40 -36.167 -77 -46.5 -111s-15.5 -63 -15.5 -87c0 -28.667 6 -50.667 18 -66s28 -23 48 -23
c32 0 67 14.667 105 44c42 32.667 81.667 79.667 119 141c6.66699 8.66699 13.667 15.667 21 21s13.666 8 18.999 8c4 0 6 -2.33301 6 -7c0 -6.66699 -2 -14 -6 -22c-40 -74.667 -87.667 -133.334 -143 -176.001c-50.667 -39.333 -98.667 -59 -144 -59
c-33.333 0 -60 10.333 -80 31s-30 51.667 -30 93c0 30.667 5.83301 64.667 17.5 102s30.5 79.666 56.5 126.999c38 79.333 93.667 158.333 167 237c82 87.333 149 131 201 131c20 0 37 -8 51 -24s21 -35.333 21 -58zM143.002 -14.998
c-12 -12 -20.334 -21.998 -25.001 -29.998s-7 -16.333 -7 -25c16.667 -8.66699 25 -21.334 25 -38.001c0 -21.333 -11.167 -44.833 -33.5 -70.5s-40.166 -38.5 -53.499 -38.5c-5.33301 0 -8 1.66699 -8 5c0 6 9 18 27 36s27.333 30.333 28 37
c1.33301 10.667 -6.16699 18.167 -22.5 22.5s-24.5 9.16602 -24.5 14.499c0 6 11.333 21.333 34 46c16 17.333 28 31 36 41h24z" />
    <glyph glyph-name="Egrave" unicode="&#xc8;" horiz-adv-x="417" 
d="M624 694c0 -16.667 -16.665 -26.9961 -49.998 -30.9961c-12 -1.33301 -27.333 -2 -46 -2c-22.667 0 -56.5 -2.66699 -101.5 -8s-74.167 -10.333 -87.5 -15c9.33301 0 14 -2.66699 14 -8c0 -6 -20 -37 -60 -93c-28 -38.667 -52.333 -76 -73 -112l174 24
c28 0 42 -7.33301 42 -22c0 -8.66699 -7.66699 -16.334 -23 -23.001s-37.666 -10 -66.999 -10s-59.333 -3 -90 -9c-32 -7.33301 -54.333 -12.333 -67 -15c-40 -78.667 -67 -133 -81 -163c-22.667 -50 -37.667 -87.667 -45 -113c24.667 12.667 59.167 25.167 103.5 37.5
s78.166 18.5 101.499 18.5c20.667 0 36.5 -1.5 47.5 -4.5s16.5 -10.833 16.5 -23.5c0 -6.66699 -0.333008 -10.667 -1 -12c-3.33301 -7.33301 -34 -14 -92 -20c-38.667 -4 -76.334 -15.667 -113.001 -35c-42.667 -19.333 -77.334 -29 -104.001 -29c-24 0 -36 9.66699 -36 29
c0 4 2 12 6 24c24.667 66.667 54.834 136.667 90.501 210s71.167 137 106.5 191l70 104c10.667 17.333 18.667 32.666 24 45.999c-5.33301 0 -10.333 2.66699 -15 8s-7 10 -7 14c0 7.33301 4.66699 14.666 14 21.999s25.333 13.666 48 18.999
c32.667 6 74.167 11.833 124.5 17.5s91.166 8.5 122.499 8.5c24 0 40 -3 48 -9c5.33301 -4 7.33301 -9.33301 6 -16zM486.002 766.004c0 -9.33301 -5.66504 -14.002 -16.998 -14.002c-12.667 0 -29.667 14.667 -51 44c-16.667 22.667 -30.334 40.334 -41.001 53.001
c-7.33301 6.66699 -11 14 -11 22s2.66699 13.833 8 17.5s10.333 5.5 15 5.5c7.33301 0 13.666 -4.66699 18.999 -14c0.666992 -1.33301 20 -26.666 58 -75.999c13.333 -17.333 20 -30 20 -38z" />
    <glyph glyph-name="Eacute" unicode="&#xc9;" horiz-adv-x="417" 
d="M624 694c0 -16.667 -16.665 -26.9961 -49.998 -30.9961c-12 -1.33301 -27.333 -2 -46 -2c-22.667 0 -56.5 -2.66699 -101.5 -8s-74.167 -10.333 -87.5 -15c9.33301 0 14 -2.66699 14 -8c0 -6 -20 -37 -60 -93c-28 -38.667 -52.333 -76 -73 -112l174 24
c28 0 42 -7.33301 42 -22c0 -8.66699 -7.66699 -16.334 -23 -23.001s-37.666 -10 -66.999 -10s-59.333 -3 -90 -9c-32 -7.33301 -54.333 -12.333 -67 -15c-40 -78.667 -67 -133 -81 -163c-22.667 -50 -37.667 -87.667 -45 -113c24.667 12.667 59.167 25.167 103.5 37.5
s78.166 18.5 101.499 18.5c20.667 0 36.5 -1.5 47.5 -4.5s16.5 -10.833 16.5 -23.5c0 -6.66699 -0.333008 -10.667 -1 -12c-3.33301 -7.33301 -34 -14 -92 -20c-38.667 -4 -76.334 -15.667 -113.001 -35c-42.667 -19.333 -77.334 -29 -104.001 -29c-24 0 -36 9.66699 -36 29
c0 4 2 12 6 24c24.667 66.667 54.834 136.667 90.501 210s71.167 137 106.5 191l70 104c10.667 17.333 18.667 32.666 24 45.999c-5.33301 0 -10.333 2.66699 -15 8s-7 10 -7 14c0 7.33301 4.66699 14.666 14 21.999s25.333 13.666 48 18.999
c32.667 6 74.167 11.833 124.5 17.5s91.166 8.5 122.499 8.5c24 0 40 -3 48 -9c5.33301 -4 7.33301 -9.33301 6 -16zM581.002 880.004c0 -6 -2.33203 -12.333 -6.99902 -19c-28.667 -36.667 -47.334 -60 -56.001 -70c-20.667 -22.667 -36.667 -34 -48 -34
c-10.667 0 -16 5 -16 15c0 16.667 14.667 41.667 44 75s50 50 62 50c14 0 21 -5.66699 21 -17z" />
    <glyph glyph-name="Ecircumflex" unicode="&#xca;" horiz-adv-x="417" 
d="M624 694c0 -16.667 -16.665 -26.9961 -49.998 -30.9961c-12 -1.33301 -27.333 -2 -46 -2c-22.667 0 -56.5 -2.66699 -101.5 -8s-74.167 -10.333 -87.5 -15c9.33301 0 14 -2.66699 14 -8c0 -6 -20 -37 -60 -93c-28 -38.667 -52.333 -76 -73 -112l174 24
c28 0 42 -7.33301 42 -22c0 -8.66699 -7.66699 -16.334 -23 -23.001s-37.666 -10 -66.999 -10s-59.333 -3 -90 -9c-32 -7.33301 -54.333 -12.333 -67 -15c-40 -78.667 -67 -133 -81 -163c-22.667 -50 -37.667 -87.667 -45 -113c24.667 12.667 59.167 25.167 103.5 37.5
s78.166 18.5 101.499 18.5c20.667 0 36.5 -1.5 47.5 -4.5s16.5 -10.833 16.5 -23.5c0 -6.66699 -0.333008 -10.667 -1 -12c-3.33301 -7.33301 -34 -14 -92 -20c-38.667 -4 -76.334 -15.667 -113.001 -35c-42.667 -19.333 -77.334 -29 -104.001 -29c-24 0 -36 9.66699 -36 29
c0 4 2 12 6 24c24.667 66.667 54.834 136.667 90.501 210s71.167 137 106.5 191l70 104c10.667 17.333 18.667 32.666 24 45.999c-5.33301 0 -10.333 2.66699 -15 8s-7 10 -7 14c0 7.33301 4.66699 14.666 14 21.999s25.333 13.666 48 18.999
c32.667 6 74.167 11.833 124.5 17.5s91.166 8.5 122.499 8.5c24 0 40 -3 48 -9c5.33301 -4 7.33301 -9.33301 6 -16zM546.002 788.004c0 -14.667 -7.66895 -21.999 -23.002 -21.999c-7.33301 0 -17.5 8 -30.5 24s-22.5 25 -28.5 27c-1.33301 0 -12.666 -5.66699 -33.999 -17
c-11.333 -6 -20 -9 -26 -9c-13.333 0 -20 5.33301 -20 16c0 12.667 8.66699 26 26 40c20.667 16.667 44 25 70 25c10.667 0 24.334 -10.333 41.001 -31s25 -38.334 25 -53.001z" />
    <glyph glyph-name="Edieresis" unicode="&#xcb;" horiz-adv-x="417" 
d="M624 694c0 -16.667 -16.665 -26.9961 -49.998 -30.9961c-12 -1.33301 -27.333 -2 -46 -2c-22.667 0 -56.5 -2.66699 -101.5 -8s-74.167 -10.333 -87.5 -15c9.33301 0 14 -2.66699 14 -8c0 -6 -20 -37 -60 -93c-28 -38.667 -52.333 -76 -73 -112l174 24
c28 0 42 -7.33301 42 -22c0 -8.66699 -7.66699 -16.334 -23 -23.001s-37.666 -10 -66.999 -10s-59.333 -3 -90 -9c-32 -7.33301 -54.333 -12.333 -67 -15c-40 -78.667 -67 -133 -81 -163c-22.667 -50 -37.667 -87.667 -45 -113c24.667 12.667 59.167 25.167 103.5 37.5
s78.166 18.5 101.499 18.5c20.667 0 36.5 -1.5 47.5 -4.5s16.5 -10.833 16.5 -23.5c0 -6.66699 -0.333008 -10.667 -1 -12c-3.33301 -7.33301 -34 -14 -92 -20c-38.667 -4 -76.334 -15.667 -113.001 -35c-42.667 -19.333 -77.334 -29 -104.001 -29c-24 0 -36 9.66699 -36 29
c0 4 2 12 6 24c24.667 66.667 54.834 136.667 90.501 210s71.167 137 106.5 191l70 104c10.667 17.333 18.667 32.666 24 45.999c-5.33301 0 -10.333 2.66699 -15 8s-7 10 -7 14c0 7.33301 4.66699 14.666 14 21.999s25.333 13.666 48 18.999
c32.667 6 74.167 11.833 124.5 17.5s91.166 8.5 122.499 8.5c24 0 40 -3 48 -9c5.33301 -4 7.33301 -9.33301 6 -16zM594.002 831.004c0 -12 -8.66699 -27.167 -26 -45.5s-31.666 -27.5 -42.999 -27.5c-13.333 0 -20 7.33301 -20 22c0 15.333 8.66699 31.333 26 48
s31.666 25 42.999 25c13.333 0 20 -7.33301 20 -22zM485.002 832.004c0 -12 -8.66699 -27.167 -26 -45.5s-31.666 -27.5 -42.999 -27.5c-13.333 0 -20 7.33301 -20 22c0 15.333 8.66699 31.333 26 48s31.666 25 42.999 25c13.333 0 20 -7.33301 20 -22z" />
    <glyph glyph-name="Igrave" unicode="&#xcc;" horiz-adv-x="236" 
d="M389 672c0 -8 -2.5 -17.167 -7.5 -27.5s-11.5 -20.5 -19.5 -30.5c-50.667 -69.333 -101.667 -146.333 -153 -231c-62 -101.333 -105.333 -184.333 -130 -249c-8 -20 -14.333 -44.667 -19 -74s-16.667 -44 -36 -44c-18.667 0 -28 10 -28 30l4 25
c0 30.667 16 79.334 48 146.001c24 49.333 59.333 112.666 106 189.999l106 168c17.333 30.667 35.833 58 55.5 82s35.167 36 46.5 36c18 0 27 -7 27 -21zM361 746c0 -9.33301 -5.66504 -14.002 -16.998 -14.002c-12.667 0 -29.667 14.667 -51 44
c-16.667 22.667 -30.334 40.334 -41.001 53.001c-7.33301 6.66699 -11 14 -11 22s2.66699 13.833 8 17.5s10.333 5.5 15 5.5c7.33301 0 13.666 -4.66699 18.999 -14c0.666992 -1.33301 20 -26.666 58 -75.999c13.333 -17.333 20 -30 20 -38z" />
    <glyph glyph-name="Iacute" unicode="&#xcd;" horiz-adv-x="236" 
d="M389 672c0 -8 -2.5 -17.167 -7.5 -27.5s-11.5 -20.5 -19.5 -30.5c-50.667 -69.333 -101.667 -146.333 -153 -231c-62 -101.333 -105.333 -184.333 -130 -249c-8 -20 -14.333 -44.667 -19 -74s-16.667 -44 -36 -44c-18.667 0 -28 10 -28 30l4 25
c0 30.667 16 79.334 48 146.001c24 49.333 59.333 112.666 106 189.999l106 168c17.333 30.667 35.833 58 55.5 82s35.167 36 46.5 36c18 0 27 -7 27 -21zM501 845c0 -6 -2.33203 -12.333 -6.99902 -19c-28.667 -36.667 -47.334 -60 -56.001 -70
c-20.667 -22.667 -36.667 -34 -48 -34c-10.667 0 -16 5 -16 15c0 16.667 14.667 41.667 44 75s50 50 62 50c14 0 21 -5.66699 21 -17z" />
    <glyph glyph-name="Icircumflex" unicode="&#xce;" horiz-adv-x="236" 
d="M389 672c0 -8 -2.5 -17.167 -7.5 -27.5s-11.5 -20.5 -19.5 -30.5c-50.667 -69.333 -101.667 -146.333 -153 -231c-62 -101.333 -105.333 -184.333 -130 -249c-8 -20 -14.333 -44.667 -19 -74s-16.667 -44 -36 -44c-18.667 0 -28 10 -28 30l4 25
c0 30.667 16 79.334 48 146.001c24 49.333 59.333 112.666 106 189.999l106 168c17.333 30.667 35.833 58 55.5 82s35.167 36 46.5 36c18 0 27 -7 27 -21zM466 728c0 -14.667 -7.66895 -21.999 -23.002 -21.999c-7.33301 0 -17.5 8 -30.5 24s-22.5 25 -28.5 27
c-1.33301 0 -12.666 -5.66699 -33.999 -17c-11.333 -6 -20 -9 -26 -9c-13.333 0 -20 5.33301 -20 16c0 12.667 8.66699 26 26 40c20.667 16.667 44 25 70 25c10.667 0 24.334 -10.333 41.001 -31s25 -38.334 25 -53.001z" />
    <glyph glyph-name="Idieresis" unicode="&#xcf;" horiz-adv-x="236" 
d="M389 672c0 -8 -2.5 -17.167 -7.5 -27.5s-11.5 -20.5 -19.5 -30.5c-50.667 -69.333 -101.667 -146.333 -153 -231c-62 -101.333 -105.333 -184.333 -130 -249c-8 -20 -14.333 -44.667 -19 -74s-16.667 -44 -36 -44c-18.667 0 -28 10 -28 30l4 25
c0 30.667 16 79.334 48 146.001c24 49.333 59.333 112.666 106 189.999l106 168c17.333 30.667 35.833 58 55.5 82s35.167 36 46.5 36c18 0 27 -7 27 -21zM494 791c0 -12 -8.66699 -27.167 -26 -45.5s-31.666 -27.5 -42.999 -27.5c-13.333 0 -20 7.33301 -20 22
c0 15.333 8.66699 31.333 26 48s31.666 25 42.999 25c13.333 0 20 -7.33301 20 -22zM385 792c0 -12 -8.66699 -27.167 -26 -45.5s-31.666 -27.5 -42.999 -27.5c-13.333 0 -20 7.33301 -20 22c0 15.333 8.66699 31.333 26 48s31.666 25 42.999 25
c13.333 0 20 -7.33301 20 -22z" />
    <glyph glyph-name="Ntilde" unicode="&#xd1;" horiz-adv-x="528" 
d="M667 703c0 -9.33301 -13.333 -37.3301 -40 -83.9971l-85 -144c-37.333 -63.333 -63 -108.666 -77 -135.999c-16 -30 -33 -67.333 -51 -112l-68 -172c-8.66699 -17.333 -18.834 -31.5 -30.501 -42.5s-22.834 -16.5 -33.501 -16.5c-8.66699 0 -15.834 4.66699 -21.501 14
s-8.5 24.333 -8.5 45c0 76 7.5 157.167 22.5 243.5s31.167 173.166 48.5 260.499c-57.333 -88.667 -107.666 -172 -150.999 -250c-45.333 -82 -79 -151 -101 -207l-24 -65c-14.667 -35.333 -30.334 -53 -47.001 -53c-12 2 -18 10.333 -18 25c0 23.333 13.667 64 41 122
l32 66c36.667 73.333 85.334 158.666 146.001 255.999c63.333 101.333 111.666 170.666 144.999 207.999c18 20.667 33.333 31 46 31c14 0 21 -7.33301 21 -22c0 -6 -1.33301 -11.333 -4 -16c-27.333 -58.667 -50.666 -152 -69.999 -280c-16 -106.667 -24 -192 -24 -256
c6.66699 15.333 22.334 49.333 47.001 102c20.667 43.333 36.334 77.666 47.001 102.999l54 112c18.667 38 39.5 78 62.5 120s45.167 80.5 66.5 115.5s41 52.5 59 52.5c10.667 0.666992 16 -6 16 -20zM641 803.003c0 -15.333 -5.66602 -29.502 -16.999 -42.502
s-26.333 -19.5 -45 -19.5c-17.333 0 -36 7.66699 -56 23l-42 27c-13.333 8 -23.333 12 -30 12c-4.66699 0 -9.5 -5.5 -14.5 -16.5s-11.167 -16.5 -18.5 -16.5c-10 0 -15 6 -15 18c0 16 5.16699 28.5 15.5 37.5s22.166 13.5 35.499 13.5h11
c6 -1.33301 12.5 -2.66602 19.5 -3.99902s26.5 -11.666 58.5 -30.999c16 -9.33301 27.667 -14 35 -14c6 0.666992 15.167 6.16699 27.5 16.5s20.833 15.5 25.5 15.5c6.66699 0 10 -6.33301 10 -19z" />
    <glyph glyph-name="Ograve" unicode="&#xd2;" 
d="M544 550c0 -67.333 -28.334 -147 -85.001 -239c-51.333 -83.333 -113.5 -157.333 -186.5 -222s-132.167 -97 -177.5 -97c-26.667 0 -48 9.83301 -64 29.5s-24 51.167 -24 94.5c0 74.667 37.333 167.334 112 278.001c68 100.667 141.333 182 220 244
c-12.667 0 -27.667 -4 -45 -12c-41.333 -18.667 -63.666 -28 -66.999 -28c-4.66699 0 -8.66699 1.66699 -12 5s-5 7.66602 -5 12.999c0 18 20 35.667 60 53s81.667 26 125 26c48 0 84.833 -12.5 110.5 -37.5s38.5 -60.833 38.5 -107.5zM482.999 557
c0 25.333 -5.00098 44.999 -15.001 58.999c-12.667 18 -33.667 27 -63 27c-9.33301 0 -16.833 -0.666992 -22.5 -2l-12.5 -3c7.33301 -1.33301 10.333 -4.66602 9 -9.99902c0 -10 -13.667 -29.333 -41 -58l-70 -74c-56 -61.333 -102.333 -128.5 -139 -201.5
s-55 -132.167 -55 -177.5c0 -41.333 14.667 -62 44 -62c26.667 0 69.334 28.667 128.001 86c61.333 60 114.333 126.333 159 199c52 84.667 78 157 78 217zM410.998 735.999c0 -9.33301 -5.66504 -14.002 -16.998 -14.002c-12.667 0 -29.667 14.667 -51 44
c-16.667 22.667 -30.334 40.334 -41.001 53.001c-7.33301 6.66699 -11 14 -11 22s2.66699 13.833 8 17.5s10.333 5.5 15 5.5c7.33301 0 13.666 -4.66699 18.999 -14c0.666992 -1.33301 20 -26.666 58 -75.999c13.333 -17.333 20 -30 20 -38z" />
    <glyph glyph-name="Oacute" unicode="&#xd3;" 
d="M544 550c0 -67.333 -28.334 -147 -85.001 -239c-51.333 -83.333 -113.5 -157.333 -186.5 -222s-132.167 -97 -177.5 -97c-26.667 0 -48 9.83301 -64 29.5s-24 51.167 -24 94.5c0 74.667 37.333 167.334 112 278.001c68 100.667 141.333 182 220 244
c-12.667 0 -27.667 -4 -45 -12c-41.333 -18.667 -63.666 -28 -66.999 -28c-4.66699 0 -8.66699 1.66699 -12 5s-5 7.66602 -5 12.999c0 18 20 35.667 60 53s81.667 26 125 26c48 0 84.833 -12.5 110.5 -37.5s38.5 -60.833 38.5 -107.5zM482.999 557
c0 25.333 -5.00098 44.999 -15.001 58.999c-12.667 18 -33.667 27 -63 27c-9.33301 0 -16.833 -0.666992 -22.5 -2l-12.5 -3c7.33301 -1.33301 10.333 -4.66602 9 -9.99902c0 -10 -13.667 -29.333 -41 -58l-70 -74c-56 -61.333 -102.333 -128.5 -139 -201.5
s-55 -132.167 -55 -177.5c0 -41.333 14.667 -62 44 -62c26.667 0 69.334 28.667 128.001 86c61.333 60 114.333 126.333 159 199c52 84.667 78 157 78 217zM545.998 844.999c0 -6 -2.33203 -12.333 -6.99902 -19c-28.667 -36.667 -47.334 -60 -56.001 -70
c-20.667 -22.667 -36.667 -34 -48 -34c-10.667 0 -16 5 -16 15c0 16.667 14.667 41.667 44 75s50 50 62 50c14 0 21 -5.66699 21 -17z" />
    <glyph glyph-name="Ocircumflex" unicode="&#xd4;" 
d="M544 550c0 -67.333 -28.334 -147 -85.001 -239c-51.333 -83.333 -113.5 -157.333 -186.5 -222s-132.167 -97 -177.5 -97c-26.667 0 -48 9.83301 -64 29.5s-24 51.167 -24 94.5c0 74.667 37.333 167.334 112 278.001c68 100.667 141.333 182 220 244
c-12.667 0 -27.667 -4 -45 -12c-41.333 -18.667 -63.666 -28 -66.999 -28c-4.66699 0 -8.66699 1.66699 -12 5s-5 7.66602 -5 12.999c0 18 20 35.667 60 53s81.667 26 125 26c48 0 84.833 -12.5 110.5 -37.5s38.5 -60.833 38.5 -107.5zM482.999 557
c0 25.333 -5.00098 44.999 -15.001 58.999c-12.667 18 -33.667 27 -63 27c-9.33301 0 -16.833 -0.666992 -22.5 -2l-12.5 -3c7.33301 -1.33301 10.333 -4.66602 9 -9.99902c0 -10 -13.667 -29.333 -41 -58l-70 -74c-56 -61.333 -102.333 -128.5 -139 -201.5
s-55 -132.167 -55 -177.5c0 -41.333 14.667 -62 44 -62c26.667 0 69.334 28.667 128.001 86c61.333 60 114.333 126.333 159 199c52 84.667 78 157 78 217zM510.998 747.999c0 -14.667 -7.66895 -21.999 -23.002 -21.999c-7.33301 0 -17.5 8 -30.5 24s-22.5 25 -28.5 27
c-1.33301 0 -12.666 -5.66699 -33.999 -17c-11.333 -6 -20 -9 -26 -9c-13.333 0 -20 5.33301 -20 16c0 12.667 8.66699 26 26 40c20.667 16.667 44 25 70 25c10.667 0 24.334 -10.333 41.001 -31s25 -38.334 25 -53.001z" />
    <glyph glyph-name="Otilde" unicode="&#xd5;" 
d="M544 550c0 -67.333 -28.334 -147 -85.001 -239c-51.333 -83.333 -113.5 -157.333 -186.5 -222s-132.167 -97 -177.5 -97c-26.667 0 -48 9.83301 -64 29.5s-24 51.167 -24 94.5c0 74.667 37.333 167.334 112 278.001c68 100.667 141.333 182 220 244
c-12.667 0 -27.667 -4 -45 -12c-41.333 -18.667 -63.666 -28 -66.999 -28c-4.66699 0 -8.66699 1.66699 -12 5s-5 7.66602 -5 12.999c0 18 20 35.667 60 53s81.667 26 125 26c48 0 84.833 -12.5 110.5 -37.5s38.5 -60.833 38.5 -107.5zM482.999 557
c0 25.333 -5.00098 44.999 -15.001 58.999c-12.667 18 -33.667 27 -63 27c-9.33301 0 -16.833 -0.666992 -22.5 -2l-12.5 -3c7.33301 -1.33301 10.333 -4.66602 9 -9.99902c0 -10 -13.667 -29.333 -41 -58l-70 -74c-56 -61.333 -102.333 -128.5 -139 -201.5
s-55 -132.167 -55 -177.5c0 -41.333 14.667 -62 44 -62c26.667 0 69.334 28.667 128.001 86c61.333 60 114.333 126.333 159 199c52 84.667 78 157 78 217zM550.998 782.999c0 -15.333 -5.66602 -29.502 -16.999 -42.502s-26.333 -19.5 -45 -19.5
c-17.333 0 -36 7.66699 -56 23l-42 27c-13.333 8 -23.333 12 -30 12c-4.66699 0 -9.5 -5.5 -14.5 -16.5s-11.167 -16.5 -18.5 -16.5c-10 0 -15 6 -15 18c0 16 5.16699 28.5 15.5 37.5s22.166 13.5 35.499 13.5h11c6 -1.33301 12.5 -2.66602 19.5 -3.99902
s26.5 -11.666 58.5 -30.999c16 -9.33301 27.667 -14 35 -14c6 0.666992 15.167 6.16699 27.5 16.5s20.833 15.5 25.5 15.5c6.66699 0 10 -6.33301 10 -19z" />
    <glyph glyph-name="Odieresis" unicode="&#xd6;" 
d="M544 550c0 -67.333 -28.334 -147 -85.001 -239c-51.333 -83.333 -113.5 -157.333 -186.5 -222s-132.167 -97 -177.5 -97c-26.667 0 -48 9.83301 -64 29.5s-24 51.167 -24 94.5c0 74.667 37.333 167.334 112 278.001c68 100.667 141.333 182 220 244
c-12.667 0 -27.667 -4 -45 -12c-41.333 -18.667 -63.666 -28 -66.999 -28c-4.66699 0 -8.66699 1.66699 -12 5s-5 7.66602 -5 12.999c0 18 20 35.667 60 53s81.667 26 125 26c48 0 84.833 -12.5 110.5 -37.5s38.5 -60.833 38.5 -107.5zM482.999 557
c0 25.333 -5.00098 44.999 -15.001 58.999c-12.667 18 -33.667 27 -63 27c-9.33301 0 -16.833 -0.666992 -22.5 -2l-12.5 -3c7.33301 -1.33301 10.333 -4.66602 9 -9.99902c0 -10 -13.667 -29.333 -41 -58l-70 -74c-56 -61.333 -102.333 -128.5 -139 -201.5
s-55 -132.167 -55 -177.5c0 -41.333 14.667 -62 44 -62c26.667 0 69.334 28.667 128.001 86c61.333 60 114.333 126.333 159 199c52 84.667 78 157 78 217zM543.998 805.999c0 -12 -8.66699 -27.167 -26 -45.5s-31.666 -27.5 -42.999 -27.5c-13.333 0 -20 7.33301 -20 22
c0 15.333 8.66699 31.333 26 48s31.666 25 42.999 25c13.333 0 20 -7.33301 20 -22zM434.998 806.999c0 -12 -8.66699 -27.167 -26 -45.5s-31.666 -27.5 -42.999 -27.5c-13.333 0 -20 7.33301 -20 22c0 15.333 8.66699 31.333 26 48s31.666 25 42.999 25
c13.333 0 20 -7.33301 20 -22z" />
    <glyph glyph-name="Oslash" unicode="&#xd8;" 
d="M560 669c0 -6 -0.999023 -10.3301 -2.99902 -12.9971c-8 -8.66699 -17.333 -19.334 -28 -32.001c10 -21.333 15 -46 15 -74c0 -67.333 -28.333 -147 -85 -239c-51.333 -83.333 -113.5 -157.333 -186.5 -222s-132.167 -97 -177.5 -97h-16c-5.33301 2 -9 3.33301 -11 4
c-8.66699 -15.333 -17.334 -23.333 -26.001 -24c-13.333 0 -23.333 2.66699 -30 8s-10 12.666 -10 21.999c-0.666992 11.333 5.66602 23.666 18.999 36.999c-9.33301 20 -14 45.667 -14 77c0 74.667 37.333 167.334 112 278.001c68 100.667 141.333 182 220 244
c-12.667 0 -27.667 -4 -45 -12c-41.333 -18.667 -63.666 -28 -66.999 -28c-4.66699 0 -8.66699 1.66699 -12 5s-5 7.66602 -5 12.999c0 18 20 35.667 60 53s81.667 26 125 26c37.333 0 67.666 -7.33301 90.999 -22c8 9.33301 15.5 16.333 22.5 21s14.167 7 21.5 7
c8.66699 0 15.834 -3.83301 21.501 -11.5s8.5 -14.5 8.5 -20.5zM452.001 631.003c-12.667 8 -28.334 11.999 -47.001 11.999c-9.33301 0 -16.833 -0.666992 -22.5 -2l-12.5 -3c7.33301 -1.33301 10.333 -4.66602 9 -9.99902c0 -10 -13.667 -29.333 -41 -58l-70 -74
c-55.333 -60.667 -101.5 -126.5 -138.5 -197.5s-55.5 -129.167 -55.5 -174.5c32 48 74.667 107 128 177l128.5 167.5c53.667 69 87.834 114.167 102.501 135.5zM483.001 557.002l-0.000976562 12.001c-60 -70.667 -125 -152.667 -195 -246
c-78 -104.667 -139.333 -193.334 -184 -266.001l14 -2c26.667 0 69.334 28.667 128.001 86c61.333 60 114.333 126.333 159 199c52 84.667 78 157 78 217z" />
    <glyph glyph-name="Ugrave" unicode="&#xd9;" horiz-adv-x="551" 
d="M661 656c0 -12.667 -5.00391 -24.001 -15.0039 -34.001c-41.333 -45.333 -95.166 -139.166 -161.499 -281.499s-99.5 -236.5 -99.5 -282.5c0 -5.33301 0.333008 -9 1 -11l2 -17c0 -20.667 -8.33301 -31 -25 -31c-10 0 -19.167 4.83301 -27.5 14.5s-12.5 23.5 -12.5 41.5
c0 25.333 8 60.333 24 105c12 32.667 31.333 78 58 136c13.333 29.333 35.666 75 66.999 137l-186 -241c-55.333 -71.333 -95.666 -119.666 -120.999 -144.999c-35.333 -35.333 -67.666 -53 -96.999 -53c-18 0 -32.5 7.5 -43.5 22.5s-16.5 35.833 -16.5 62.5
c0 55.333 23.333 129 70 221c38 74 86.667 152 146 234c52.667 72 93.334 119.667 122.001 143c19.333 14.667 34.333 22 45 22c4 0 7.83301 -1.5 11.5 -4.5s5.16699 -8.5 4.5 -16.5c0 -12.667 -4.33301 -23.334 -13 -32.001c-32.667 -32.667 -74 -84.334 -124 -155.001
c-54 -76 -99.333 -149 -136 -219c-43.333 -82 -65 -142.333 -65 -181c0 -18.667 6 -28 18 -28c20.667 0 65 41.333 133 124l199 256c84.667 110.667 144.334 183.334 179.001 218.001c14 14 27 21 39 21c16 0 24 -8.66699 24 -26zM500.996 730.999
c0 -9.33301 -5.66504 -14.002 -16.998 -14.002c-12.667 0 -29.667 14.667 -51 44c-16.667 22.667 -30.334 40.334 -41.001 53.001c-7.33301 6.66699 -11 14 -11 22s2.66699 13.833 8 17.5s10.333 5.5 15 5.5c7.33301 0 13.666 -4.66699 18.999 -14
c0.666992 -1.33301 20 -26.666 58 -75.999c13.333 -17.333 20 -30 20 -38z" />
    <glyph glyph-name="Uacute" unicode="&#xda;" horiz-adv-x="551" 
d="M661 656c0 -12.667 -5.00391 -24.001 -15.0039 -34.001c-41.333 -45.333 -95.166 -139.166 -161.499 -281.499s-99.5 -236.5 -99.5 -282.5c0 -5.33301 0.333008 -9 1 -11l2 -17c0 -20.667 -8.33301 -31 -25 -31c-10 0 -19.167 4.83301 -27.5 14.5s-12.5 23.5 -12.5 41.5
c0 25.333 8 60.333 24 105c12 32.667 31.333 78 58 136c13.333 29.333 35.666 75 66.999 137l-186 -241c-55.333 -71.333 -95.666 -119.666 -120.999 -144.999c-35.333 -35.333 -67.666 -53 -96.999 -53c-18 0 -32.5 7.5 -43.5 22.5s-16.5 35.833 -16.5 62.5
c0 55.333 23.333 129 70 221c38 74 86.667 152 146 234c52.667 72 93.334 119.667 122.001 143c19.333 14.667 34.333 22 45 22c4 0 7.83301 -1.5 11.5 -4.5s5.16699 -8.5 4.5 -16.5c0 -12.667 -4.33301 -23.334 -13 -32.001c-32.667 -32.667 -74 -84.334 -124 -155.001
c-54 -76 -99.333 -149 -136 -219c-43.333 -82 -65 -142.333 -65 -181c0 -18.667 6 -28 18 -28c20.667 0 65 41.333 133 124l199 256c84.667 110.667 144.334 183.334 179.001 218.001c14 14 27 21 39 21c16 0 24 -8.66699 24 -26zM635.996 839.999
c0 -6 -2.33203 -12.333 -6.99902 -19c-28.667 -36.667 -47.334 -60 -56.001 -70c-20.667 -22.667 -36.667 -34 -48 -34c-10.667 0 -16 5 -16 15c0 16.667 14.667 41.667 44 75s50 50 62 50c14 0 21 -5.66699 21 -17z" />
    <glyph glyph-name="Ucircumflex" unicode="&#xdb;" horiz-adv-x="551" 
d="M661 656c0 -12.667 -5.00391 -24.001 -15.0039 -34.001c-41.333 -45.333 -95.166 -139.166 -161.499 -281.499s-99.5 -236.5 -99.5 -282.5c0 -5.33301 0.333008 -9 1 -11l2 -17c0 -20.667 -8.33301 -31 -25 -31c-10 0 -19.167 4.83301 -27.5 14.5s-12.5 23.5 -12.5 41.5
c0 25.333 8 60.333 24 105c12 32.667 31.333 78 58 136c13.333 29.333 35.666 75 66.999 137l-186 -241c-55.333 -71.333 -95.666 -119.666 -120.999 -144.999c-35.333 -35.333 -67.666 -53 -96.999 -53c-18 0 -32.5 7.5 -43.5 22.5s-16.5 35.833 -16.5 62.5
c0 55.333 23.333 129 70 221c38 74 86.667 152 146 234c52.667 72 93.334 119.667 122.001 143c19.333 14.667 34.333 22 45 22c4 0 7.83301 -1.5 11.5 -4.5s5.16699 -8.5 4.5 -16.5c0 -12.667 -4.33301 -23.334 -13 -32.001c-32.667 -32.667 -74 -84.334 -124 -155.001
c-54 -76 -99.333 -149 -136 -219c-43.333 -82 -65 -142.333 -65 -181c0 -18.667 6 -28 18 -28c20.667 0 65 41.333 133 124l199 256c84.667 110.667 144.334 183.334 179.001 218.001c14 14 27 21 39 21c16 0 24 -8.66699 24 -26zM615.996 742.999
c0 -14.667 -7.66895 -21.999 -23.002 -21.999c-7.33301 0 -17.5 8 -30.5 24s-22.5 25 -28.5 27c-1.33301 0 -12.666 -5.66699 -33.999 -17c-11.333 -6 -20 -9 -26 -9c-13.333 0 -20 5.33301 -20 16c0 12.667 8.66699 26 26 40c20.667 16.667 44 25 70 25
c10.667 0 24.334 -10.333 41.001 -31s25 -38.334 25 -53.001z" />
    <glyph glyph-name="Udieresis" unicode="&#xdc;" horiz-adv-x="551" 
d="M661 656c0 -12.667 -5.00391 -24.001 -15.0039 -34.001c-41.333 -45.333 -95.166 -139.166 -161.499 -281.499s-99.5 -236.5 -99.5 -282.5c0 -5.33301 0.333008 -9 1 -11l2 -17c0 -20.667 -8.33301 -31 -25 -31c-10 0 -19.167 4.83301 -27.5 14.5s-12.5 23.5 -12.5 41.5
c0 25.333 8 60.333 24 105c12 32.667 31.333 78 58 136c13.333 29.333 35.666 75 66.999 137l-186 -241c-55.333 -71.333 -95.666 -119.666 -120.999 -144.999c-35.333 -35.333 -67.666 -53 -96.999 -53c-18 0 -32.5 7.5 -43.5 22.5s-16.5 35.833 -16.5 62.5
c0 55.333 23.333 129 70 221c38 74 86.667 152 146 234c52.667 72 93.334 119.667 122.001 143c19.333 14.667 34.333 22 45 22c4 0 7.83301 -1.5 11.5 -4.5s5.16699 -8.5 4.5 -16.5c0 -12.667 -4.33301 -23.334 -13 -32.001c-32.667 -32.667 -74 -84.334 -124 -155.001
c-54 -76 -99.333 -149 -136 -219c-43.333 -82 -65 -142.333 -65 -181c0 -18.667 6 -28 18 -28c20.667 0 65 41.333 133 124l199 256c84.667 110.667 144.334 183.334 179.001 218.001c14 14 27 21 39 21c16 0 24 -8.66699 24 -26zM638.996 795.999
c0 -12 -8.66699 -27.167 -26 -45.5s-31.666 -27.5 -42.999 -27.5c-13.333 0 -20 7.33301 -20 22c0 15.333 8.66699 31.333 26 48s31.666 25 42.999 25c13.333 0 20 -7.33301 20 -22zM529.996 796.999c0 -12 -8.66699 -27.167 -26 -45.5s-31.666 -27.5 -42.999 -27.5
c-13.333 0 -20 7.33301 -20 22c0 15.333 8.66699 31.333 26 48s31.666 25 42.999 25c13.333 0 20 -7.33301 20 -22z" />
    <glyph glyph-name="Yacute" unicode="&#xdd;" horiz-adv-x="433" 
d="M607 684c0 -12.667 -5.33398 -25.3359 -16.001 -38.0029c-68.667 -80 -143.334 -189.667 -224.001 -329s-134.667 -250.333 -162 -333c-6 -19.333 -17.333 -29 -34 -29c-8 0 -14.5 2.5 -19.5 7.5s-7.5 13.167 -7.5 24.5c0 26.667 20.333 80.334 61 161.001
s85.334 157.334 134.001 230.001l-106 -105c-42.667 -36.667 -81.667 -55 -117 -55c-14.667 0 -26.334 5 -35.001 15s-13 26 -13 48c0 70.667 37.667 157.167 113 259.5s135.333 153.5 180 153.5c19.333 0 29 -8 29 -24c0 -13.333 -12 -26.666 -36 -39.999
c-45.333 -28.667 -87.666 -69.667 -126.999 -123c-32.667 -44 -58.5 -87.833 -77.5 -131.5s-26.833 -71.834 -23.5 -84.501c2.66699 -6.66699 7.66699 -10 15 -10c30.667 0 93.334 50.667 188.001 152c84.667 90.667 156 177.334 214 260.001c10 16.667 21.333 25 34 25
c20 0 30 -11.333 30 -34zM575.999 834.998c0 -6 -2.33203 -12.333 -6.99902 -19c-28.667 -36.667 -47.334 -60 -56.001 -70c-20.667 -22.667 -36.667 -34 -48 -34c-10.667 0 -16 5 -16 15c0 16.667 14.667 41.667 44 75s50 50 62 50c14 0 21 -5.66699 21 -17z" />
    <glyph glyph-name="germandbls" unicode="&#xdf;" horiz-adv-x="291" 
d="M407 687c0 -34.667 -18.666 -83 -55.999 -145c-28 -46.667 -49.667 -77.667 -65 -93c-28 -27.333 -43.667 -43 -47 -47c-14 -17.333 -21 -35.666 -21 -54.999c-1.33301 -14 -2 -25 -2 -33s1.33301 -15.667 4 -23c8 5.33301 18.333 8.66602 31 9.99902
c19.333 0 28.333 -5.66699 27 -17c0 -12.667 -14 -23.334 -42 -32.001c12 -24 18 -49.333 18 -76c0 -32.667 -11.333 -64 -34 -94c-24.667 -32.667 -51 -49 -79 -49c-15.333 0 -28.166 5.5 -38.499 16.5s-15.5 25.833 -15.5 44.5c0 36 15.667 73 47 111s47 61.667 47 71
c0 5.33301 -1.83301 16 -5.5 32s-5.5 29.333 -5.5 40c0 15.333 5.16699 31.833 15.5 49.5s27.833 37.5 52.5 59.5c22.667 19.333 47.667 52.833 75 100.5s41 83.167 41 106.5c0 12 -5 19 -15 21c-16.667 2.66699 -45.334 -34.333 -86.001 -111
c-32 -60 -70.667 -144.667 -116 -254c-40.667 -98 -73.334 -181 -98.001 -249c-8.66699 -22.667 -20 -34 -34 -34c-6.66699 0 -12.167 3.16699 -16.5 9.5s-6.5 15.166 -6.5 26.499c0 6.66699 0.5 11.834 1.5 15.501s3.83301 10.834 8.5 21.501l173 410
c21.333 50.667 47 96.667 77 138c41.333 56.667 79 85 113 85c16 0 28.667 -5.33301 38 -16s14 -24 14 -40zM197.001 213c-14 -2.66699 -28.001 -15.667 -42.001 -39s-21 -43.333 -21 -60c0 -13.333 5.33301 -20 16 -20c20.667 0 34.334 12.667 41.001 38
c4 15.333 6 42.333 6 81z" />
    <glyph glyph-name="agrave" unicode="&#xe0;" horiz-adv-x="276" 
d="M259 329c0 -10 -2.33398 -19.998 -7.00098 -29.998c4 -2.66699 6 -7.33398 6 -14.001c0 -13.333 -10.333 -42.333 -31 -87s-31 -74.667 -31 -90c0 -22 8 -37 24 -45s24 -18.667 24 -32c0 -6 -2.66699 -10.667 -8 -14s-12.333 -5 -21 -5c-16 0 -30 5.66699 -42 17
c-14.667 14 -22 32.667 -22 56c0 4 0.833008 9.66699 2.5 17s2.83398 12.666 3.50098 15.999c-33.333 -56 -67.333 -84 -102 -84c-30.667 0 -48 21.333 -52 64c0 51.333 21.667 108.333 65 171c46.667 67.333 93 101 139 101c16 0 28.667 -3.5 38 -10.5s14 -17.167 14 -30.5
zM219.999 291.002c-4.66699 17.333 -13.6689 26 -27.002 26c-23.333 0 -51.666 -25.167 -84.999 -75.5s-50 -90.833 -50 -121.5c0 -13.333 4.33301 -22 13 -26c14.667 -4.66699 34.334 12.333 59.001 51zM220.997 421.002c0 -9.33301 -5.66504 -14.002 -16.998 -14.002
c-12.667 0 -29.667 14.667 -51 44c-16.667 22.667 -30.334 40.334 -41.001 53.001c-7.33301 6.66699 -11 14 -11 22s2.66699 13.833 8 17.5s10.333 5.5 15 5.5c7.33301 0 13.666 -4.66699 18.999 -14c0.666992 -1.33301 20 -26.666 58 -75.999c13.333 -17.333 20 -30 20 -38
z" />
    <glyph glyph-name="aacute" unicode="&#xe1;" horiz-adv-x="276" 
d="M259 329c0 -10 -2.33398 -19.998 -7.00098 -29.998c4 -2.66699 6 -7.33398 6 -14.001c0 -13.333 -10.333 -42.333 -31 -87s-31 -74.667 -31 -90c0 -22 8 -37 24 -45s24 -18.667 24 -32c0 -6 -2.66699 -10.667 -8 -14s-12.333 -5 -21 -5c-16 0 -30 5.66699 -42 17
c-14.667 14 -22 32.667 -22 56c0 4 0.833008 9.66699 2.5 17s2.83398 12.666 3.50098 15.999c-33.333 -56 -67.333 -84 -102 -84c-30.667 0 -48 21.333 -52 64c0 51.333 21.667 108.333 65 171c46.667 67.333 93 101 139 101c16 0 28.667 -3.5 38 -10.5s14 -17.167 14 -30.5
zM219.999 291.002c-4.66699 17.333 -13.6689 26 -27.002 26c-23.333 0 -51.666 -25.167 -84.999 -75.5s-50 -90.833 -50 -121.5c0 -13.333 4.33301 -22 13 -26c14.667 -4.66699 34.334 12.333 59.001 51zM320.997 515.002c0 -6 -2.33203 -12.333 -6.99902 -19
c-28.667 -36.667 -47.334 -60 -56.001 -70c-20.667 -22.667 -36.667 -34 -48 -34c-10.667 0 -16 5 -16 15c0 16.667 14.667 41.667 44 75s50 50 62 50c14 0 21 -5.66699 21 -17z" />
    <glyph glyph-name="acircumflex" unicode="&#xe2;" horiz-adv-x="276" 
d="M259 329c0 -10 -2.33398 -19.998 -7.00098 -29.998c4 -2.66699 6 -7.33398 6 -14.001c0 -13.333 -10.333 -42.333 -31 -87s-31 -74.667 -31 -90c0 -22 8 -37 24 -45s24 -18.667 24 -32c0 -6 -2.66699 -10.667 -8 -14s-12.333 -5 -21 -5c-16 0 -30 5.66699 -42 17
c-14.667 14 -22 32.667 -22 56c0 4 0.833008 9.66699 2.5 17s2.83398 12.666 3.50098 15.999c-33.333 -56 -67.333 -84 -102 -84c-30.667 0 -48 21.333 -52 64c0 51.333 21.667 108.333 65 171c46.667 67.333 93 101 139 101c16 0 28.667 -3.5 38 -10.5s14 -17.167 14 -30.5
zM219.999 291.002c-4.66699 17.333 -13.6689 26 -27.002 26c-23.333 0 -51.666 -25.167 -84.999 -75.5s-50 -90.833 -50 -121.5c0 -13.333 4.33301 -22 13 -26c14.667 -4.66699 34.334 12.333 59.001 51zM310.997 408.002c0 -14.667 -7.66895 -21.999 -23.002 -21.999
c-7.33301 0 -17.5 8 -30.5 24s-22.5 25 -28.5 27c-1.33301 0 -12.666 -5.66699 -33.999 -17c-11.333 -6 -20 -9 -26 -9c-13.333 0 -20 5.33301 -20 16c0 12.667 8.66699 26 26 40c20.667 16.667 44 25 70 25c10.667 0 24.334 -10.333 41.001 -31s25 -38.334 25 -53.001z" />
    <glyph glyph-name="atilde" unicode="&#xe3;" horiz-adv-x="276" 
d="M259 329c0 -10 -2.33398 -19.998 -7.00098 -29.998c4 -2.66699 6 -7.33398 6 -14.001c0 -13.333 -10.333 -42.333 -31 -87s-31 -74.667 -31 -90c0 -22 8 -37 24 -45s24 -18.667 24 -32c0 -6 -2.66699 -10.667 -8 -14s-12.333 -5 -21 -5c-16 0 -30 5.66699 -42 17
c-14.667 14 -22 32.667 -22 56c0 4 0.833008 9.66699 2.5 17s2.83398 12.666 3.50098 15.999c-33.333 -56 -67.333 -84 -102 -84c-30.667 0 -48 21.333 -52 64c0 51.333 21.667 108.333 65 171c46.667 67.333 93 101 139 101c16 0 28.667 -3.5 38 -10.5s14 -17.167 14 -30.5
zM219.999 291.002c-4.66699 17.333 -13.6689 26 -27.002 26c-23.333 0 -51.666 -25.167 -84.999 -75.5s-50 -90.833 -50 -121.5c0 -13.333 4.33301 -22 13 -26c14.667 -4.66699 34.334 12.333 59.001 51zM330.997 473.002c0 -15.333 -5.66602 -29.502 -16.999 -42.502
s-26.333 -19.5 -45 -19.5c-17.333 0 -36 7.66699 -56 23l-42 27c-13.333 8 -23.333 12 -30 12c-4.66699 0 -9.5 -5.5 -14.5 -16.5s-11.167 -16.5 -18.5 -16.5c-10 0 -15 6 -15 18c0 16 5.16699 28.5 15.5 37.5s22.166 13.5 35.499 13.5h11
c6 -1.33301 12.5 -2.66602 19.5 -3.99902s26.5 -11.666 58.5 -30.999c16 -9.33301 27.667 -14 35 -14c6 0.666992 15.167 6.16699 27.5 16.5s20.833 15.5 25.5 15.5c6.66699 0 10 -6.33301 10 -19z" />
    <glyph glyph-name="adieresis" unicode="&#xe4;" horiz-adv-x="276" 
d="M259 329c0 -10 -2.33398 -19.998 -7.00098 -29.998c4 -2.66699 6 -7.33398 6 -14.001c0 -13.333 -10.333 -42.333 -31 -87s-31 -74.667 -31 -90c0 -22 8 -37 24 -45s24 -18.667 24 -32c0 -6 -2.66699 -10.667 -8 -14s-12.333 -5 -21 -5c-16 0 -30 5.66699 -42 17
c-14.667 14 -22 32.667 -22 56c0 4 0.833008 9.66699 2.5 17s2.83398 12.666 3.50098 15.999c-33.333 -56 -67.333 -84 -102 -84c-30.667 0 -48 21.333 -52 64c0 51.333 21.667 108.333 65 171c46.667 67.333 93 101 139 101c16 0 28.667 -3.5 38 -10.5s14 -17.167 14 -30.5
zM219.999 291.002c-4.66699 17.333 -13.6689 26 -27.002 26c-23.333 0 -51.666 -25.167 -84.999 -75.5s-50 -90.833 -50 -121.5c0 -13.333 4.33301 -22 13 -26c14.667 -4.66699 34.334 12.333 59.001 51zM313.997 471.002c0 -12 -8.66699 -27.167 -26 -45.5
s-31.666 -27.5 -42.999 -27.5c-13.333 0 -20 7.33301 -20 22c0 15.333 8.66699 31.333 26 48s31.666 25 42.999 25c13.333 0 20 -7.33301 20 -22zM204.997 472.002c0 -12 -8.66699 -27.167 -26 -45.5s-31.666 -27.5 -42.999 -27.5c-13.333 0 -20 7.33301 -20 22
c0 15.333 8.66699 31.333 26 48s31.666 25 42.999 25c13.333 0 20 -7.33301 20 -22z" />
    <glyph glyph-name="aring" unicode="&#xe5;" horiz-adv-x="276" 
d="M259 329c0 -10 -2.33398 -19.998 -7.00098 -29.998c4 -2.66699 6 -7.33398 6 -14.001c0 -13.333 -10.333 -42.333 -31 -87s-31 -74.667 -31 -90c0 -22 8 -37 24 -45s24 -18.667 24 -32c0 -6 -2.66699 -10.667 -8 -14s-12.333 -5 -21 -5c-16 0 -30 5.66699 -42 17
c-14.667 14 -22 32.667 -22 56c0 4 0.833008 9.66699 2.5 17s2.83398 12.666 3.50098 15.999c-33.333 -56 -67.333 -84 -102 -84c-30.667 0 -48 21.333 -52 64c0 51.333 21.667 108.333 65 171c46.667 67.333 93 101 139 101c16 0 28.667 -3.5 38 -10.5s14 -17.167 14 -30.5
zM219.999 291.002c-4.66699 17.333 -13.6689 26 -27.002 26c-23.333 0 -51.666 -25.167 -84.999 -75.5s-50 -90.833 -50 -121.5c0 -13.333 4.33301 -22 13 -26c14.667 -4.66699 34.334 12.333 59.001 51zM314.997 451.002c-14.667 -16 -29.1689 -28.001 -43.502 -36.001
s-27.5 -12 -39.5 -12c-21.333 0 -32 10.333 -32 31c0 9.33301 2.16699 19 6.5 29s11.5 21.667 21.5 35c12.667 16.667 25.834 29.167 39.501 37.5s26.834 12.5 39.501 12.5c11.333 0 20.5 -3.16699 27.5 -9.5s10.5 -15.166 10.5 -26.499c0 -18.667 -10 -39 -30 -61z
M282.995 459.001c10 13.333 15 24.666 15 33.999c0 8.66699 -3.66699 13 -11 13c-9.33301 0 -21 -8 -35 -24c-11.333 -13.333 -17 -24.666 -17 -33.999c0 -8 4 -12 12 -12c6.66699 0 13.167 2.33301 19.5 7s11.833 10 16.5 16z" />
    <glyph glyph-name="ae" unicode="&#xe6;" horiz-adv-x="402" 
d="M409 208c0 -25.333 -21.334 -59.998 -64.001 -103.998c-47.333 -48.667 -91.333 -73 -132 -73c-24 0 -41.667 9.33301 -53 28c-5.33301 8.66699 -11.333 25.667 -18 51c-12 -25.333 -27.833 -45 -47.5 -59s-39.834 -21 -60.501 -21c-38.667 0 -58 26.667 -58 80
c0 43.333 17.667 79.333 53 108c32 26 66.667 39 104 39c18 0 34 -4.33301 48 -13c8.66699 13.333 13 29.333 13 48c0 11.333 -2.33301 20.666 -7 27.999s-12 11 -22 11c-7.33301 0 -17.666 -2.66699 -30.999 -8c-30 -12 -48 -18 -54 -18c-8 0 -13.667 3.33301 -17 10
c-7.33301 14 4.83398 29.333 36.501 46s58.834 25 81.501 25c18 0 33 -4.5 45 -13.5s18 -22.833 18 -41.5c16.667 18 32.167 31.167 46.5 39.5s27.166 12.5 38.499 12.5c14 0 24.833 -5.66699 32.5 -17s11.5 -26.333 11.5 -45c0 -18 -3.5 -36.333 -10.5 -55
s-17.5 -34 -31.5 -46c-16 -16 -32.5 -28.167 -49.5 -36.5s-34.5 -12.5 -52.5 -12.5l-24 2c-2 -8.66699 -3.66699 -17 -5 -25v-13c0 -32.667 11 -49 33 -49c18 0 38.667 9.66699 62 29c26 21.333 48.333 48.666 67 81.999c10.667 16 22 24.667 34 26c10 0 14.333 -5 13 -15z
M324.999 317.002c0 10.667 -3.33398 16 -10.001 16l-8 -2c-9.33301 -4.66699 -23.333 -19 -42 -43c-21.333 -27.333 -33.666 -50 -36.999 -68l11 -2c23.333 0 44 12.333 62 37c16 22 24 42.667 24 62zM156.998 205.002c-9.33301 8.66699 -20.333 13 -33 13
c-24 0 -46.5 -12.5 -67.5 -37.5s-31.5 -46.5 -31.5 -64.5c0 -22 9.33301 -33 28 -33c16 0 33 9.33301 51 28c21.333 22.667 39 54 53 94z" />
    <glyph glyph-name="ccedilla" unicode="&#xe7;" horiz-adv-x="291" 
d="M263 196c0 -25.333 -22 -58.3369 -66 -99.0039c-47.333 -44 -89.333 -66 -126 -66c-24 0 -41 5.83301 -51 17.5s-15 28.834 -15 51.501c0 60.667 26 122.334 78 185.001c48.667 58.667 91.667 88 129 88c21.333 0 32 -16.667 32 -50
c0 -23.333 -8.16699 -46.666 -24.5 -69.999s-31.5 -35 -45.5 -35c-10.667 0 -16 5 -16 15c0 5.33301 9.66699 20.333 29 45c9.33301 12 14 21 14 27c0 8.66699 -3 13 -9 13c-16.667 0 -43.667 -25.333 -81 -76c-39.333 -53.333 -59 -94.666 -59 -123.999
c0 -26 10.333 -39 31 -39c18 0 39 9 63 27c26.667 20 51.334 47.667 74.001 83c7.33301 14 16.666 21 27.999 21c8.66699 0 13.667 -4.66699 15 -14zM88 44.9961c-12 -12 -20.334 -21.998 -25.001 -29.998s-7 -16.333 -7 -25c16.667 -8.66699 25 -21.334 25 -38.001
c0 -21.333 -11.167 -44.833 -33.5 -70.5s-40.166 -38.5 -53.499 -38.5c-5.33301 0 -8 1.66699 -8 5c0 6 9 18 27 36s27.333 30.333 28 37c1.33301 10.667 -6.16699 18.167 -22.5 22.5s-24.5 9.16602 -24.5 14.499c0 6 11.333 21.333 34 46c16 17.333 28 31 36 41h24z" />
    <glyph glyph-name="egrave" unicode="&#xe8;" horiz-adv-x="291" 
d="M286 194c0 -23.333 -24.332 -54.668 -72.999 -94.001c-52 -42 -98.667 -63 -140 -63c-20.667 0 -38.834 7.83301 -54.501 23.5s-23.5 34.834 -23.5 57.501c0 28.667 8.66699 60 26 94c14.667 29.333 31.334 53 50.001 71c26.667 28 50 47.833 70 59.5
s36.667 17.5 50 17.5c12.667 0 23 -4 31 -12s12 -17.667 12 -29c0 -21.333 -11.333 -47 -34 -77c-16.667 -22.667 -36 -43 -58 -61c-10 -10 -24.333 -19.667 -43 -29c-13.333 -6.66699 -28 -12.667 -44 -18c0 -16 3.5 -27.833 10.5 -35.5s16.833 -11.5 29.5 -11.5
c20.667 0 46.167 10 76.5 30s57.166 44 80.499 72c10.667 12.667 18.667 19 24 19c6.66699 0 10 -4.66699 10 -14zM184.001 290.998c0 8 -4.00098 12.668 -12.001 14.001c-10.667 0 -23.334 -7.33301 -38.001 -22c-11.333 -10.667 -24.166 -25.5 -38.499 -44.5
s-25.166 -35.5 -32.499 -49.5c22 0 47.667 12.667 77 38s44 46.666 44 63.999zM196 420.999c0 -9.33301 -5.66504 -14.002 -16.998 -14.002c-12.667 0 -29.667 14.667 -51 44c-16.667 22.667 -30.334 40.334 -41.001 53.001c-7.33301 6.66699 -11 14 -11 22
s2.66699 13.833 8 17.5s10.333 5.5 15 5.5c7.33301 0 13.666 -4.66699 18.999 -14c0.666992 -1.33301 20 -26.666 58 -75.999c13.333 -17.333 20 -30 20 -38z" />
    <glyph glyph-name="eacute" unicode="&#xe9;" horiz-adv-x="291" 
d="M286 194c0 -23.333 -24.332 -54.668 -72.999 -94.001c-52 -42 -98.667 -63 -140 -63c-20.667 0 -38.834 7.83301 -54.501 23.5s-23.5 34.834 -23.5 57.501c0 28.667 8.66699 60 26 94c14.667 29.333 31.334 53 50.001 71c26.667 28 50 47.833 70 59.5
s36.667 17.5 50 17.5c12.667 0 23 -4 31 -12s12 -17.667 12 -29c0 -21.333 -11.333 -47 -34 -77c-16.667 -22.667 -36 -43 -58 -61c-10 -10 -24.333 -19.667 -43 -29c-13.333 -6.66699 -28 -12.667 -44 -18c0 -16 3.5 -27.833 10.5 -35.5s16.833 -11.5 29.5 -11.5
c20.667 0 46.167 10 76.5 30s57.166 44 80.499 72c10.667 12.667 18.667 19 24 19c6.66699 0 10 -4.66699 10 -14zM184.001 290.998c0 8 -4.00098 12.668 -12.001 14.001c-10.667 0 -23.334 -7.33301 -38.001 -22c-11.333 -10.667 -24.166 -25.5 -38.499 -44.5
s-25.166 -35.5 -32.499 -49.5c22 0 47.667 12.667 77 38s44 46.666 44 63.999zM311 514.999c0 -6 -2.33203 -12.333 -6.99902 -19c-28.667 -36.667 -47.334 -60 -56.001 -70c-20.667 -22.667 -36.667 -34 -48 -34c-10.667 0 -16 5 -16 15c0 16.667 14.667 41.667 44 75
s50 50 62 50c14 0 21 -5.66699 21 -17z" />
    <glyph glyph-name="ecircumflex" unicode="&#xea;" horiz-adv-x="291" 
d="M286 194c0 -23.333 -24.332 -54.668 -72.999 -94.001c-52 -42 -98.667 -63 -140 -63c-20.667 0 -38.834 7.83301 -54.501 23.5s-23.5 34.834 -23.5 57.501c0 28.667 8.66699 60 26 94c14.667 29.333 31.334 53 50.001 71c26.667 28 50 47.833 70 59.5
s36.667 17.5 50 17.5c12.667 0 23 -4 31 -12s12 -17.667 12 -29c0 -21.333 -11.333 -47 -34 -77c-16.667 -22.667 -36 -43 -58 -61c-10 -10 -24.333 -19.667 -43 -29c-13.333 -6.66699 -28 -12.667 -44 -18c0 -16 3.5 -27.833 10.5 -35.5s16.833 -11.5 29.5 -11.5
c20.667 0 46.167 10 76.5 30s57.166 44 80.499 72c10.667 12.667 18.667 19 24 19c6.66699 0 10 -4.66699 10 -14zM184.001 290.998c0 8 -4.00098 12.668 -12.001 14.001c-10.667 0 -23.334 -7.33301 -38.001 -22c-11.333 -10.667 -24.166 -25.5 -38.499 -44.5
s-25.166 -35.5 -32.499 -49.5c22 0 47.667 12.667 77 38s44 46.666 44 63.999zM276 397.999c0 -14.667 -7.66895 -21.999 -23.002 -21.999c-7.33301 0 -17.5 8 -30.5 24s-22.5 25 -28.5 27c-1.33301 0 -12.666 -5.66699 -33.999 -17c-11.333 -6 -20 -9 -26 -9
c-13.333 0 -20 5.33301 -20 16c0 12.667 8.66699 26 26 40c20.667 16.667 44 25 70 25c10.667 0 24.334 -10.333 41.001 -31s25 -38.334 25 -53.001z" />
    <glyph glyph-name="edieresis" unicode="&#xeb;" horiz-adv-x="291" 
d="M286 194c0 -23.333 -24.332 -54.668 -72.999 -94.001c-52 -42 -98.667 -63 -140 -63c-20.667 0 -38.834 7.83301 -54.501 23.5s-23.5 34.834 -23.5 57.501c0 28.667 8.66699 60 26 94c14.667 29.333 31.334 53 50.001 71c26.667 28 50 47.833 70 59.5
s36.667 17.5 50 17.5c12.667 0 23 -4 31 -12s12 -17.667 12 -29c0 -21.333 -11.333 -47 -34 -77c-16.667 -22.667 -36 -43 -58 -61c-10 -10 -24.333 -19.667 -43 -29c-13.333 -6.66699 -28 -12.667 -44 -18c0 -16 3.5 -27.833 10.5 -35.5s16.833 -11.5 29.5 -11.5
c20.667 0 46.167 10 76.5 30s57.166 44 80.499 72c10.667 12.667 18.667 19 24 19c6.66699 0 10 -4.66699 10 -14zM184.001 290.998c0 8 -4.00098 12.668 -12.001 14.001c-10.667 0 -23.334 -7.33301 -38.001 -22c-11.333 -10.667 -24.166 -25.5 -38.499 -44.5
s-25.166 -35.5 -32.499 -49.5c22 0 47.667 12.667 77 38s44 46.666 44 63.999zM294 455.999c0 -12 -8.66699 -27.167 -26 -45.5s-31.666 -27.5 -42.999 -27.5c-13.333 0 -20 7.33301 -20 22c0 15.333 8.66699 31.333 26 48s31.666 25 42.999 25c13.333 0 20 -7.33301 20 -22
zM185 456.999c0 -12 -8.66699 -27.167 -26 -45.5s-31.666 -27.5 -42.999 -27.5c-13.333 0 -20 7.33301 -20 22c0 15.333 8.66699 31.333 26 48s31.666 25 42.999 25c13.333 0 20 -7.33301 20 -22z" />
    <glyph glyph-name="igrave" unicode="&#xec;" horiz-adv-x="142" 
d="M163 338c0 -10 -4.33301 -20.334 -13 -31.001c-18 -21.333 -41.333 -62.166 -70 -122.499s-45 -101.833 -49 -124.5s-13 -33.334 -27 -32.001c-5.33301 0 -10 3.66699 -14 11s-6 15.333 -6 24c0 33.333 15.333 79.333 46 138c26 50 55.333 96 88 138
c3.33301 4 7.5 8 12.5 12s10.5 6 16.5 6c10.667 -1.33301 16 -7.66602 16 -18.999zM151 415.999c0 -9.33301 -5.66504 -14.002 -16.998 -14.002c-12.667 0 -29.667 14.667 -51 44c-16.667 22.667 -30.334 40.334 -41.001 53.001c-7.33301 6.66699 -11 14 -11 22
s2.66699 13.833 8 17.5s10.333 5.5 15 5.5c7.33301 0 13.666 -4.66699 18.999 -14c0.666992 -1.33301 20 -26.666 58 -75.999c13.333 -17.333 20 -30 20 -38z" />
    <glyph glyph-name="iacute" unicode="&#xed;" horiz-adv-x="142" 
d="M163 338c0 -10 -4.33301 -20.334 -13 -31.001c-18 -21.333 -41.333 -62.166 -70 -122.499s-45 -101.833 -49 -124.5s-13 -33.334 -27 -32.001c-5.33301 0 -10 3.66699 -14 11s-6 15.333 -6 24c0 33.333 15.333 79.333 46 138c26 50 55.333 96 88 138
c3.33301 4 7.5 8 12.5 12s10.5 6 16.5 6c10.667 -1.33301 16 -7.66602 16 -18.999zM276 514.999c0 -6 -2.33203 -12.333 -6.99902 -19c-28.667 -36.667 -47.334 -60 -56.001 -70c-20.667 -22.667 -36.667 -34 -48 -34c-10.667 0 -16 5 -16 15c0 16.667 14.667 41.667 44 75
s50 50 62 50c14 0 21 -5.66699 21 -17z" />
    <glyph glyph-name="icircumflex" unicode="&#xee;" horiz-adv-x="142" 
d="M163 338c0 -10 -4.33301 -20.334 -13 -31.001c-18 -21.333 -41.333 -62.166 -70 -122.499s-45 -101.833 -49 -124.5s-13 -33.334 -27 -32.001c-5.33301 0 -10 3.66699 -14 11s-6 15.333 -6 24c0 33.333 15.333 79.333 46 138c26 50 55.333 96 88 138
c3.33301 4 7.5 8 12.5 12s10.5 6 16.5 6c10.667 -1.33301 16 -7.66602 16 -18.999zM246 402.999c0 -14.667 -7.66895 -21.999 -23.002 -21.999c-7.33301 0 -17.5 8 -30.5 24s-22.5 25 -28.5 27c-1.33301 0 -12.666 -5.66699 -33.999 -17c-11.333 -6 -20 -9 -26 -9
c-13.333 0 -20 5.33301 -20 16c0 12.667 8.66699 26 26 40c20.667 16.667 44 25 70 25c10.667 0 24.334 -10.333 41.001 -31s25 -38.334 25 -53.001z" />
    <glyph glyph-name="idieresis" unicode="&#xef;" horiz-adv-x="142" 
d="M163 338c0 -10 -4.33301 -20.334 -13 -31.001c-18 -21.333 -41.333 -62.166 -70 -122.499s-45 -101.833 -49 -124.5s-13 -33.334 -27 -32.001c-5.33301 0 -10 3.66699 -14 11s-6 15.333 -6 24c0 33.333 15.333 79.333 46 138c26 50 55.333 96 88 138
c3.33301 4 7.5 8 12.5 12s10.5 6 16.5 6c10.667 -1.33301 16 -7.66602 16 -18.999zM264 465.999c0 -12 -8.66699 -27.167 -26 -45.5s-31.666 -27.5 -42.999 -27.5c-13.333 0 -20 7.33301 -20 22c0 15.333 8.66699 31.333 26 48s31.666 25 42.999 25
c13.333 0 20 -7.33301 20 -22zM155 466.999c0 -12 -8.66699 -27.167 -26 -45.5s-31.666 -27.5 -42.999 -27.5c-13.333 0 -20 7.33301 -20 22c0 15.333 8.66699 31.333 26 48s31.666 25 42.999 25c13.333 0 20 -7.33301 20 -22z" />
    <glyph glyph-name="ntilde" unicode="&#xf1;" horiz-adv-x="268" 
d="M294 326c0 -8 -6.33301 -21.002 -19 -39.002c-39.333 -55.333 -60 -85.333 -62 -90c-10.667 -21.333 -19.667 -42 -27 -62c-9.33301 -26.667 -14 -49 -14 -67c0 -12 2 -22.333 6 -31c8.66699 -18 13 -29.667 13 -35c0 -13.333 -6 -20 -18 -20s-23.667 8 -35 24
s-17 35 -17 57c0 24.667 5.33301 53.667 16 87c8 26 17.333 49.333 28 70c-30.667 -21.333 -58 -50.333 -82 -87c-40.667 -62.667 -68.334 -94 -83.001 -94c-11.333 0 -16.333 6 -15 18c0 14.667 11 43.334 33 86.001l37 70c46 84 75 126 87 126c14.667 0 22 -6 22 -18
c0 -10 -6.33301 -25.667 -19 -47l-27 -46c4.66699 4.66699 24.334 23.334 59.001 56.001c38 36.667 68.333 55 91 55c16 0 24.667 -4.33301 26 -13zM341 447.998c0 -15.333 -5.66602 -29.502 -16.999 -42.502s-26.333 -19.5 -45 -19.5c-17.333 0 -36 7.66699 -56 23l-42 27
c-13.333 8 -23.333 12 -30 12c-4.66699 0 -9.5 -5.5 -14.5 -16.5s-11.167 -16.5 -18.5 -16.5c-10 0 -15 6 -15 18c0 16 5.16699 28.5 15.5 37.5s22.166 13.5 35.499 13.5h11c6 -1.33301 12.5 -2.66602 19.5 -3.99902s26.5 -11.666 58.5 -30.999
c16 -9.33301 27.667 -14 35 -14c6 0.666992 15.167 6.16699 27.5 16.5s20.833 15.5 25.5 15.5c6.66699 0 10 -6.33301 10 -19z" />
    <glyph glyph-name="ograve" unicode="&#xf2;" horiz-adv-x="244" 
d="M250 327c0 -51.333 -22 -112.668 -66 -184.001c-46 -74.667 -89 -112 -129 -112c-18 0 -31.5 5.83301 -40.5 17.5s-13.5 28.167 -13.5 49.5c0 56 21.667 115.333 65 178c46.667 68 95.667 102 147 102c12.667 0 22 -4.66699 28 -14s9 -21.666 9 -36.999zM202 302.998
c0 13.333 -5.99805 20.001 -17.998 20.001c-18 0 -44.667 -24.5 -80 -73.5s-53 -89.5 -53 -121.5c0 -24.667 8 -37 24 -37c12.667 0 26.167 7.66699 40.5 23s25.833 37.666 34.5 66.999c-10.667 0 -15.334 3 -14.001 9c0 6.66699 6.33301 18 19 34
c20 25.333 31.333 40 34 44c7.33301 12 11.666 23.667 12.999 35zM211.002 420.999c0 -9.33301 -5.66504 -14.002 -16.998 -14.002c-12.667 0 -29.667 14.667 -51 44c-16.667 22.667 -30.334 40.334 -41.001 53.001c-7.33301 6.66699 -11 14 -11 22s2.66699 13.833 8 17.5
s10.333 5.5 15 5.5c7.33301 0 13.666 -4.66699 18.999 -14c0.666992 -1.33301 20 -26.666 58 -75.999c13.333 -17.333 20 -30 20 -38z" />
    <glyph glyph-name="oacute" unicode="&#xf3;" horiz-adv-x="244" 
d="M250 327c0 -51.333 -22 -112.668 -66 -184.001c-46 -74.667 -89 -112 -129 -112c-18 0 -31.5 5.83301 -40.5 17.5s-13.5 28.167 -13.5 49.5c0 56 21.667 115.333 65 178c46.667 68 95.667 102 147 102c12.667 0 22 -4.66699 28 -14s9 -21.666 9 -36.999zM202 302.998
c0 13.333 -5.99805 20.001 -17.998 20.001c-18 0 -44.667 -24.5 -80 -73.5s-53 -89.5 -53 -121.5c0 -24.667 8 -37 24 -37c12.667 0 26.167 7.66699 40.5 23s25.833 37.666 34.5 66.999c-10.667 0 -15.334 3 -14.001 9c0 6.66699 6.33301 18 19 34
c20 25.333 31.333 40 34 44c7.33301 12 11.666 23.667 12.999 35zM321.002 524.999c0 -6 -2.33203 -12.333 -6.99902 -19c-28.667 -36.667 -47.334 -60 -56.001 -70c-20.667 -22.667 -36.667 -34 -48 -34c-10.667 0 -16 5 -16 15c0 16.667 14.667 41.667 44 75s50 50 62 50
c14 0 21 -5.66699 21 -17z" />
    <glyph glyph-name="ocircumflex" unicode="&#xf4;" horiz-adv-x="244" 
d="M250 327c0 -51.333 -22 -112.668 -66 -184.001c-46 -74.667 -89 -112 -129 -112c-18 0 -31.5 5.83301 -40.5 17.5s-13.5 28.167 -13.5 49.5c0 56 21.667 115.333 65 178c46.667 68 95.667 102 147 102c12.667 0 22 -4.66699 28 -14s9 -21.666 9 -36.999zM202 302.998
c0 13.333 -5.99805 20.001 -17.998 20.001c-18 0 -44.667 -24.5 -80 -73.5s-53 -89.5 -53 -121.5c0 -24.667 8 -37 24 -37c12.667 0 26.167 7.66699 40.5 23s25.833 37.666 34.5 66.999c-10.667 0 -15.334 3 -14.001 9c0 6.66699 6.33301 18 19 34
c20 25.333 31.333 40 34 44c7.33301 12 11.666 23.667 12.999 35zM301.002 412.999c0 -14.667 -7.66895 -21.999 -23.002 -21.999c-7.33301 0 -17.5 8 -30.5 24s-22.5 25 -28.5 27c-1.33301 0 -12.666 -5.66699 -33.999 -17c-11.333 -6 -20 -9 -26 -9
c-13.333 0 -20 5.33301 -20 16c0 12.667 8.66699 26 26 40c20.667 16.667 44 25 70 25c10.667 0 24.334 -10.333 41.001 -31s25 -38.334 25 -53.001z" />
    <glyph glyph-name="otilde" unicode="&#xf5;" horiz-adv-x="244" 
d="M250 327c0 -51.333 -22 -112.668 -66 -184.001c-46 -74.667 -89 -112 -129 -112c-18 0 -31.5 5.83301 -40.5 17.5s-13.5 28.167 -13.5 49.5c0 56 21.667 115.333 65 178c46.667 68 95.667 102 147 102c12.667 0 22 -4.66699 28 -14s9 -21.666 9 -36.999zM202 302.998
c0 13.333 -5.99805 20.001 -17.998 20.001c-18 0 -44.667 -24.5 -80 -73.5s-53 -89.5 -53 -121.5c0 -24.667 8 -37 24 -37c12.667 0 26.167 7.66699 40.5 23s25.833 37.666 34.5 66.999c-10.667 0 -15.334 3 -14.001 9c0 6.66699 6.33301 18 19 34
c20 25.333 31.333 40 34 44c7.33301 12 11.666 23.667 12.999 35zM331.002 477.999c0 -15.333 -5.66602 -29.502 -16.999 -42.502s-26.333 -19.5 -45 -19.5c-17.333 0 -36 7.66699 -56 23l-42 27c-13.333 8 -23.333 12 -30 12c-4.66699 0 -9.5 -5.5 -14.5 -16.5
s-11.167 -16.5 -18.5 -16.5c-10 0 -15 6 -15 18c0 16 5.16699 28.5 15.5 37.5s22.166 13.5 35.499 13.5h11c6 -1.33301 12.5 -2.66602 19.5 -3.99902s26.5 -11.666 58.5 -30.999c16 -9.33301 27.667 -14 35 -14c6 0.666992 15.167 6.16699 27.5 16.5s20.833 15.5 25.5 15.5
c6.66699 0 10 -6.33301 10 -19z" />
    <glyph glyph-name="odieresis" unicode="&#xf6;" horiz-adv-x="244" 
d="M250 327c0 -51.333 -22 -112.668 -66 -184.001c-46 -74.667 -89 -112 -129 -112c-18 0 -31.5 5.83301 -40.5 17.5s-13.5 28.167 -13.5 49.5c0 56 21.667 115.333 65 178c46.667 68 95.667 102 147 102c12.667 0 22 -4.66699 28 -14s9 -21.666 9 -36.999zM202 302.998
c0 13.333 -5.99805 20.001 -17.998 20.001c-18 0 -44.667 -24.5 -80 -73.5s-53 -89.5 -53 -121.5c0 -24.667 8 -37 24 -37c12.667 0 26.167 7.66699 40.5 23s25.833 37.666 34.5 66.999c-10.667 0 -15.334 3 -14.001 9c0 6.66699 6.33301 18 19 34
c20 25.333 31.333 40 34 44c7.33301 12 11.666 23.667 12.999 35zM314.002 475.999c0 -12 -8.66699 -27.167 -26 -45.5s-31.666 -27.5 -42.999 -27.5c-13.333 0 -20 7.33301 -20 22c0 15.333 8.66699 31.333 26 48s31.666 25 42.999 25c13.333 0 20 -7.33301 20 -22z
M205.002 476.999c0 -12 -8.66699 -27.167 -26 -45.5s-31.666 -27.5 -42.999 -27.5c-13.333 0 -20 7.33301 -20 22c0 15.333 8.66699 31.333 26 48s31.666 25 42.999 25c13.333 0 20 -7.33301 20 -22z" />
    <glyph glyph-name="oslash" unicode="&#xf8;" horiz-adv-x="244" 
d="M276 345c-0.666992 -4.66699 -2.33398 -8.66602 -5.00098 -11.999l-22 -24c-6.66699 -54.667 -30.667 -113.667 -72 -177c-44 -67.333 -84.667 -101 -122 -101l-21 3c-6 -10 -9.66699 -16 -11 -18c-4 -4.66699 -8.66699 -7.33398 -14 -8.00098
c-6.66699 0 -11.667 2 -15 6s-5 12 -5 24c-0.666992 8.66699 4.33301 19.667 15 33l-3 27c0 56 21.667 115.333 65 178c46.667 68 95.667 102 147 102c10.667 0 19.334 -4.33301 26.001 -13c10 8 19 12 27 12c8.66699 0 13 -4 13 -12c-2 -10 -3 -16.667 -3 -20zM195 320.001
l-10.999 2.99902c-18 0 -44.667 -24.5 -80 -73.5s-53 -89.5 -53 -121.5c28.667 34 51 61.667 67 83c9.33301 12.667 23.666 33.334 42.999 62.001zM149.001 178c1.33301 4.66699 2 8 2 10c-1.33301 2 -2.33301 3 -3 3c-8.66699 0 -24.667 -16.667 -48 -50l-22 -50
c12.667 1.33301 25 8.66602 37 21.999c14.667 16.667 26 38.334 34 65.001z" />
    <glyph glyph-name="ugrave" unicode="&#xf9;" horiz-adv-x="276" 
d="M247 40c0 -10.667 -11.335 -16.002 -34.002 -16.002c-21.333 0 -38.666 7.33301 -51.999 22s-20 33.667 -20 57l1 15c-20 -27.333 -38 -47.333 -54 -60s-30.667 -19 -44 -19c-14 0 -26 5.33301 -36 16s-15 25.334 -15 44.001c0 36.667 17.5 83.167 52.5 139.5
s64.5 84.5 88.5 84.5c15.333 0 23 -3.66699 23 -11c0 -6.66699 -13.667 -28 -41 -64c-31.333 -41.333 -51.666 -76.666 -60.999 -105.999c-4 -14 -6 -24.667 -6 -32c0 -10 2.33301 -15 7 -15c11.333 0 29.666 16.667 54.999 50c28 37.333 51.333 78.333 70 123
c7.33301 16.667 14.833 29 22.5 37s14.5 12 20.5 12c15.333 0 23 -10.667 23 -32c0 -10.667 -3.66699 -21.667 -11 -33c-16.667 -25.333 -28.5 -48 -35.5 -68s-10.5 -38.333 -10.5 -55c0 -14 2.83301 -26.167 8.5 -36.5s12.834 -17.5 21.501 -21.5
c18 -8.66699 27 -19 27 -31zM200.998 400.998c0 -9.33301 -5.66504 -14.002 -16.998 -14.002c-12.667 0 -29.667 14.667 -51 44c-16.667 22.667 -30.334 40.334 -41.001 53.001c-7.33301 6.66699 -11 14 -11 22s2.66699 13.833 8 17.5s10.333 5.5 15 5.5
c7.33301 0 13.666 -4.66699 18.999 -14c0.666992 -1.33301 20 -26.666 58 -75.999c13.333 -17.333 20 -30 20 -38z" />
    <glyph glyph-name="uacute" unicode="&#xfa;" horiz-adv-x="276" 
d="M247 40c0 -10.667 -11.335 -16.002 -34.002 -16.002c-21.333 0 -38.666 7.33301 -51.999 22s-20 33.667 -20 57l1 15c-20 -27.333 -38 -47.333 -54 -60s-30.667 -19 -44 -19c-14 0 -26 5.33301 -36 16s-15 25.334 -15 44.001c0 36.667 17.5 83.167 52.5 139.5
s64.5 84.5 88.5 84.5c15.333 0 23 -3.66699 23 -11c0 -6.66699 -13.667 -28 -41 -64c-31.333 -41.333 -51.666 -76.666 -60.999 -105.999c-4 -14 -6 -24.667 -6 -32c0 -10 2.33301 -15 7 -15c11.333 0 29.666 16.667 54.999 50c28 37.333 51.333 78.333 70 123
c7.33301 16.667 14.833 29 22.5 37s14.5 12 20.5 12c15.333 0 23 -10.667 23 -32c0 -10.667 -3.66699 -21.667 -11 -33c-16.667 -25.333 -28.5 -48 -35.5 -68s-10.5 -38.333 -10.5 -55c0 -14 2.83301 -26.167 8.5 -36.5s12.834 -17.5 21.501 -21.5
c18 -8.66699 27 -19 27 -31zM305.998 514.998c0 -6 -2.33203 -12.333 -6.99902 -19c-28.667 -36.667 -47.334 -60 -56.001 -70c-20.667 -22.667 -36.667 -34 -48 -34c-10.667 0 -16 5 -16 15c0 16.667 14.667 41.667 44 75s50 50 62 50c14 0 21 -5.66699 21 -17z" />
    <glyph glyph-name="ucircumflex" unicode="&#xfb;" horiz-adv-x="276" 
d="M247 40c0 -10.667 -11.335 -16.002 -34.002 -16.002c-21.333 0 -38.666 7.33301 -51.999 22s-20 33.667 -20 57l1 15c-20 -27.333 -38 -47.333 -54 -60s-30.667 -19 -44 -19c-14 0 -26 5.33301 -36 16s-15 25.334 -15 44.001c0 36.667 17.5 83.167 52.5 139.5
s64.5 84.5 88.5 84.5c15.333 0 23 -3.66699 23 -11c0 -6.66699 -13.667 -28 -41 -64c-31.333 -41.333 -51.666 -76.666 -60.999 -105.999c-4 -14 -6 -24.667 -6 -32c0 -10 2.33301 -15 7 -15c11.333 0 29.666 16.667 54.999 50c28 37.333 51.333 78.333 70 123
c7.33301 16.667 14.833 29 22.5 37s14.5 12 20.5 12c15.333 0 23 -10.667 23 -32c0 -10.667 -3.66699 -21.667 -11 -33c-16.667 -25.333 -28.5 -48 -35.5 -68s-10.5 -38.333 -10.5 -55c0 -14 2.83301 -26.167 8.5 -36.5s12.834 -17.5 21.501 -21.5
c18 -8.66699 27 -19 27 -31zM270.998 392.998c0 -14.667 -7.66895 -21.999 -23.002 -21.999c-7.33301 0 -17.5 8 -30.5 24s-22.5 25 -28.5 27c-1.33301 0 -12.666 -5.66699 -33.999 -17c-11.333 -6 -20 -9 -26 -9c-13.333 0 -20 5.33301 -20 16c0 12.667 8.66699 26 26 40
c20.667 16.667 44 25 70 25c10.667 0 24.334 -10.333 41.001 -31s25 -38.334 25 -53.001z" />
    <glyph glyph-name="udieresis" unicode="&#xfc;" horiz-adv-x="276" 
d="M247 40c0 -10.667 -11.335 -16.002 -34.002 -16.002c-21.333 0 -38.666 7.33301 -51.999 22s-20 33.667 -20 57l1 15c-20 -27.333 -38 -47.333 -54 -60s-30.667 -19 -44 -19c-14 0 -26 5.33301 -36 16s-15 25.334 -15 44.001c0 36.667 17.5 83.167 52.5 139.5
s64.5 84.5 88.5 84.5c15.333 0 23 -3.66699 23 -11c0 -6.66699 -13.667 -28 -41 -64c-31.333 -41.333 -51.666 -76.666 -60.999 -105.999c-4 -14 -6 -24.667 -6 -32c0 -10 2.33301 -15 7 -15c11.333 0 29.666 16.667 54.999 50c28 37.333 51.333 78.333 70 123
c7.33301 16.667 14.833 29 22.5 37s14.5 12 20.5 12c15.333 0 23 -10.667 23 -32c0 -10.667 -3.66699 -21.667 -11 -33c-16.667 -25.333 -28.5 -48 -35.5 -68s-10.5 -38.333 -10.5 -55c0 -14 2.83301 -26.167 8.5 -36.5s12.834 -17.5 21.501 -21.5
c18 -8.66699 27 -19 27 -31zM293.998 435.998c0 -12 -8.66699 -27.167 -26 -45.5s-31.666 -27.5 -42.999 -27.5c-13.333 0 -20 7.33301 -20 22c0 15.333 8.66699 31.333 26 48s31.666 25 42.999 25c13.333 0 20 -7.33301 20 -22zM184.998 436.998
c0 -12 -8.66699 -27.167 -26 -45.5s-31.666 -27.5 -42.999 -27.5c-13.333 0 -20 7.33301 -20 22c0 15.333 8.66699 31.333 26 48s31.666 25 42.999 25c13.333 0 20 -7.33301 20 -22z" />
    <glyph glyph-name="yacute" unicode="&#xfd;" horiz-adv-x="354" 
d="M366 201c0 -17.333 -21.332 -46.3291 -63.999 -86.9961c-46.667 -44.667 -89.667 -74.667 -129 -90c-36 -101.333 -77 -179 -123 -233c-38 -44.667 -73 -67 -105 -67c-22 0 -39.333 8.33301 -52 25s-19 37.334 -19 62.001c0 39.333 26 81.666 78 126.999
c48.667 42 106.667 75.667 174 101l35 63c16 29.333 28 55.666 36 78.999c-25.333 -37.333 -54.333 -69 -87 -95s-58.667 -39 -78 -39c-10 0 -17.833 4.83301 -23.5 14.5s-8.5 20.5 -8.5 32.5c0 33.333 24 80.666 72 141.999c46 58.667 76 88 90 88
c11.333 0 17 -7.33301 17 -22c0 -6.66699 -20.167 -33.834 -60.5 -81.501s-60.5 -80.167 -60.5 -97.5c0 -7.33301 3 -11 9 -11c12.667 0 37 19.333 73 58l96 108c35.333 39.333 57.666 59 66.999 59c17.333 0 26 -8.66699 26 -26c0 -6 -9.66699 -26 -29 -60
c-50 -88 -79 -142.667 -87 -164c27.333 19.333 49.5 37.5 66.5 54.5s31.5 35.5 43.5 55.5c8.66699 16.667 17.667 25 27 25c5.33301 0 9.33301 -1.83301 12 -5.5s4 -8.83398 4 -15.501zM102.001 -15.9961c-50 -24.667 -92.667 -56 -128 -94c-30 -32 -45 -55.667 -45 -71
c0 -26 10 -39 30 -39c12 0 25.667 7.66699 41 23c20 20 40.167 51.333 60.5 94zM351.001 505.004c0 -6 -2.33203 -12.333 -6.99902 -19c-28.667 -36.667 -47.334 -60 -56.001 -70c-20.667 -22.667 -36.667 -34 -48 -34c-10.667 0 -16 5 -16 15c0 16.667 14.667 41.667 44 75
s50 50 62 50c14 0 21 -5.66699 21 -17z" />
    <glyph glyph-name="ydieresis" unicode="&#xff;" horiz-adv-x="354" 
d="M366 201c0 -17.333 -21.332 -46.3291 -63.999 -86.9961c-46.667 -44.667 -89.667 -74.667 -129 -90c-36 -101.333 -77 -179 -123 -233c-38 -44.667 -73 -67 -105 -67c-22 0 -39.333 8.33301 -52 25s-19 37.334 -19 62.001c0 39.333 26 81.666 78 126.999
c48.667 42 106.667 75.667 174 101l35 63c16 29.333 28 55.666 36 78.999c-25.333 -37.333 -54.333 -69 -87 -95s-58.667 -39 -78 -39c-10 0 -17.833 4.83301 -23.5 14.5s-8.5 20.5 -8.5 32.5c0 33.333 24 80.666 72 141.999c46 58.667 76 88 90 88
c11.333 0 17 -7.33301 17 -22c0 -6.66699 -20.167 -33.834 -60.5 -81.501s-60.5 -80.167 -60.5 -97.5c0 -7.33301 3 -11 9 -11c12.667 0 37 19.333 73 58l96 108c35.333 39.333 57.666 59 66.999 59c17.333 0 26 -8.66699 26 -26c0 -6 -9.66699 -26 -29 -60
c-50 -88 -79 -142.667 -87 -164c27.333 19.333 49.5 37.5 66.5 54.5s31.5 35.5 43.5 55.5c8.66699 16.667 17.667 25 27 25c5.33301 0 9.33301 -1.83301 12 -5.5s4 -8.83398 4 -15.501zM102.001 -15.9961c-50 -24.667 -92.667 -56 -128 -94c-30 -32 -45 -55.667 -45 -71
c0 -26 10 -39 30 -39c12 0 25.667 7.66699 41 23c20 20 40.167 51.333 60.5 94zM359.001 441.004c0 -12 -8.66699 -27.167 -26 -45.5s-31.666 -27.5 -42.999 -27.5c-13.333 0 -20 7.33301 -20 22c0 15.333 8.66699 31.333 26 48s31.666 25 42.999 25
c13.333 0 20 -7.33301 20 -22zM250.001 442.004c0 -12 -8.66699 -27.167 -26 -45.5s-31.666 -27.5 -42.999 -27.5c-13.333 0 -20 7.33301 -20 22c0 15.333 8.66699 31.333 26 48s31.666 25 42.999 25c13.333 0 20 -7.33301 20 -22z" />
    <glyph glyph-name="dotlessi" unicode="&#x131;" horiz-adv-x="142" 
d="M163 338c0 -10 -4.33301 -20.334 -13 -31.001c-18 -21.333 -41.333 -62.166 -70 -122.499s-45 -101.833 -49 -124.5s-13 -33.334 -27 -32.001c-5.33301 0 -10 3.66699 -14 11s-6 15.333 -6 24c0 33.333 15.333 79.333 46 138c26 50 55.333 96 88 138
c3.33301 4 7.5 8 12.5 12s10.5 6 16.5 6c10.667 -1.33301 16 -7.66602 16 -18.999z" />
    <glyph glyph-name="Scaron" unicode="&#x160;" horiz-adv-x="417" 
d="M549 635c0 -44 -31.001 -92.668 -93.001 -146.001c-56 -48 -97.667 -72 -125 -72c-30.667 0 -45.334 7 -44.001 21c0 14 14.667 25.333 44 34c41.333 10 79.666 33 114.999 69c32.667 33.333 49 62.666 49 87.999c0 18 -10.667 27 -32 27c-37.333 0 -83.333 -20 -138 -60
c-65.333 -47.333 -98 -99.333 -98 -156c0 -21.333 26 -76.333 78 -165c24 -40.667 36 -79.334 36 -116.001c0 -45.333 -27 -82 -81 -110c-42.667 -22 -84.667 -33 -126 -33c-46 0 -81.667 11.667 -107 35c-22 20.667 -33 46.334 -33 77.001c0 27.333 10.667 52.333 32 75
s43.666 34 66.999 34c10 0 17.833 -1.66699 23.5 -5s8.83398 -7.66602 9.50098 -12.999c0 -12 -10.667 -22 -32 -30c-14.667 -5.33301 -25.5 -12.5 -32.5 -21.5s-10.5 -19.5 -10.5 -31.5c0 -17.333 7.33301 -33 22 -47s33.334 -21 56.001 -21c4 -0.666992 10 -1 18 -1
c36.667 0 68.334 10.833 95.001 32.5s40 44.834 40 69.501c0 36 -25.667 87.333 -77 154c-24.667 33.333 -37 70.333 -37 111c0 60.667 28.333 119.667 85 177c62 62.667 133.667 94 215 94c22.667 0 41.834 -6.66699 57.501 -20s23.5 -30 23.5 -50zM562.999 804.999
c0 -12.667 -8.66504 -26.001 -25.998 -40.001c-20.667 -16.667 -44 -25 -70 -25c-10.667 0 -24.334 10.333 -41.001 31s-25 38.334 -25 53.001s7.66699 22 23 22c7.33301 0 17.5 -8 30.5 -24s22.5 -25 28.5 -27c1.33301 0 12.666 5.66699 33.999 17c11.333 6 20 9 26 9
c13.333 0 20 -5.33301 20 -16z" />
    <glyph glyph-name="scaron" unicode="&#x161;" horiz-adv-x="268" 
d="M302 329c0 -24.667 -11.3301 -46.999 -33.9971 -66.999c-25.333 -22.667 -57 -34 -95 -34c-8.66699 0 -15.834 1.83301 -21.501 5.5s-8.16699 8.16699 -7.5 13.5c0 10 12.333 17 37 21c19.333 2 34.666 8 45.999 18s17 20.667 17 32c0 14.667 -9.33301 22 -28 22
c-25.333 0 -48.5 -9.16699 -69.5 -27.5s-31.5 -39.166 -31.5 -62.499c0 -12 7.5 -34 22.5 -66s22.5 -61.667 22.5 -89c0 -24 -7 -43.167 -21 -57.5s-36.667 -21.5 -68 -21.5c-29.333 0 -51.5 9.16699 -66.5 27.5s-22.5 41.166 -22.5 68.499c0 22 5 42.167 15 60.5
s22 27.5 36 27.5c7.33301 0 11 -3.33301 11 -10c0 -5.33301 -1.66699 -11 -5 -17c-8.66699 -14 -13 -27.333 -13 -40c0 -17.333 4.66699 -33.333 14 -48s19.666 -22 30.999 -22c30 0 45 12.333 45 37c0 12.667 -3.33301 26.5 -10 41.5s-15.667 30.833 -27 47.5
c-10 19.333 -15 38 -15 56c0 38 17.333 71 52 99s72 42 112 42c24 0 42.333 -5.33301 55 -16s19 -24.334 19 -41.001zM333.003 480.001c0 -12.667 -8.66504 -26.001 -25.998 -40.001c-20.667 -16.667 -44 -25 -70 -25c-10.667 0 -24.334 10.333 -41.001 31
s-25 38.334 -25 53.001s7.66699 22 23 22c7.33301 0 17.5 -8 30.5 -24s22.5 -25 28.5 -27c1.33301 0 12.666 5.66699 33.999 17c11.333 6 20 9 26 9c13.333 0 20 -5.33301 20 -16z" />
    <glyph glyph-name="Ydieresis" unicode="&#x178;" horiz-adv-x="433" 
d="M607 684c0 -12.667 -5.33398 -25.3359 -16.001 -38.0029c-68.667 -80 -143.334 -189.667 -224.001 -329s-134.667 -250.333 -162 -333c-6 -19.333 -17.333 -29 -34 -29c-8 0 -14.5 2.5 -19.5 7.5s-7.5 13.167 -7.5 24.5c0 26.667 20.333 80.334 61 161.001
s85.334 157.334 134.001 230.001l-106 -105c-42.667 -36.667 -81.667 -55 -117 -55c-14.667 0 -26.334 5 -35.001 15s-13 26 -13 48c0 70.667 37.667 157.167 113 259.5s135.333 153.5 180 153.5c19.333 0 29 -8 29 -24c0 -13.333 -12 -26.666 -36 -39.999
c-45.333 -28.667 -87.666 -69.667 -126.999 -123c-32.667 -44 -58.5 -87.833 -77.5 -131.5s-26.833 -71.834 -23.5 -84.501c2.66699 -6.66699 7.66699 -10 15 -10c30.667 0 93.334 50.667 188.001 152c84.667 90.667 156 177.334 214 260.001c10 16.667 21.333 25 34 25
c20 0 30 -11.333 30 -34z" />
    <glyph glyph-name="florin" unicode="&#x192;" horiz-adv-x="346" 
d="M528 622c0 -10 -4 -15.9971 -12 -17.9971s-22.333 -3 -43 -3c-8.66699 0 -19 -0.166992 -31 -0.5s-23 -3.5 -33 -9.5c-23.333 -14 -47.333 -41 -72 -81c-11.333 -18.667 -31.666 -57.334 -60.999 -116.001c12 1.33301 26.5 3.66602 43.5 6.99902s28.5 5 34.5 5
c21.333 0 32 -6.66699 32 -20c0 -14.667 -12 -24 -36 -28c-48.667 -7.33301 -86.667 -16.333 -114 -27c-8 -16.667 -32.333 -63.334 -73 -140.001c-28 -53.333 -48.333 -93.333 -61 -120c-49.333 -99.333 -95 -167 -137 -203c-38 -32.667 -84 -49 -138 -49
c-11.333 0 -20.5 3.16699 -27.5 9.5s-10.5 13.5 -10.5 21.5c0 16 15.333 24 46 24c39.333 0 76 17.667 110 53c29.333 30.667 62.666 81 99.999 151l120 237c-11.333 -3.33301 -21.333 -5 -30 -5c-22 0 -33 9.66699 -33 29c0 7.33301 14.667 14.333 44 21
c18 4 35 7.33301 51 10l102 183c46 67.333 103.667 101 173 101c20 0 34.333 -1.66699 43 -5s13 -12.333 13 -27z" />
    <glyph glyph-name="circumflex" unicode="&#x2c6;" horiz-adv-x="307" 
d="M271 428c0 -14.667 -7.66895 -21.999 -23.002 -21.999c-7.33301 0 -17.5 8 -30.5 24s-22.5 25 -28.5 27c-1.33301 0 -12.666 -5.66699 -33.999 -17c-11.333 -6 -20 -9 -26 -9c-13.333 0 -20 5.33301 -20 16c0 12.667 8.66699 26 26 40c20.667 16.667 44 25 70 25
c10.667 0 24.334 -10.333 41.001 -31s25 -38.334 25 -53.001z" />
    <glyph glyph-name="caron" unicode="&#x2c7;" horiz-adv-x="307" 
d="M273 640c0 -12.667 -8.66504 -26.001 -25.998 -40.001c-20.667 -16.667 -44 -25 -70 -25c-10.667 0 -24.334 10.333 -41.001 31s-25 38.334 -25 53.001s7.66699 22 23 22c7.33301 0 17.5 -8 30.5 -24s22.5 -25 28.5 -27c1.33301 0 12.666 5.66699 33.999 17
c11.333 6 20 9 26 9c13.333 0 20 -5.33301 20 -16z" />
    <glyph glyph-name="ring" unicode="&#x2da;" horiz-adv-x="276" 
d="M260 441c-14.667 -16 -29.1689 -28.001 -43.502 -36.001s-27.5 -12 -39.5 -12c-21.333 0 -32 10.333 -32 31c0 9.33301 2.16699 19 6.5 29s11.5 21.667 21.5 35c12.667 16.667 25.834 29.167 39.501 37.5s26.834 12.5 39.501 12.5c11.333 0 20.5 -3.16699 27.5 -9.5
s10.5 -15.166 10.5 -26.499c0 -18.667 -10 -39 -30 -61zM227.998 448.999c10 13.333 15 24.666 15 33.999c0 8.66699 -3.66699 13 -11 13c-9.33301 0 -21 -8 -35 -24c-11.333 -13.333 -17 -24.666 -17 -33.999c0 -8 4 -12 12 -12c6.66699 0 13.167 2.33301 19.5 7
s11.833 10 16.5 16z" />
    <glyph glyph-name="tilde" unicode="&#x2dc;" horiz-adv-x="402" 
d="M331 488c0 -15.333 -5.66602 -29.502 -16.999 -42.502s-26.333 -19.5 -45 -19.5c-17.333 0 -36 7.66699 -56 23l-42 27c-13.333 8 -23.333 12 -30 12c-4.66699 0 -9.5 -5.5 -14.5 -16.5s-11.167 -16.5 -18.5 -16.5c-10 0 -15 6 -15 18c0 16 5.16699 28.5 15.5 37.5
s22.166 13.5 35.499 13.5h11c6 -1.33301 12.5 -2.66602 19.5 -3.99902s26.5 -11.666 58.5 -30.999c16 -9.33301 27.667 -14 35 -14c6 0.666992 15.167 6.16699 27.5 16.5s20.833 15.5 25.5 15.5c6.66699 0 10 -6.33301 10 -19z" />
    <glyph glyph-name="endash" unicode="&#x2013;" horiz-adv-x="504" 
d="M504 189h-504v63h504v-63z" />
    <glyph glyph-name="emdash" unicode="&#x2014;" horiz-adv-x="1000" 
d="M992 197h-992v63h992v-63z" />
    <glyph glyph-name="quoteleft" unicode="&#x2018;" horiz-adv-x="157" 
d="M275 699c-0.666992 -4.66699 -2.16602 -9.66699 -4.49902 -15s-5.83301 -10.333 -10.5 -15c-19.333 -18.667 -35.333 -38 -48 -58c-17.333 -27.333 -27.833 -54.5 -31.5 -81.5s-13.834 -40.5 -30.501 -40.5c-8 0 -15.5 3.66699 -22.5 11s-10.5 16.333 -10.5 27
c0 31.333 17.167 71.333 51.5 120s62.5 73 84.5 73c14.667 0 22 -7 22 -21z" />
    <glyph glyph-name="quoteright" unicode="&#x2019;" horiz-adv-x="157" 
d="M339 669c0 -31.333 -17.666 -69.333 -52.999 -114s-65 -67 -89 -67c-15.333 0 -23 6.33301 -23 19c-0.666992 8 4.33301 17.333 15 28c20.667 17.333 39.667 44.333 57 81c29.333 62 50.666 93 63.999 93c8 0 14.833 -3.33301 20.5 -10s8.5 -16.667 8.5 -30z" />
    <glyph glyph-name="quotedblleft" unicode="&#x201c;" horiz-adv-x="228" 
d="M369 704c-0.666992 -4.66699 -2.16602 -9.66699 -4.49902 -15s-5.83301 -10.333 -10.5 -15c-19.333 -18.667 -35.333 -38 -48 -58c-17.333 -27.333 -27.833 -54.5 -31.5 -81.5s-13.834 -40.5 -30.501 -40.5c-8 0 -15.5 3.66699 -22.5 11s-10.5 16.333 -10.5 27
c0 31.333 17.167 71.333 51.5 120s62.5 73 84.5 73c14.667 0 22 -7 22 -21zM255.001 699c-0.666992 -4.66699 -2.16602 -9.66699 -4.49902 -15s-5.83301 -10.333 -10.5 -15c-19.333 -18.667 -35.333 -38 -48 -58c-17.333 -27.333 -27.833 -54.5 -31.5 -81.5
s-13.834 -40.5 -30.501 -40.5c-8 0 -15.5 3.66699 -22.5 11s-10.5 16.333 -10.5 27c0 31.333 17.167 71.333 51.5 120s62.5 73 84.5 73c14.667 0 22 -7 22 -21z" />
    <glyph glyph-name="quotedblright" unicode="&#x201d;" horiz-adv-x="236" 
d="M427 668c0 -31.333 -17.666 -69.333 -52.999 -114s-65 -67 -89 -67c-15.333 0 -23 6.33301 -23 19c-0.666992 8 4.33301 17.333 15 28c20.667 17.333 39.667 44.333 57 81c29.333 62 50.666 93 63.999 93c8 0 14.833 -3.33301 20.5 -10s8.5 -16.667 8.5 -30zM306.001 668
c0 -31.333 -17.666 -69.333 -52.999 -114s-65 -67 -89 -67c-15.333 0 -23 6.33301 -23 19c-0.666992 8 4.33301 17.333 15 28c20.667 17.333 39.667 44.333 57 81c29.333 62 50.666 93 63.999 93c8 0 14.833 -3.33301 20.5 -10s8.5 -16.667 8.5 -30z" />
    <glyph glyph-name="trademark" unicode="&#x2122;" horiz-adv-x="825" 
d="M743 669c0 -14.667 -10.002 -39.998 -30.002 -75.998l-41 -73c-18.667 -38 -33.334 -69.667 -44.001 -95c-19.333 -46 -30 -78.667 -32 -98l1 -17c0 -31.333 -9 -47 -27 -47c-4 0 -11.5 0.666992 -22.5 2s-16.5 16 -16.5 44c0 17.333 3.5 38.166 10.5 62.499
s14.167 43.5 21.5 57.5l18 37l-62 -91c-7.33301 -11.333 -15.166 -19.666 -23.499 -24.999s-16.166 -8 -23.499 -8c-20.667 2 -31 14.333 -31 37c0 23.333 3.83301 47.833 11.5 73.5s18.167 52.5 31.5 80.5c8.66699 14.667 15.334 26.667 20.001 36
c9.33301 17.333 16 31 20 41l23 -18c-19.333 -15.333 -50 -59.666 -92 -132.999c-34.667 -60 -62 -112 -82 -156c-10.667 -22.667 -18.667 -37 -24 -43s-13.333 -9 -24 -9c-9.33301 0 -16 2.33301 -20 7s-6 11 -6 19c0 6.66699 2.83301 16.167 8.5 28.5l16.5 35.5
c18 37.333 39 76.333 63 117c29.333 50 56.666 91.667 81.999 125c32.667 41.333 57.667 69.666 75 84.999c14 12.667 25.333 19 34 19c8 0 14.833 -2.33301 20.5 -7s8.83398 -11.667 9.50098 -21l-4 -19c-4 -12 -11.333 -28.667 -22 -50
c-32.667 -64.667 -51 -101.667 -55 -111l68 98c29.333 43.333 55.666 75.666 78.999 96.999c18 16.667 32 25 42 25c8.66699 0 15.334 -2.83301 20.001 -8.5s7 -12.834 7 -21.501zM448.998 670.002c0 -11.333 -15.4971 -20.499 -46.4971 -27.499s-64.167 -10.5 -99.5 -10.5
c-4 4.66699 -7.66699 9.66699 -11 15c-0.666992 -2.66699 -1 -5.33398 -1 -8.00098c0 -6.66699 -4.66699 -17.334 -14 -32.001c-15.333 -24.667 -23.333 -37.334 -24 -38.001l-70 -129c-30.667 -58 -50.334 -103.333 -59.001 -136c-3.33301 -14 -7.83301 -23.5 -13.5 -28.5
s-12.5 -7.5 -20.5 -7.5c-7.33301 0 -14.333 4 -21 12s-10 17.667 -10 29c0 26.667 27.667 88.667 83 186l71 123c-17.333 -2.66699 -35.5 -6.83398 -54.5 -12.501s-30.167 -8.5 -33.5 -8.5c-8.66699 0 -16 2.66699 -22 8s-9 12.333 -9 21s7 17.334 21 26.001
s30 14.334 48 17.001c31.333 8.66699 68.666 15.834 111.999 21.501s86.666 8.5 129.999 8.5c15.333 0 26.5 -3 33.5 -9s10.5 -12.667 10.5 -20z" />
    <glyph glyph-name="fraction" unicode="&#x2215;" horiz-adv-x="595" 
d="M533 657c0 -4 -23.998 -33.998 -71.998 -89.998s-107 -139 -177 -249c-54.667 -85.333 -110.334 -177.666 -167.001 -276.999c-6.66699 -12 -13.334 -23.333 -20.001 -34s-14 -16.334 -22 -17.001c-13.333 0 -23.333 2.66699 -30 8s-10 12.666 -10 21.999
c-0.666992 11.333 5.66602 23.666 18.999 36.999l114 188l115 174l99 146l55 72c29.333 34.667 51.333 52 66 52c8.66699 0 15.834 -3.83301 21.501 -11.5s8.5 -14.5 8.5 -20.5z" />
    <glyph glyph-name="fi" unicode="&#xf001;" horiz-adv-x="199" 
d="M237 290c0 -7.33301 -5.00098 -18.666 -15.001 -33.999l-30 -45l-21 -39l14 1c10 0 17.167 -1.66699 21.5 -5s5.5 -9 3.5 -17c-2 -8.66699 -7 -14.334 -15 -17.001s-22.333 -4 -43 -4c-16 -27.333 -29.333 -58.333 -40 -93c-6 -18.667 -13.667 -28 -23 -28
c-14.667 0 -22 7.33301 -22 22c0 12.667 6 32.334 18 59.001l17 35c-11.333 0 -24.666 -2 -39.999 -6s-25.333 -6 -30 -6c-12 0 -18 5.66699 -18 17c0 19.333 27.5 54.166 82.5 104.499s93.5 75.5 115.5 75.5c6.66699 0 12.5 -1.83301 17.5 -5.5s7.5 -8.5 7.5 -14.5z
M169.999 248c-28.667 -20 -60 -49.334 -94 -88.001l48 6l23 44c1.33301 2.66699 9 15.334 23 38.001z" />
    <glyph glyph-name=".null" horiz-adv-x="0" 
 />
    <glyph glyph-name="nonmarkingreturn" horiz-adv-x="165" 
 />
    </font>
</defs>
</svg>
